<svg width="183" height="68" viewBox="0 0 183 68" fill="none" xmlns="http://www.w3.org/2000/svg">
<path d="M42.6078 17.5166H49.8814C50.0105 17.5166 50.1396 17.6027 50.1396 17.7318V43.1676C50.1396 43.2967 50.2257 43.3828 50.3548 43.3828H69.2918C69.5069 43.4258 69.593 43.5119 69.593 43.641V49.6234C69.593 49.7525 69.4639 49.8816 69.2918 49.8816H46.3952C44.1572 49.8816 42.3496 48.3753 42.3496 46.5246V17.7748C42.3496 17.6027 42.4357 17.5166 42.6078 17.5166Z" fill="#29292D"/>
<path d="M9.51116 24.0154C9.38205 24.0154 9.25293 23.9293 9.25293 23.8002V20.8736C9.25293 19.023 11.0605 17.5166 13.2986 17.5166H36.3672C36.5824 17.5596 36.6685 17.6457 36.6685 17.7748V23.7572C36.6685 23.8863 36.5394 24.0154 36.3672 24.0154H9.51116ZM9.29597 30.5573C9.29597 30.4282 9.38205 30.3421 9.5542 30.3421H36.3242C36.5394 30.3421 36.6255 30.4282 36.6255 30.5573V36.7118C36.6255 36.8409 36.5394 36.927 36.3242 36.927H17.3011C17.172 36.927 17.0859 36.97 17.0859 37.0991V49.5803C17.0859 49.7094 16.9999 49.7955 16.8277 49.7955H9.5542C9.33901 49.7955 9.25293 49.7094 9.25293 49.5373V30.5573H9.29597Z" fill="#29292D"/>
<path d="M95.8036 22.8964H82.2895V30.3851H77.8135V13.1267C77.8135 11.8786 78.8034 10.8887 80.0515 10.8887H95.8036V15.3647H82.2895V18.3343H95.8036V22.8964Z" fill="#29292D"/>
<path d="M100.322 30.3851V10.8887H104.841V30.3851H100.322Z" fill="#29292D"/>
<path d="M128.858 25.8661V30.3851H124.382V25.8661C124.382 25.4357 124.253 25.0914 123.951 24.7901C123.65 24.4889 123.306 24.3597 122.875 24.3597H113.88V30.3421H109.404V10.8887H122.918C123.736 10.8887 124.511 11.0608 125.242 11.3621C125.974 11.6634 126.62 12.0938 127.136 12.6533C127.696 13.2128 128.126 13.8153 128.427 14.547C128.729 15.2786 128.901 16.0533 128.901 16.871V18.3774C128.901 19.066 128.772 19.7116 128.556 20.3572C128.341 21.0027 127.997 21.6053 127.567 22.1217C127.997 22.6382 128.341 23.2407 128.556 23.8863C128.772 24.5319 128.858 25.1775 128.858 25.8661ZM124.382 18.3774V16.871C124.382 16.4406 124.253 16.0963 123.951 15.7951C123.65 15.4938 123.306 15.3647 122.875 15.3647H113.88V19.8407H122.875C123.263 19.8407 123.65 19.7116 123.951 19.4103C124.253 19.1521 124.382 18.8078 124.382 18.3774Z" fill="#29292D"/>
<path d="M152.874 10.8887V15.3647H139.359C138.972 15.3647 138.585 15.4938 138.283 15.7951C137.982 16.0963 137.853 16.4406 137.853 16.871C137.853 17.3014 137.982 17.6457 138.283 17.947C138.585 18.2483 138.929 18.3774 139.359 18.3774H146.848C147.58 18.3774 148.268 18.5065 148.914 18.7647C149.603 19.023 150.205 19.3673 150.722 19.8407C151.238 20.2711 151.712 20.8306 152.056 21.4331C152.443 22.0787 152.658 22.7243 152.744 23.4559C152.744 23.6281 152.787 23.7572 152.787 23.9294C152.787 24.1015 152.787 24.2306 152.787 24.4028C152.787 25.2205 152.615 25.9952 152.314 26.7269C152.013 27.4585 151.582 28.1041 151.023 28.6206C150.463 29.1801 149.861 29.6104 149.129 29.9117C148.398 30.213 147.623 30.3851 146.805 30.3851H133.291V25.9091H146.805C147.192 25.9091 147.58 25.78 147.881 25.4787C148.182 25.1775 148.311 24.8332 148.311 24.4028C148.311 24.0154 148.182 23.6281 147.881 23.3268C147.58 23.0255 147.236 22.8964 146.805 22.8964H139.316C138.499 22.8964 137.724 22.7243 136.992 22.423C136.261 22.1217 135.615 21.6914 135.099 21.1319C134.539 20.5723 134.109 19.9698 133.807 19.2382C133.506 18.5065 133.334 17.7318 133.334 16.9141C133.334 16.0963 133.506 15.3216 133.807 14.59C134.109 13.8583 134.539 13.2128 135.099 12.6963C135.658 12.1368 136.261 11.7064 136.992 11.4051C137.724 11.1039 138.499 10.9317 139.316 10.9317H152.874V10.8887Z" fill="#29292D"/>
<path d="M173.833 15.3647H167.851V30.3851H163.375V15.3647H157.393V10.8887H171.638C172.886 10.8887 173.876 11.8786 173.876 13.1267V15.3647H173.833Z" fill="#29292D"/>
<path d="M95.8037 55.9935H79.9655C78.7174 55.9935 77.7275 55.0037 77.7275 53.7555V36.4971H82.2466V51.5175H95.7607V55.9935H95.8037Z" fill="#29292D"/>
<path d="M119.819 36.4971V55.9935H115.3V51.5175H104.798V55.9935H100.322V45.4921C100.322 44.244 100.537 43.082 101.011 42.006C101.484 40.93 102.13 39.9402 102.948 39.1224C103.765 38.3047 104.712 37.6591 105.788 37.1857C106.864 36.7123 108.026 36.4971 109.274 36.4971H119.819ZM115.3 47.0415V41.0161H109.317C108.715 41.0161 108.112 41.1452 107.596 41.3604C107.036 41.6187 106.563 41.9199 106.176 42.3503C105.788 42.7377 105.444 43.2111 105.186 43.7706C104.927 44.3301 104.841 44.8896 104.841 45.4921V46.9985H115.3V47.0415Z" fill="#29292D"/>
<path d="M142.328 45.4921V53.7555C142.328 55.0037 141.338 55.9935 140.09 55.9935H137.852V45.4921C137.852 44.8896 137.723 44.287 137.508 43.7275C137.249 43.168 136.948 42.6946 136.518 42.3073C136.13 41.9199 135.614 41.5756 135.097 41.3604C134.538 41.1452 133.978 41.0161 133.333 41.0161H128.857V56.0366H124.381V36.4971H133.376C134.624 36.4971 135.786 36.7553 136.862 37.1857C137.938 37.6591 138.928 38.3047 139.746 39.1224C140.563 39.9402 141.209 40.887 141.682 41.963C142.156 43.0389 142.328 44.244 142.328 45.4921Z" fill="#29292D"/>
<path d="M58.9191 11.7925C60.2103 11.7925 61.2432 12.8254 61.2432 14.1166V53.1525C61.2432 54.4437 60.2103 55.4766 58.9191 55.4766H19.8832C18.592 55.4766 17.5591 54.4437 17.5591 53.1525V14.1166C17.5591 12.8254 18.592 11.7925 19.8832 11.7925H58.9191ZM58.9191 10.8887H19.8832C18.1186 10.8887 16.6553 12.3089 16.6553 14.1166V53.1525C16.6553 54.9171 18.0755 56.3804 19.8832 56.3804H58.9191C60.6837 56.3804 62.147 54.9602 62.147 53.1525V14.1166C62.147 12.3089 60.6837 10.8887 58.9191 10.8887Z" fill="#29292D"/>
</svg>
