<svg width="52" height="53" viewBox="0 0 52 53" fill="none" xmlns="http://www.w3.org/2000/svg">
<rect width="52" height="52" transform="translate(0 0.441406)" fill="#134BAF"/>
<g clip-path="url(#clip0_1097_4040)">
<path d="M26 16.6023C29.2063 16.6023 29.5859 16.6164 30.8469 16.6727C32.0188 16.7242 32.6516 16.9211 33.0734 17.0852C33.6313 17.3008 34.0344 17.5633 34.4516 17.9805C34.8734 18.4023 35.1313 18.8008 35.3469 19.3586C35.5109 19.7805 35.7078 20.418 35.7594 21.5852C35.8156 22.8508 35.8297 23.2305 35.8297 26.432C35.8297 29.6383 35.8156 30.018 35.7594 31.2789C35.7078 32.4508 35.5109 33.0836 35.3469 33.5055C35.1313 34.0633 34.8687 34.4664 34.4516 34.8836C34.0297 35.3055 33.6313 35.5633 33.0734 35.7789C32.6516 35.943 32.0141 36.1398 30.8469 36.1914C29.5813 36.2477 29.2016 36.2617 26 36.2617C22.7938 36.2617 22.4141 36.2477 21.1531 36.1914C19.9813 36.1398 19.3484 35.943 18.9266 35.7789C18.3688 35.5633 17.9656 35.3008 17.5484 34.8836C17.1266 34.4617 16.8688 34.0633 16.6531 33.5055C16.4891 33.0836 16.2922 32.4461 16.2406 31.2789C16.1844 30.0133 16.1703 29.6336 16.1703 26.432C16.1703 23.2258 16.1844 22.8461 16.2406 21.5852C16.2922 20.4133 16.4891 19.7805 16.6531 19.3586C16.8688 18.8008 17.1313 18.3977 17.5484 17.9805C17.9703 17.5586 18.3688 17.3008 18.9266 17.0852C19.3484 16.9211 19.9859 16.7242 21.1531 16.6727C22.4141 16.6164 22.7938 16.6023 26 16.6023ZM26 14.4414C22.7422 14.4414 22.3344 14.4555 21.0547 14.5117C19.7797 14.568 18.9031 14.7742 18.1438 15.0695C17.3516 15.3789 16.6813 15.7867 16.0156 16.457C15.3453 17.1227 14.9375 17.793 14.6281 18.5805C14.3328 19.3445 14.1266 20.2164 14.0703 21.4914C14.0141 22.7758 14 23.1836 14 26.4414C14 29.6992 14.0141 30.107 14.0703 31.3867C14.1266 32.6617 14.3328 33.5383 14.6281 34.2977C14.9375 35.0898 15.3453 35.7602 16.0156 36.4258C16.6813 37.0914 17.3516 37.5039 18.1391 37.8086C18.9031 38.1039 19.775 38.3102 21.05 38.3664C22.3297 38.4227 22.7375 38.4367 25.9953 38.4367C29.2531 38.4367 29.6609 38.4227 30.9406 38.3664C32.2156 38.3102 33.0922 38.1039 33.8516 37.8086C34.6391 37.5039 35.3094 37.0914 35.975 36.4258C36.6406 35.7602 37.0531 35.0898 37.3578 34.3023C37.6531 33.5383 37.8594 32.6664 37.9156 31.3914C37.9719 30.1117 37.9859 29.7039 37.9859 26.4461C37.9859 23.1883 37.9719 22.7805 37.9156 21.5008C37.8594 20.2258 37.6531 19.3492 37.3578 18.5898C37.0625 17.793 36.6547 17.1227 35.9844 16.457C35.3188 15.7914 34.6484 15.3789 33.8609 15.0742C33.0969 14.7789 32.225 14.5727 30.95 14.5164C29.6656 14.4555 29.2578 14.4414 26 14.4414Z" fill="#EAE8E6"/>
<path d="M26 20.2773C22.5969 20.2773 19.8359 23.0383 19.8359 26.4414C19.8359 29.8445 22.5969 32.6055 26 32.6055C29.4031 32.6055 32.1641 29.8445 32.1641 26.4414C32.1641 23.0383 29.4031 20.2773 26 20.2773ZM26 30.4398C23.7922 30.4398 22.0016 28.6492 22.0016 26.4414C22.0016 24.2336 23.7922 22.443 26 22.443C28.2078 22.443 29.9984 24.2336 29.9984 26.4414C29.9984 28.6492 28.2078 30.4398 26 30.4398Z" fill="#EAE8E6"/>
<path d="M33.8469 20.0338C33.8469 20.8307 33.2 21.4729 32.4078 21.4729C31.6109 21.4729 30.9688 20.826 30.9688 20.0338C30.9688 19.2369 31.6156 18.5947 32.4078 18.5947C33.2 18.5947 33.8469 19.2416 33.8469 20.0338Z" fill="#EAE8E6"/>
</g>
<defs>
<clipPath id="clip0_1097_4040">
<rect width="24" height="24" fill="white" transform="translate(14 14.4414)"/>
</clipPath>
</defs>
</svg>
