<svg width="52" height="53" viewBox="0 0 52 53" fill="none" xmlns="http://www.w3.org/2000/svg">
<rect width="52" height="52" transform="translate(0 0.441406)" fill="#134BAF"/>
<path d="M32.0979 35.9103L32.0979 35.9103L32.0979 35.9103ZM32.0979 35.9103L32.0986 35.9105M32.0979 35.9103L32.0986 35.9105M32.0986 35.9105L32.0989 35.9105M32.0986 35.9105L32.0989 35.9105M32.0989 35.9105L32.1379 35.9196L32.0989 35.9105ZM37.5787 15.77L37.5786 15.7699C37.3677 15.5742 37.1091 15.4388 36.8293 15.3779C36.5495 15.3169 36.2588 15.3326 35.987 15.4233L35.9869 15.4233L14.005 22.771C13.3661 22.9846 12.9333 23.5631 12.9018 24.2426L12.9018 24.2426C12.8704 24.922 13.2475 25.5391 13.8637 25.8125L13.8637 25.8125L19.2533 28.2037L20.8829 35.8676C20.9545 36.2043 21.1306 36.5357 21.524 36.6373L21.549 36.5405L21.524 36.6373C21.9095 36.7369 22.1863 36.5262 22.4293 36.3413C22.4371 36.3354 22.4448 36.3296 22.4525 36.3237L22.392 36.2441L22.4525 36.3237L26.4234 33.3086L31.0786 37.1714C31.0786 37.1714 31.0786 37.1714 31.0786 37.1714C31.3712 37.4143 31.7295 37.5414 32.0953 37.5414H32.0953C32.2723 37.5412 32.4479 37.5117 32.6154 37.4539C33.1448 37.2719 33.537 36.8336 33.6646 36.2831L38.0575 17.3444L38.0575 17.3444C38.1227 17.0626 38.1127 16.7683 38.0286 16.4916C37.9445 16.215 37.7893 15.9659 37.5787 15.77ZM20.9245 28.0374L27.2654 24.465L22.838 29.1592L22.8378 29.1594C22.7519 29.2511 22.6875 29.361 22.6493 29.4811C22.6458 29.4897 22.6425 29.4992 22.6394 29.51L22.6394 29.5103L21.8399 32.3426L20.9245 28.0374ZM14.6712 24.3268L36.4096 17.0605L32.0621 35.8037L26.9775 31.5846L26.9755 31.583L26.9751 31.5826L24.666 29.6666L32.2747 21.5994C32.4125 21.4533 32.4939 21.2621 32.5044 21.0607C32.5149 20.8594 32.4539 20.6607 32.3321 20.5008C32.2103 20.3408 32.0358 20.2301 31.8399 20.1892C31.6441 20.1483 31.4403 20.18 31.2657 20.2784L19.9349 26.6621L14.6712 24.3268ZM32.1364 35.8654C32.1376 35.8663 32.1378 35.8665 32.1366 35.8655L32.1364 35.8654ZM23.5413 32.4619L23.8946 31.2103L25.0949 32.2063L23.2094 33.6379L23.5413 32.4619Z" fill="#EAE8E6" stroke="#EAE8E6" stroke-width="0.2"/>
</svg>
