<svg width="52" height="53" viewBox="0 0 52 53" fill="none" xmlns="http://www.w3.org/2000/svg">
<rect width="52" height="52" transform="translate(0 0.441406)" fill="#134BAF"/>
<path d="M14 26.4414C14 19.8437 19.4023 14.4414 26 14.4414C32.5977 14.4414 38 19.8437 38 26.4414C38 33.0391 32.5977 38.4414 26 38.4414C19.4023 38.4414 14 33.0391 14 26.4414Z" stroke="#EAE8E6" stroke-width="2"/>
<path d="M26.1331 30.7751C21.2768 30.7751 18.5249 27.5515 18.417 22.1084H20.8452C20.8991 26.0718 22.7337 27.7629 24.1367 28.0799V22.1084H26.4029V25.5434C27.8059 25.3848 29.2628 23.8523 29.7484 22.1084H32.0147C31.637 24.2222 30.0182 25.8076 28.8851 26.4417C30.0182 26.9702 31.8528 28.3442 32.5003 30.7751H29.9642C29.4247 29.1369 28.0757 27.8686 26.295 27.6572V30.7751H26.1331Z" fill="#EAE8E6"/>
</svg>
