<svg width="52" height="53" viewBox="0 0 52 53" fill="none" xmlns="http://www.w3.org/2000/svg">
<rect width="52" height="52" transform="translate(0 0.441406)" fill="#134BAF"/>
<path d="M14 38.4414L15.687 32.2784C14.646 30.4744 14.099 28.4294 14.1 26.3324C14.103 19.7764 19.438 14.4414 25.993 14.4414C29.174 14.4424 32.16 15.6814 34.406 17.9294C36.6509 20.1774 37.8869 23.1654 37.8859 26.3434C37.8829 32.9004 32.548 38.2354 25.993 38.2354C24.003 38.2344 22.042 37.7354 20.305 36.7874L14 38.4414ZM20.597 34.6344C22.273 35.6294 23.873 36.2254 25.989 36.2264C31.437 36.2264 35.875 31.7924 35.878 26.3414C35.88 20.8794 31.463 16.4514 25.997 16.4494C20.545 16.4494 16.11 20.8834 16.108 26.3334C16.107 28.5584 16.759 30.2244 17.854 31.9674L16.855 35.6154L20.597 34.6344ZM31.984 29.1704C31.91 29.0464 31.712 28.9724 31.414 28.8234C31.117 28.6744 29.656 27.9554 29.383 27.8564C29.111 27.7574 28.913 27.7074 28.714 28.0054C28.516 28.3024 27.946 28.9724 27.773 29.1704C27.6 29.3684 27.426 29.3934 27.129 29.2444C26.832 29.0954 25.874 28.7824 24.739 27.7694C23.856 26.9814 23.259 26.0084 23.086 25.7104C22.913 25.4134 23.068 25.2524 23.216 25.1044C23.35 24.9714 23.513 24.7574 23.662 24.5834C23.813 24.4114 23.862 24.2874 23.962 24.0884C24.061 23.8904 24.012 23.7164 23.937 23.5674C23.862 23.4194 23.268 21.9564 23.021 21.3614C22.779 20.7824 22.534 20.8604 22.352 20.8514L21.782 20.8414C21.584 20.8414 21.262 20.9154 20.99 21.2134C20.718 21.5114 19.95 22.2294 19.95 23.6924C19.95 25.1554 21.015 26.5684 21.163 26.7664C21.312 26.9644 23.258 29.9664 26.239 31.2534C26.948 31.5594 27.502 31.7424 27.933 31.8794C28.645 32.1054 29.293 32.0734 29.805 31.9974C30.376 31.9124 31.563 31.2784 31.811 30.5844C32.059 29.8894 32.059 29.2944 31.984 29.1704Z" fill="#EAE8E6"/>
</svg>
