<svg width="170" height="90" viewBox="0 0 170 90" fill="none" xmlns="http://www.w3.org/2000/svg">
<g clip-path="url(#clip0_269_8763)">
<path d="M55.5361 59.7905H48.082V89.4218H55.5361V59.7905Z" fill="#888C8E"/>
<path d="M115.639 68.2814C115.339 68.125 112.942 66.6992 109.377 66.6992C104.549 66.6992 101.208 70.0648 101.208 74.6027C101.208 79.0056 104.409 82.5132 109.377 82.5132C112.881 82.5132 115.318 81.1182 115.639 80.9406V88.8937C114.713 89.1566 112.17 89.9477 108.841 89.9477C100.461 89.9477 93.1113 84.1498 93.1113 74.6027C93.1113 65.7542 99.7697 59.2648 108.841 59.2648C112.35 59.2648 114.937 60.1198 115.639 60.3282V68.2814Z" fill="#888C8E"/>
<path d="M37.834 68.2814C37.5341 68.125 35.1376 66.6992 31.5723 66.6992C26.7439 66.6992 23.4029 70.0648 23.4029 74.6027C23.4029 79.0056 26.6046 82.5132 31.5723 82.5132C35.0762 82.5132 37.5129 81.1182 37.834 80.9406V88.8937C36.9084 89.1566 34.3655 89.9477 31.0364 89.9477C22.6568 89.9477 15.3066 84.1498 15.3066 74.6027C15.3066 65.7542 21.965 59.2648 31.0364 59.2648C34.545 59.2648 37.1328 60.1198 37.834 60.3282V68.2814Z" fill="#888C8E"/>
<path d="M139.09 66.8103C134.668 66.8103 131.383 70.3014 131.383 74.6024C131.383 78.9129 134.668 82.4016 139.09 82.4016C143.508 82.4016 146.801 78.9129 146.801 74.6024C146.801 70.3014 143.508 66.8103 139.09 66.8103ZM154.699 74.6024C154.699 83.079 148.176 89.9474 139.09 89.9474C130.005 89.9474 123.49 83.079 123.49 74.6024C123.49 66.1401 130.005 59.2645 139.09 59.2645C148.176 59.2645 154.699 66.1401 154.699 74.6024Z" fill="#888C8E"/>
<path d="M83.8039 66.5259C83.6929 66.4904 80.555 65.6212 77.9767 65.6212C74.9899 65.6212 73.3654 66.6254 73.3654 68.0488C73.3654 69.8535 75.5565 70.4835 76.7819 70.8719L78.8385 71.528C83.6764 73.0722 85.8817 76.3951 85.8817 80.0046C85.8817 87.4485 79.3556 89.9496 73.6511 89.9496C69.6868 89.9496 65.9728 89.2177 65.6068 89.1396V82.3209C66.2632 82.4867 69.3893 83.4222 72.6453 83.4222C76.3546 83.4222 78.0593 82.3351 78.0593 80.6559C78.0593 79.1543 76.5836 78.2875 74.7349 77.7048C74.2839 77.5533 73.6062 77.3401 73.1435 77.1885C68.9926 75.8717 65.5312 73.4251 65.5312 68.5201C65.5312 62.978 69.6679 59.2572 76.5388 59.2572C80.1678 59.2572 83.5819 60.1406 83.8039 60.1998V66.5259Z" fill="#888C8E"/>
<path d="M7.40208 27.9464C7.40208 25.9049 5.73986 24.2493 3.70222 24.2493C1.66458 24.2493 0 25.9049 0 27.9464V35.7243C0 37.7778 1.66458 39.4356 3.70222 39.4356C5.73986 39.4356 7.40208 37.7778 7.40208 35.7243V27.9464Z" fill="#888C8E"/>
<path d="M27.7302 17.7374C27.7302 15.6958 26.068 14.0355 24.0303 14.0355C21.9903 14.0355 20.3281 15.6958 20.3281 17.7374V35.7255C20.3281 37.7789 21.9903 39.4345 24.0303 39.4345C26.068 39.4345 27.7302 37.7789 27.7302 35.7255V17.7374Z" fill="#888C8E"/>
<path d="M48.0564 3.7696C48.0564 1.72802 46.3942 0.0701294 44.3565 0.0701294C42.3165 0.0701294 40.6543 1.72802 40.6543 3.7696V43.1162C40.6543 45.1696 42.3165 46.8275 44.3565 46.8275C46.3942 46.8275 48.0564 45.1696 48.0564 43.1162V3.7696Z" fill="#888C8E"/>
<path d="M68.3845 17.7374C68.3845 15.6958 66.7223 14.0355 64.6846 14.0355C62.6446 14.0355 60.9824 15.6958 60.9824 17.7374V35.7255C60.9824 37.7789 62.6446 39.4345 64.6846 39.4345C66.7223 39.4345 68.3845 37.7789 68.3845 35.7255V17.7374Z" fill="#888C8E"/>
<path d="M88.689 27.9464C88.689 25.9049 87.0386 24.2493 85.0104 24.2493C82.9728 24.2493 81.3105 25.9049 81.3105 27.9464V35.7243C81.3105 37.7778 82.9728 39.4356 85.0104 39.4356C87.0386 39.4356 88.689 37.7778 88.689 35.7243V27.9464Z" fill="#888C8E"/>
<path d="M88.699 27.9464C88.699 25.9049 87.0367 24.2493 84.9991 24.2493C82.9615 24.2493 81.2969 25.9049 81.2969 27.9464V35.7243C81.2969 37.7778 82.9615 39.4356 84.9991 39.4356C87.0367 39.4356 88.699 37.7778 88.699 35.7243V27.9464Z" fill="#888C8E"/>
<path d="M109.027 17.7374C109.027 15.6958 107.365 14.0355 105.327 14.0355C103.287 14.0355 101.625 15.6958 101.625 17.7374V35.7255C101.625 37.7789 103.287 39.4345 105.327 39.4345C107.365 39.4345 109.027 37.7789 109.027 35.7255V17.7374Z" fill="#888C8E"/>
<path d="M129.353 3.7696C129.353 1.72802 127.691 0.0701294 125.653 0.0701294C123.613 0.0701294 121.951 1.72802 121.951 3.7696V43.1162C121.951 45.1696 123.613 46.8275 125.653 46.8275C127.691 46.8275 129.353 45.1696 129.353 43.1162V3.7696Z" fill="#888C8E"/>
<path d="M149.681 17.7374C149.681 15.6958 148.019 14.0355 145.982 14.0355C143.942 14.0355 142.279 15.6958 142.279 17.7374V35.7255C142.279 37.7789 143.942 39.4345 145.982 39.4345C148.019 39.4345 149.681 37.7789 149.681 35.7255V17.7374Z" fill="#888C8E"/>
<path d="M169.986 27.9464C169.986 25.9049 168.335 24.2493 166.307 24.2493C164.27 24.2493 162.607 25.9049 162.607 27.9464V35.7243C162.607 37.7778 164.27 39.4356 166.307 39.4356C168.335 39.4356 169.986 37.7778 169.986 35.7243V27.9464Z" fill="#888C8E"/>
<path d="M165.736 85.5194V85.9836H164.418V89.4202H163.877V85.9836H162.553V85.5194H165.736Z" fill="#888C8E"/>
<path d="M166.012 85.5194H166.859L168.023 88.7192H168.042L169.169 85.5194H170V89.4202H169.445V86.2228H169.426L168.245 89.4202H167.733L166.581 86.2228H166.555V89.4202H166.012V85.5194Z" fill="#888C8E"/>
</g>
<defs>
<clipPath id="clip0_269_8763">
<rect width="170" height="90" fill="white"/>
</clipPath>
</defs>
</svg>
