<svg width="114" height="116" viewBox="0 0 114 116" fill="none" xmlns="http://www.w3.org/2000/svg">
<path d="M57.0043 6.61322C43.0638 6.61322 30.4391 12.3669 21.2986 21.6749C12.1546 30.9616 6.50354 43.8149 6.50354 58.0071C6.50354 72.1886 12.1546 85.0331 21.2986 94.3233C30.4391 103.619 43.0638 109.383 57.0043 109.383C70.9483 109.383 83.5801 103.619 92.7066 94.3233C101.847 85.0331 107.486 72.1886 107.486 58.0071C107.486 43.8149 101.847 30.9616 92.7066 21.6749C83.5801 12.3669 70.9483 6.61322 57.0043 6.61322ZM57.0043 0.386665C88.2704 0.386665 113.621 26.1854 113.621 58.0071C113.621 89.8181 88.2704 115.613 57.0043 115.613C25.7418 115.613 0.380859 89.8181 0.380859 58.0071C0.380859 26.1854 25.7418 0.386665 57.0043 0.386665Z" fill="#888C8E"/>
<path d="M30.2259 57.5376C30.2259 54.1799 28.0365 52.2727 24.9369 52.2727H23.0398V62.8061H24.8829C27.765 62.8061 30.2259 61.2123 30.2259 57.5376ZM63.9702 61.3274L49.9949 72.5249L37.2222 62.2925C35.3792 66.7977 30.9255 69.927 25.7966 69.927H14.8652V45.1483H25.7966C31.5277 45.1483 35.6576 48.8566 37.2188 52.8075L49.9949 42.5857L54.7271 46.3755L43.0177 55.7401L45.268 57.5323L56.9739 48.173L61.713 51.9521L50.0054 61.3274L52.2522 63.1231L63.9702 53.7461V45.1483H72.4651V62.6945H80.939V69.9571H63.9702V61.3274ZM91.6998 62.6981H100.17V69.9571H83.1963V45.1483H91.6998V62.6981Z" fill="#888C8E"/>
</svg>
