<svg width="282" height="36" viewBox="0 0 282 36" fill="none" xmlns="http://www.w3.org/2000/svg">
<g clip-path="url(#clip0_216_10436)">
<path d="M270.638 0.96115H268.551V0.115601H273.682V0.96115H271.599V6.82218H270.638V0.96115Z" fill="#888C8E"/>
<path d="M274.65 0.115601H276.239L278.349 5.67852L280.417 0.115601H282V6.82218H281.039V1.02077H281.022L278.804 6.82218H277.852L275.637 1.02077H275.617V6.82218H274.65V0.115601Z" fill="#888C8E"/>
<path d="M51.2738 0H41.7148V35.7958H51.2738V0Z" fill="#888C8E"/>
<path d="M107.76 0.0297852H119.485L133.318 36H122.829L120.152 28.3259H106.679L103.846 36H94.127L107.76 0.0297852ZM113.621 7.45003H113.521L108.889 21.5208H117.889L113.621 7.45003Z" fill="#888C8E"/>
<path d="M137.973 0.0252686H154.486C161.168 0.0252686 166.16 2.9603 166.16 9.14384C166.16 13.686 163.847 16.2136 159.836 17.5487V17.649C164.611 18.6346 167.086 21.2083 167.086 25.5941C167.086 34.1996 159.525 35.9991 153.098 35.9991H137.973V0.0252686ZM147.536 29.2058H150.372C153.868 29.2058 157.518 28.6845 157.518 25.0286C157.518 21.1062 153.764 20.7512 150.476 20.7512H147.535L147.536 29.2058ZM147.536 14.2542H150.214C153.353 14.2542 156.589 13.4809 156.589 10.4375C156.589 7.13746 153.509 6.83574 150.321 6.83574H147.536V14.2542Z" fill="#888C8E"/>
<path d="M180.037 22.4504L166.771 0.0252686H177.775L184.824 14.4574L191.766 0.0252686H202.778L189.604 22.4504V36H180.037V22.4504Z" fill="#888C8E"/>
<path d="M215.556 7.13746H206.715V0.0252686H233.973V7.13746H225.131V36H215.556V7.13746Z" fill="#888C8E"/>
<path d="M238.527 0.0252686H263.833V6.83574H248.09V14.2542H262.954V21.0556H248.09V29.2058H264.395V36H238.527V0.0252686Z" fill="#888C8E"/>
<path d="M19.9923 7.90176C13.6284 8.43204 10.1539 12.6182 10.1539 18.0357C10.1539 23.3032 15.0249 27.7306 19.7291 27.7306L20.7622 27.7198H22.5013C22.5013 27.7198 23.6543 27.7198 23.6624 26.5933V15.2877H33.4855C33.4855 21.669 33.462 36 33.462 36C33.462 36 23.767 35.9919 18.1379 35.9919C7.55211 35.9919 0 27.2293 0 18.0357C0 8.09147 8.21473 -0.214066 18.4435 0.153603L33.1375 0.199675L33.1303 7.90086L19.9923 7.90176Z" fill="#888C8E"/>
<path d="M76.8368 7.90177C70.4702 8.43114 67.002 12.6173 67.002 18.0357C67.002 23.3032 71.8658 27.7306 76.5736 27.7306L77.6031 27.7198H79.3467C79.3467 27.7198 80.4916 27.7198 80.4997 26.5933V15.2877H90.3065C90.3065 21.6691 90.2903 36 90.2903 36C90.2903 36 80.6034 35.9919 74.9778 35.9919C64.3975 35.9919 56.8535 27.2293 56.8535 18.0357C56.8535 8.09148 65.0601 -0.214059 75.2934 0.154514L89.9631 0.200586L89.9595 7.90177H76.8368Z" fill="#888C8E"/>
</g>
<defs>
<clipPath id="clip0_216_10436">
<rect width="282" height="36" fill="white"/>
</clipPath>
</defs>
</svg>
