<svg width="118" height="118" viewBox="0 0 118 118" fill="none" xmlns="http://www.w3.org/2000/svg">
<g clip-path="url(#clip0_269_8787)">
<path fill-rule="evenodd" clip-rule="evenodd" d="M94.6953 40.9551H85.3039L72.1488 77.0553H81.5403L94.6953 40.9551ZM58.9917 118C58.4127 118 57.8274 117.99 57.2442 117.971L69.3037 84.8323H85.8913C88.8093 84.8323 92.0085 82.5954 93.002 79.8587L106.082 43.9293C108.227 38.0434 104.862 33.2364 98.5923 33.2364H75.573L56.259 86.311H56.2528L45.2992 116.394C19.3265 110.223 0 86.863 0 59C0 31.137 18.2247 9.12659 43.0748 2.17647L31.7734 33.2344H31.7672L12.9843 84.8323H25.4895L41.4648 40.9884H50.8624L34.8872 84.8323L47.3841 84.8385L62.27 43.9293C64.4112 38.0434 61.0432 33.2364 54.7885 33.2364H44.2786L56.3444 0.0666478C57.2254 0.0229102 58.1086 0 58.9917 0C91.5857 0 118 26.4155 118 59C118 91.5845 91.5857 118 58.9917 118Z" fill="#888C8E"/>
</g>
<defs>
<clipPath id="clip0_269_8787">
<rect width="118" height="118" fill="white"/>
</clipPath>
</defs>
</svg>
