<svg width="276" height="50" viewBox="0 0 276 50" fill="none" xmlns="http://www.w3.org/2000/svg">
<g clip-path="url(#clip0_269_8792)">
<path fill-rule="evenodd" clip-rule="evenodd" d="M142.657 8.78783V27.3849C142.657 32.6749 140.058 35.4673 135.348 35.4673C130.637 35.4673 128.006 32.5766 128.006 27.1536V8.82059H121.509V27.3849C121.509 36.5196 126.512 41.7441 135.283 41.7441C144.053 41.7441 149.189 36.4213 149.189 27.09V8.75507L142.659 8.78783H142.657ZM166.6 8.78783L152.468 41.2527H159.127L161.856 34.9759L162.05 34.5153H176.735L179.627 41.2835H186.449L172.446 9.01716L172.316 8.82059L166.598 8.78783H166.6ZM205.326 8.78783L198.049 31.1312L190.967 8.82059H184.014L195.189 41.2854H200.581L207.89 19.9595L215.2 41.2854H220.624L231.767 8.82059H225.01L217.896 31.1312L210.619 8.78783H205.324H205.326ZM269.065 8.78783V41.2199H275.498V8.78783H269.065ZM84.7305 8.78783V41.2527H91.2279V28.0767H105.945V41.2527H112.475V8.78783H105.945V21.8983H91.2279V8.78783H84.7305ZM237.032 8.82059V41.2527H261.267V35.3382H243.462V27.2885H255.32V21.3741H243.462V14.7369H260.682V8.82252H237.032V8.82059ZM169.359 17.0033L174.005 27.8801H173.972L174.298 28.6356H164.455L164.78 27.8801L169.361 17.0033H169.359Z" fill="#888C8E"/>
<path fill-rule="evenodd" clip-rule="evenodd" d="M28.5069 -0.000392182C27.6266 0.076694 25.2677 0.624006 25.2677 0.624006C19.9344 2.01734 18.6673 6.92194 18.6673 6.92194C18.4025 7.74676 18.292 8.59471 18.2481 9.38485V10.466C18.3148 12.1368 18.6883 13.3856 18.6883 13.3856C20.4737 21.3891 29.2347 34.5284 31.1192 37.2823C31.2506 37.4153 31.3612 37.371 31.3612 37.371C31.5593 37.3151 31.5479 37.1147 31.5479 37.1147C34.4575 7.77952 28.5069 -0.000392182 28.5069 -0.000392182ZM38.0949 -0.000392182C38.0949 -0.000392182 32.1214 7.77953 35.0195 37.1378C35.0424 37.3266 35.1739 37.3613 35.1739 37.3613C35.372 37.4403 35.4711 37.2496 35.4711 37.2496C37.3994 34.4186 46.1166 21.3563 47.8906 13.3856C47.8906 13.3856 48.849 9.52938 47.923 6.92002C47.923 6.92002 46.6006 1.94989 41.256 0.633641C41.2674 0.633641 39.7354 0.232793 38.093 -0.00231934L38.0949 -0.000392182ZM10.5446 8.81634C10.5446 8.81634 5.45332 13.6978 5.21133 18.8703V19.6508C5.21133 19.7067 5.22277 19.7741 5.22277 19.83C5.44379 23.9985 8.55152 26.4729 8.55152 26.4729C13.5437 31.4103 25.6545 37.6292 28.4649 39.0457C28.5088 39.0572 28.6517 39.1131 28.7412 39.0013C28.7412 39.0013 28.7851 38.9686 28.8079 38.9011V38.7682C28.8079 38.7566 28.7965 38.7566 28.7965 38.745C21.091 21.7225 10.5446 8.80477 10.5446 8.81634ZM56.0457 8.81634C56.0457 8.81634 45.5336 21.6897 37.83 38.6872C37.83 38.6872 37.7424 38.8876 37.8853 39.011C37.8853 39.011 37.9291 39.0437 37.9844 39.0553H38.0949C38.1177 39.0437 38.1387 39.0437 38.1501 39.0322C41.0368 37.583 53.06 31.3968 58.0407 26.4941C58.0407 26.4941 61.1922 23.931 61.358 19.8185C61.7334 14.1006 56.0457 8.8067 56.0457 8.81826V8.81634ZM65.5118 25.7136C65.5118 25.7136 48.3765 35.0198 39.5163 41.0615C39.5163 41.0615 39.3505 41.1732 39.4172 41.3621C39.4172 41.3621 39.5049 41.5182 39.6268 41.5182C42.8012 41.5298 54.8129 41.5413 55.1102 41.4854C55.1102 41.4854 56.6631 41.418 58.5818 40.6722C58.5818 40.6722 62.8576 39.302 65.0736 34.3974C65.0736 34.3974 66.0872 32.3469 66.0987 29.46V29.3367C66.0872 28.2324 65.9329 26.9952 65.5137 25.7136H65.5118ZM1.0766 25.7579C-0.487743 30.6394 1.61583 34.5747 1.61583 34.5862C3.80895 39.2557 7.97418 40.6837 7.97418 40.6837C9.90245 41.4874 11.8307 41.5413 11.8307 41.5413C12.128 41.5972 23.8196 41.5529 26.9501 41.5298C27.0816 41.5298 27.1597 41.3968 27.1597 41.3968C27.1712 41.3852 27.1826 41.364 27.1826 41.3525V41.2291C27.1597 41.1501 27.0835 41.0846 27.0835 41.0846C18.2367 35.043 1.0785 25.7579 1.0785 25.7579H1.0766ZM26.5995 43.0233L6.4327 43.7364C8.61439 47.6812 12.3071 50.7473 16.1408 49.7992C18.7855 49.1305 24.7799 44.8946 26.7634 43.4685L26.752 43.4569C26.9063 43.3124 26.8511 43.2006 26.8511 43.2006C26.8072 43.0329 26.5976 43.0329 26.5976 43.0214L26.5995 43.0233ZM39.9565 43.0349C39.9565 43.0464 39.7812 43.0676 39.7259 43.2025C39.7259 43.2025 39.6821 43.3798 39.804 43.482C41.7323 44.8869 47.5838 49.0206 50.4057 49.8242C50.4057 49.8242 50.8363 49.9688 51.5509 50.0035H51.9815C53.8659 49.936 57.1604 48.9551 60.1481 43.7614L39.9584 43.0368L39.9565 43.0349Z" fill="#888C8E"/>
</g>
<defs>
<clipPath id="clip0_269_8792">
<rect width="275" height="50" fill="white" transform="translate(0.5)"/>
</clipPath>
</defs>
</svg>
