<svg width="166" height="64" viewBox="0 0 166 64" fill="none" xmlns="http://www.w3.org/2000/svg">
<g clip-path="url(#clip0_216_10462)">
<path d="M12.016 0.892456H0V12.834H12.016V0.892456Z" fill="#888C8E"/>
<path d="M11.7163 63.1076V20.1009H0.341797V63.1076H11.7163ZM87.3186 63.5325V52.9934C85.6509 52.9934 84.2398 52.9084 83.2135 52.7384C82.0162 52.5684 81.1182 52.1434 80.5195 51.5485C79.9209 50.9535 79.536 50.1036 79.3222 48.9987C79.1512 47.9363 79.0657 46.5339 79.0657 44.834V29.7902H87.3186V20.1009H79.0657V3.31474H67.6483V44.919C67.6483 48.4462 67.9477 51.421 68.5463 53.8008C69.145 56.1381 70.1713 58.0505 71.5824 59.4953C72.9935 60.9402 74.875 61.9602 77.1414 62.5976C79.4505 63.2351 82.3583 63.5325 85.822 63.5325H87.3186ZM152.658 63.1076V0H141.241V63.1076H152.658ZM56.6586 24.3081C53.4943 20.9084 49.0471 19.2085 43.4026 19.2085C40.6659 19.2085 38.1857 19.761 35.9193 20.8659C33.6957 21.9708 31.7715 23.5007 30.2748 25.4555L29.6334 26.2629V25.5405V20.1009H18.3871V63.1076H29.7189V40.2019V41.7742C29.7189 41.5193 29.7189 41.2643 29.7189 41.0093C29.8472 36.9721 30.8307 33.9973 32.7122 32.085C34.722 30.0452 37.1594 29.0252 39.9389 29.0252C43.2315 29.0252 45.7545 30.0452 47.4222 32C49.0471 33.9548 49.9023 36.7171 49.9023 40.2444V40.3293V63.0651H61.4052V38.672C61.4479 32.5525 59.823 27.7078 56.6586 24.3081ZM135.34 41.5193C135.34 38.417 134.784 35.5272 133.715 32.8074C132.603 30.1301 131.064 27.7503 129.139 25.7105C127.172 23.6707 124.82 22.0983 122.084 20.9509C119.347 19.8035 116.311 19.251 113.018 19.251C109.897 19.251 106.946 19.8459 104.209 20.9934C101.473 22.1833 99.078 23.7556 97.0682 25.753C95.0584 27.7503 93.4335 30.1301 92.2789 32.8499C91.0816 35.5697 90.5257 38.502 90.5257 41.6042C90.5257 44.7065 91.0816 47.6388 92.1934 50.3586C93.3052 53.0784 94.8874 55.4582 96.8544 57.4555C98.8214 59.4529 101.259 61.0677 104.081 62.2151C106.903 63.405 110.025 64 113.36 64C123.024 64 129.011 59.6228 132.603 55.5432L124.393 49.3386C122.682 51.3785 118.577 54.1408 113.446 54.1408C110.239 54.1408 107.588 53.4183 105.578 51.9309C103.568 50.4861 102.2 48.4462 101.473 45.9389L101.344 45.5564H135.34V41.5193ZM101.43 37.5671C101.43 34.4223 105.065 28.9402 112.89 28.8977C120.715 28.8977 124.393 34.3798 124.393 37.5246L101.43 37.5671Z" fill="#888C8E"/>
<path d="M165.658 57.498C165.444 56.988 165.145 56.5631 164.76 56.1806C164.375 55.7981 163.948 55.5006 163.435 55.2882C162.922 55.0757 162.366 54.9482 161.81 54.9482C161.211 54.9482 160.698 55.0757 160.185 55.2882C159.672 55.5006 159.244 55.7981 158.859 56.1806C158.474 56.5631 158.175 56.988 157.961 57.498C157.747 58.0079 157.619 58.5604 157.619 59.1129C157.619 59.7078 157.747 60.2178 157.961 60.7277C158.175 61.2377 158.474 61.6627 158.859 62.0451C159.244 62.4276 159.672 62.7251 160.185 62.9376C160.698 63.15 161.254 63.2775 161.81 63.2775C162.408 63.2775 162.922 63.15 163.435 62.9376C163.948 62.7251 164.375 62.4276 164.76 62.0451C165.145 61.6627 165.444 61.2377 165.658 60.7277C165.872 60.2178 166 59.6653 166 59.1129C166 58.5604 165.872 58.0079 165.658 57.498ZM164.974 60.4727C164.803 60.8977 164.546 61.2802 164.247 61.5777C163.948 61.8751 163.563 62.1301 163.135 62.3001C162.708 62.4701 162.28 62.5551 161.767 62.5551C161.297 62.5551 160.826 62.4701 160.399 62.3001C159.971 62.1301 159.586 61.8751 159.287 61.5777C158.988 61.2802 158.731 60.8977 158.56 60.4727C158.389 60.0478 158.303 59.6228 158.303 59.1129C158.303 58.6454 158.389 58.1779 158.56 57.753C158.731 57.328 158.988 56.9455 159.287 56.648C159.586 56.3506 159.971 56.0956 160.399 55.9256C160.826 55.7556 161.254 55.6706 161.767 55.6706C162.237 55.6706 162.708 55.7556 163.135 55.9256C163.563 56.0956 163.948 56.3506 164.247 56.648C164.546 56.9455 164.803 57.328 164.974 57.753C165.145 58.1779 165.231 58.6029 165.231 59.1129C165.273 59.6228 165.145 60.0478 164.974 60.4727ZM162.579 59.4528C162.922 59.4103 163.178 59.2828 163.392 59.0704C163.606 58.8579 163.734 58.5604 163.734 58.1354C163.734 57.668 163.606 57.328 163.306 57.073C163.05 56.818 162.579 56.6905 162.024 56.6905H160.142V61.4927H161.04V59.5378H161.681L162.879 61.4927H163.82L162.579 59.4528ZM162.109 58.7729C161.981 58.7729 161.853 58.7729 161.681 58.7729H161.04V57.413H161.681C161.81 57.413 161.938 57.413 162.109 57.413C162.237 57.413 162.366 57.4555 162.494 57.498C162.622 57.5405 162.708 57.6255 162.751 57.7105C162.793 57.7955 162.836 57.9229 162.836 58.0929C162.836 58.2629 162.793 58.3904 162.751 58.4754C162.665 58.5604 162.579 58.6454 162.494 58.6879C162.366 58.7304 162.237 58.7729 162.109 58.7729Z" fill="#888C8E"/>
</g>
<defs>
<clipPath id="clip0_216_10462">
<rect width="166" height="64" fill="white"/>
</clipPath>
</defs>
</svg>
