<svg width="258" height="42" viewBox="0 0 258 42" fill="none" xmlns="http://www.w3.org/2000/svg">
<g clip-path="url(#clip0_269_8740)">
<path fill-rule="evenodd" clip-rule="evenodd" d="M12.3297 0H28.9263C24.9837 13.5222 21.0399 27.0445 17.0978 40.5673H0.5L12.3297 0ZM23.7911 31.3273L24.1635 32.1248C24.1446 35.5542 25.9602 41.3863 41.9019 41.5357C41.9019 41.5357 56.0274 41.0556 60.1394 38.7905L63.2068 31.3297L63.2625 31.1943C63.2625 31.1943 63.1825 31.2381 63.0298 31.3221L63.2068 31.3303H63.0298C61.3243 32.2373 50.5682 37.7399 41.8533 35.7006C41.8533 35.7006 39.2898 35.2753 39.2898 32.977L39.4385 32.165L43.0347 31.3297L68.6838 25.3762C68.6838 25.3762 74.927 11.9607 51.1035 12.2838C27.2819 12.607 24.1629 27.4756 23.8331 30.5486C23.8094 30.7819 23.7934 31.0427 23.7911 31.3273ZM87.3968 31.3297L91.6065 17.5467C91.6065 17.5467 101.686 16.1233 100.366 21.2421L97.3848 31.3297L94.6538 40.5673H111.381L114.18 31.3297L117.298 21.0426C117.298 21.0426 119.329 15.4227 112.195 14.0251C112.195 14.0251 104.452 11.9274 93.7401 12.5259C83.029 13.125 75.3871 14.5244 75.3871 14.5244L70.3252 31.3297L67.5432 40.5673H84.5763L87.3968 31.3297ZM117.442 31.3297C117.431 29.4513 118.008 28.0601 118.008 28.0601C118.008 28.0601 119.657 13.3257 144.129 12.4268C168.599 11.5284 166.061 24.3635 166.061 24.3635C166.061 24.3635 165.833 27.6412 163.169 31.3262C159.92 35.8225 153.04 40.9243 138.518 41.4167C120.351 42.035 117.47 35.4906 117.442 31.3297ZM146.801 31.3297C148.536 28.0653 148.825 24.3635 148.825 24.3635C149.23 21.9648 149.941 17.5467 144.129 17.4452C138.315 17.3466 136.995 23.0638 136.995 23.0638L135.346 27.8612C134.995 29.2332 134.846 30.3788 134.846 31.3384C134.851 36.5382 139.229 36.1993 139.229 36.1993C143.084 36.2862 145.408 33.9512 146.801 31.3297ZM169.798 31.3297L167.583 13.3257H182.966L185.208 31.3297L185.327 32.2787L185.995 31.3297L198.68 13.3257H214.696L202.232 31.3297L195.836 40.5673H170.935L169.798 31.3297ZM208.75 31.3297C208.738 29.4513 209.315 28.0601 209.315 28.0601C209.315 28.0601 210.964 13.3257 235.434 12.4268C259.904 11.5284 257.366 24.3635 257.366 24.3635C257.366 24.3635 257.141 27.6412 254.476 31.3262C251.225 35.8225 244.347 40.9243 229.823 41.4167C211.656 42.035 208.776 35.4906 208.75 31.3297ZM238.106 31.3297C239.843 28.0653 240.13 24.3635 240.13 24.3635C240.537 21.9648 241.249 17.5467 235.434 17.4452C229.621 17.3466 228.301 23.0638 228.301 23.0638L226.652 27.8612C226.3 29.2332 226.152 30.3788 226.154 31.3384C226.156 36.5382 230.534 36.1993 230.534 36.1993C234.39 36.2862 236.713 33.9512 238.106 31.3297ZM39.7979 30.1811L55.2067 22.5406C55.2067 22.5406 56.7285 16.6221 49.6971 16.7224C42.6664 16.8216 41.6259 22.9635 41.6259 22.9635L39.7979 30.1811Z" fill="#888C8E"/>
</g>
<defs>
<clipPath id="clip0_269_8740">
<rect width="257" height="42" fill="white" transform="translate(0.5)"/>
</clipPath>
</defs>
</svg>
