<svg width="218" height="72" viewBox="0 0 218 72" fill="none" xmlns="http://www.w3.org/2000/svg">
<g clip-path="url(#clip0_216_10426)">
<path fill-rule="evenodd" clip-rule="evenodd" d="M203.877 54.6197L214.172 25.8877C214.172 25.8877 206.481 25.8877 198.789 27.45L189.061 54.6197H203.877ZM202.117 18.1249L200.14 23.6419C207.879 22.0796 215.522 22.0796 215.522 22.0796L217.5 16.5626C217.5 16.5626 209.808 16.5626 202.117 18.1249Z" fill="#888C8E"/>
<path fill-rule="evenodd" clip-rule="evenodd" d="M148.47 47.7968C153.1 48.6512 157.874 49.1028 162.732 49.1028C165.939 49.1028 171.279 48.7244 171.749 44.5379C171.942 42.9023 170.182 41.7794 167.385 40.2171C164.179 38.4229 161.719 37.483 158.934 35.5912C156.15 33.7115 154.956 30.7455 155.896 27.5965C158.705 18.1738 172.292 16.5626 180.333 16.5626C185.854 16.5626 191.255 17.0997 196.487 18.1249L194.607 23.3733C189.772 22.4823 172.135 19.4554 171.315 26.6445C171.135 28.28 172.762 29.3419 175.571 30.9042C178.766 32.6862 181.346 33.6993 184.131 35.579C186.915 37.4708 188.109 40.4246 187.181 43.5736C184.36 52.9841 170.785 54.6075 162.744 54.6075C157.331 54.6075 151.918 54.0826 146.602 53.0452L148.482 47.7968H148.47Z" fill="#888C8E"/>
<path fill-rule="evenodd" clip-rule="evenodd" d="M126.118 54.6197L134.702 30.6479C138.077 21.2252 122.079 24.9845 118.27 35.5912L111.458 54.6197H96.6422L105.226 30.6479C108.601 21.2252 92.5915 24.9845 88.794 35.5912L81.9826 54.6197H67.1543L80.7771 16.5626C85.5028 16.5626 88.0466 17.6611 90.1925 19.7971C90.9761 20.5783 91.4704 21.5913 91.7356 22.6654C94.5204 20.9566 96.9797 19.6873 98.6313 19.0282C101.718 17.8076 105.539 16.5504 110.265 16.5504C114.979 16.5504 117.534 17.6489 119.68 19.7849C120.464 20.5661 120.958 21.5791 121.223 22.6532C124.008 20.9444 126.468 19.675 128.119 19.0159C131.205 17.7954 135.027 16.5382 139.753 16.5382C144.479 16.5382 147.022 17.6367 149.168 19.7727C151.314 21.8965 151.266 25.7901 150.482 27.9504L140.946 54.5953H126.13L126.118 54.6197Z" fill="#888C8E"/>
<path fill-rule="evenodd" clip-rule="evenodd" d="M1.34379 12.1197C9.63801 6.88353 19.7888 2.15996 29.4815 0.548822L29.7708 0.5L30.0481 0.548822C39.7407 2.15996 49.8915 6.88353 58.1737 12.1319L59.0176 12.669V13.6698C59.0899 26.3637 57.0646 39.8997 51.3141 51.2997C46.8173 60.222 39.8854 67.9482 30.3495 71.2925L29.7708 71.5L29.1801 71.2925C19.6321 67.9482 12.7122 60.222 8.21545 51.2997C2.46495 39.8875 0.427566 26.3515 0.499899 13.6576V12.6568L1.34379 12.1197Z" fill="#888C8E"/>
<path fill-rule="evenodd" clip-rule="evenodd" d="M2.30852 13.6698C10.9765 8.1895 20.9223 3.8199 29.759 2.35522C38.5957 3.8199 48.5416 8.1895 57.2216 13.682C57.3783 43.0365 46.1907 63.8104 29.759 69.5715C13.3394 63.7982 2.13974 43.0243 2.30852 13.6698Z" fill="#888C8E"/>
<path fill-rule="evenodd" clip-rule="evenodd" d="M37.7875 25.0577C34.1708 29.293 28.4324 29.9033 24.454 30.0742C24.008 30.123 23.1038 30.1718 22.8747 30.5014C22.7421 30.7089 22.8747 31.0018 23.0556 31.1605C27.5402 34.3706 33.3872 32.0271 36.4614 30.4892C32.917 33.7115 26.9254 34.2851 21.8259 32.3933C21.1749 32.1736 20.753 32.1003 20.548 32.3322C20.4034 32.4909 20.331 32.796 20.5239 33.15C21.9585 35.8596 22.9953 37.9468 26.6361 39.1185C22.4046 38.8622 19.7524 34.7978 19.1255 32.613C19.0652 36.2624 22.1996 38.7646 23.4896 40.2171C21.8018 40.2781 20.1622 40.4123 19.4389 41.6939C18.9326 42.4995 18.9446 43.6712 18.2454 44.7331C16.2924 41.0226 14.7252 35.8474 16.196 31.3192C17.3051 27.9016 19.2581 24.7037 23.8633 22.702C22.6457 24.1179 21.7174 25.2042 20.7047 26.7665C19.9211 28.2556 20.8856 28.7804 21.9706 26.8763C23.4896 30.5868 34.3878 28.3654 37.257 24.8258L38.2938 24.3864L37.7754 25.0577H37.7875ZM30.8917 57.195C31.0002 57.012 31.2895 56.9021 31.5427 56.9876C32.0129 57.1462 32.2057 57.6711 31.9285 58.0128C31.5909 58.4766 31.0364 58.8062 30.6747 59.2578C30.5059 59.4531 30.4336 59.685 30.3371 59.9047C30.2286 58.9893 30.2286 57.9884 30.9037 57.195H30.8917ZM25.8042 55.5839C26.0574 55.3764 26.5517 55.3642 26.7807 55.5839C27.0098 55.8768 27.0942 56.2674 26.9495 56.597C26.7084 56.9021 26.3106 57.1096 25.973 57.3415C25.4305 57.6955 24.8639 58.0983 24.6349 58.6475C24.6349 57.9762 24.7434 57.2927 25.0206 56.6458C25.1894 56.2552 25.4185 55.8646 25.7922 55.5717L25.8042 55.5839ZM37.9201 54.9492C38.0889 54.8638 38.2938 54.9126 38.4385 55.0102C38.6314 55.1323 38.7037 55.3154 38.7399 55.4985C38.8242 55.9379 38.8242 56.3895 38.993 56.8045C39.0654 56.9876 39.1739 57.1462 39.2582 57.3171C38.8363 57.1706 38.5108 56.9021 38.2335 56.6214C37.9321 56.304 37.6669 55.9623 37.5946 55.5717C37.5464 55.3398 37.6428 55.0713 37.908 54.9492H37.9201ZM22.055 52.4959C22.3322 52.3616 22.6939 52.4959 22.8747 52.679C23.1038 52.9109 23.0074 53.2282 22.9832 53.4967C22.9832 53.6798 22.8024 53.8263 22.6095 53.9239C22.0911 54.1681 21.5004 54.4 20.982 54.6563C20.6324 54.8272 20.3551 55.0713 20.1502 55.352C20.2105 54.876 20.4034 54.4244 20.6204 53.985C20.8976 53.4113 21.3799 52.8254 22.055 52.4959ZM43.5982 48.8708C43.55 48.6389 43.767 48.4558 43.9961 48.346C44.4301 48.346 44.7676 48.5779 45.1293 48.7366C45.3342 48.8342 45.5754 48.8586 45.8044 48.883C45.3945 49.1516 44.8761 49.3224 44.3457 49.3224C44.0202 49.3224 43.6465 49.1516 43.5982 48.8708ZM18.8964 46.9057C19.0411 46.8203 19.234 46.8813 19.3786 46.9057C19.7524 47.0156 19.9573 47.3329 19.9332 47.6381C19.9091 47.9676 19.9573 48.3704 19.5715 48.5779C18.8844 48.9807 18.0284 49.2126 17.4015 49.7008C17.1725 49.8595 17.0037 50.0548 16.859 50.2623C16.9555 49.3468 17.3292 48.4436 17.932 47.6625C18.161 47.3451 18.5347 47.1132 18.8844 46.9057H18.8964ZM27.8416 43.3539C28.3359 43.1586 28.8905 43.0488 29.445 43.0121C28.9869 43.1708 28.4685 43.3417 28.2154 43.7079C28.1069 43.8665 28.0104 44.0862 28.1912 44.2327C28.3962 44.3425 28.6614 44.3059 28.8784 44.3914C29.0834 44.5256 29.011 44.7697 28.9869 44.9406C28.8302 45.5265 28.5409 46.0757 28.1792 46.6006C28.1069 46.7226 28.0225 46.8569 28.0466 46.9912C28.2154 47.0156 28.3239 46.8813 28.4444 46.8203C28.9266 46.4785 29.433 46.149 29.7946 45.7218C29.9514 45.5265 30.1925 45.3434 30.2166 45.0993C30.2527 44.904 29.9031 44.843 29.879 44.6599C30.0237 44.367 30.4095 44.1839 30.747 44.0374C31.5186 43.7323 32.6397 43.8055 33.122 44.428C32.7362 44.3181 32.3745 44.135 31.9526 44.1106C31.7356 44.1106 31.4945 44.1961 31.4583 44.367C31.4101 44.5989 31.4342 44.8308 31.386 45.0505C31.2413 45.856 30.6024 46.5884 29.7464 47.04C29.4571 47.1865 29.0834 47.2597 28.8664 47.4794C28.7096 47.6381 28.577 47.8211 28.5891 48.0286C28.7699 48.1141 28.999 48.0897 29.2039 48.1141C29.662 48.1629 30.1563 48.1873 30.5782 48.0164C30.9881 47.8578 31.1449 47.4672 31.5547 47.3329C32.6277 46.9301 34.002 47.4184 34.4722 48.2483C34.1346 48.0897 33.8574 47.8578 33.4957 47.7235C33.134 47.5892 32.6759 47.6503 32.3745 47.87C32.049 48.1019 31.8441 48.407 31.6512 48.7122C31.5789 48.822 31.5065 48.9441 31.3377 48.9685C31.0605 48.9685 30.7952 48.7854 30.5059 48.8586C30.1081 48.9685 29.7464 49.1638 29.3486 49.2614C29.0713 49.3224 28.782 49.3224 28.5047 49.2614C28.0225 49.1638 27.5282 49.0417 27.0219 49.0173C26.7928 49.0173 26.5155 49.0417 26.3829 49.2004C26.19 49.4323 26.2141 49.713 26.178 49.9815C26.0212 49.3346 25.7801 48.6877 25.744 48.0286C25.6957 47.1987 25.4908 46.3809 25.6596 45.5509C25.9369 45.8805 25.9489 46.2832 26.0212 46.6738C26.0454 46.8447 26.1539 47.0766 26.407 47.101C26.7566 47.101 26.9495 46.8325 27.1304 46.6372C27.4197 46.2344 27.6849 45.7706 27.6246 45.2946C27.6246 45.0749 27.2871 45.0749 27.1665 44.9162C26.9375 44.6599 26.9375 44.3181 27.046 44.0374C27.1665 43.7323 27.492 43.5004 27.8416 43.3539ZM46.4554 42.2798C46.4675 42.1089 46.7086 42.0601 46.8894 42.0723C47.227 42.0723 47.5525 42.0967 47.89 42.0723C47.6489 42.3408 47.3114 42.5727 46.9015 42.646C46.6362 42.6948 46.3951 42.4995 46.4554 42.292V42.2798ZM46.6965 38.0933C46.9497 37.9956 47.2029 37.898 47.4199 37.7637C47.3355 38.0445 47.1546 38.3374 46.8171 38.4839C46.5519 38.5449 46.4675 38.1665 46.7086 38.0933H46.6965ZM34.7374 33.7603C35.075 35.0419 35.5331 36.238 37.0159 36.714C38.4023 37.1534 40.4156 36.8483 41.9346 36.714C43.2004 36.6652 44.3698 36.4333 45.3101 37.0924C45.7803 37.422 45.9732 37.8248 46.2022 38.2764C46.4192 38.728 46.6362 39.1674 46.793 39.6312C46.9376 40.034 46.8532 40.5466 46.6242 40.9128C46.2625 41.4864 46.0335 41.9625 45.9732 42.5971C45.9129 43.1708 45.7924 43.7445 45.6839 44.3181C45.5754 44.8674 45.4307 45.5265 45.1534 46.0391C44.8761 46.5396 44.3819 46.9179 44.0564 47.3939C43.5018 48.1751 43.2004 49.0173 42.9111 49.8717C42.682 50.543 42.5976 51.2265 42.4047 51.91C42.2601 52.4837 41.9105 53.0451 41.2836 53.3869C40.3553 53.8873 39.198 54.0094 38.2094 54.4C37.2932 54.7661 36.6784 55.352 35.955 55.9013C35.3884 56.3407 34.8941 56.8411 34.0744 56.9631C32.5554 57.195 32.1696 55.9745 29.4209 56.9509C29.0954 57.073 28.6735 57.0974 28.3841 56.9021C27.7331 56.5848 27.6608 55.6693 26.9254 55.2788C26.19 54.9248 25.31 54.9126 24.4902 54.7539C24.1285 54.6929 23.7789 54.4732 23.6342 54.1925C23.4052 53.7042 23.3931 53.1794 23.1882 52.6912C22.6577 51.5927 20.9097 51.2387 20.4154 50.2379C19.9091 49.1882 20.5962 48.6389 20.5962 47.7845C20.548 46.6616 19.7885 46.0879 18.3177 46.0391C19.1375 44.8308 19.4269 43.8665 19.7162 42.5727C19.9091 42.1211 20.0176 41.6085 20.4998 41.3033C20.9217 41.0348 21.5969 40.8884 22.1032 40.7663C22.6457 40.632 23.4534 40.6198 23.9718 40.8517C25.3702 41.6329 25.0447 43.6712 24.3094 44.5012C23.3087 45.6485 20.7891 45.4166 21.2231 43.6224C21.7415 44.0618 22.2479 44.7453 22.9712 43.9398C23.0194 43.8665 23.0797 43.7567 23.0556 43.659C22.9471 43.3173 22.7421 43.0976 22.3443 42.9267C22.1514 42.8413 21.9103 42.7924 21.6933 42.8657C20.97 43.0854 20.4877 43.537 20.2105 44.0984C19.6439 45.2214 20.8735 46.1246 22.284 45.9049C23.5981 45.6363 24.2009 45.0993 25.0568 44.3914C25.0327 45.8316 24.9845 46.8691 25.1774 48.3826C25.3944 49.4811 25.6114 50.5674 26.178 51.5927C26.6361 52.4349 27.3956 53.216 28.4324 53.6188C29.5294 54.0704 30.735 54.0704 31.9285 54.0704C33.9779 54.0704 36.9797 53.1794 38.6314 52.3128C41.2715 50.897 41.6573 49.7618 42.9472 47.5526C43.5139 46.5151 44.0564 45.2336 44.4542 44.135C44.8641 42.9999 45.1775 41.8404 45.1655 40.6565C45.1655 39.68 44.9002 39.0941 44.5265 38.6303C43.3692 37.1534 40.8978 37.7759 38.6193 37.7149C38.4385 38.0811 38.3059 38.4839 38.6072 38.8378C39.1618 39.4481 40.5241 39.3505 41.4282 39.4237C37.5343 41.0348 34.0382 39.2772 33.0737 36.177C33.8815 37.2023 35.1955 39.3016 37.1847 38.6791C37.908 38.4594 37.5825 37.9346 37.3414 37.544C37.2811 37.4098 37.028 37.3976 36.8833 37.3487C35.1232 36.8239 34.4722 35.2372 34.7736 33.7481L34.7374 33.7603ZM22.2358 33.1012C22.5251 33.3331 22.6216 33.6504 22.923 33.8823C25.6837 36.0061 28.1189 35.9939 31.6271 36.116C28.5047 36.8849 24.5384 36.4089 22.3202 34.2851C22.0067 33.9922 21.7897 33.7237 21.6089 33.3697C21.4522 32.8815 21.8862 32.8205 22.2358 33.1012ZM35.2799 32.5153C38.1009 32.3566 40.9822 33.4429 41.8864 36.2136C41.5126 35.7986 39.9816 35.4325 39.4029 35.5789C39.2462 35.6155 39.1015 35.701 39.0654 35.8352C39.0051 36.0794 39.1497 36.2746 39.2462 36.5065C37.7031 36.6896 36.5819 36.1648 35.8827 35.1639C36.2323 35.3104 36.5699 35.5423 36.9677 35.6155C37.7272 35.762 38.4867 35.4325 38.9207 34.9564C39.198 34.6513 39.0171 34.2729 38.6916 34.0288C37.5102 33.1378 36.5096 33.0402 35.2679 32.5275L35.2799 32.5153ZM38.1612 27.3645C38.5229 27.0838 38.8484 26.7787 39.1859 26.4857C37.6066 28.9147 33.773 30.8431 30.7591 31.3802C29.2401 31.6853 25.9007 32.0881 24.5022 31.307C24.3455 31.2215 24.1888 31.0384 24.3335 30.9042C24.5625 30.7333 24.9362 30.7699 25.2135 30.7699C25.8042 30.8309 26.4311 30.7577 27.0339 30.7577C28.5167 30.7943 30.2045 30.538 31.6512 30.3061C34.0623 29.7691 36.3529 28.7926 38.1491 27.3645H38.1612ZM9.6498 18.5399C10.0838 18.4422 10.566 18.5155 10.9518 18.6864C11.434 18.9061 11.7113 19.3088 11.9645 19.6872C12.073 19.8703 12.2056 20.09 12.1212 20.2975C11.9886 20.3341 11.8439 20.3463 11.7113 20.3829C11.5907 20.4928 11.639 20.6515 11.639 20.7857C11.7234 21.4937 12.0127 22.0917 12.3261 22.7508C12.3623 22.8485 12.4587 22.9217 12.5431 22.9827C12.6637 22.2382 12.4708 21.4937 12.7722 20.7735C12.8204 20.6637 12.8807 20.5294 13.0495 20.505C13.3026 20.505 13.5076 20.7247 13.7607 20.6759C13.9777 20.5782 13.9416 20.3341 13.9295 20.1632C13.8572 19.7238 13.4232 19.4065 13.1339 19.0403C13.7728 19.4431 14.3756 19.9435 14.6408 20.566C14.7975 20.9322 14.7493 21.396 14.3756 21.6645C14.2068 21.7988 13.9657 21.7622 13.7607 21.7378C13.3026 22.1894 13.3629 22.7874 13.4714 23.3245C13.5076 23.4588 13.5437 23.6907 13.7728 23.6785C14.255 23.5686 14.5805 23.2391 14.9904 23.0316C14.0501 24.2155 13.2544 24.8624 12.6275 26.3027C12.6275 25.9975 12.6999 25.6924 12.6275 25.3872C12.5793 25.2164 12.3985 25.0943 12.2176 25.0089C11.7475 24.777 11.217 24.6549 10.7348 24.4352C10.2405 24.1911 9.9753 23.7517 9.67391 23.3733C9.48102 23.1292 9.09524 23.2635 8.86619 23.0682C8.75769 22.8363 8.81797 22.5922 8.75769 22.348C8.68535 21.9819 8.66124 21.4814 8.26341 21.2373C7.85352 20.981 7.29897 20.9932 6.80469 20.9932C7.16635 20.8468 7.57624 20.7003 7.98613 20.7613C8.6733 20.859 9.16758 21.1885 9.5413 21.6401C9.79447 21.9331 9.74624 22.3358 9.99941 22.6288C10.1802 22.8485 10.4575 22.9949 10.7227 23.1414C11.0121 23.3001 11.2773 23.4954 11.6269 23.5564C11.7113 23.2024 11.6631 22.8119 11.3858 22.5189C10.9156 22.0063 10.7589 21.4448 10.6504 20.8345C10.5781 20.4318 10.6504 20.0168 10.8554 19.6384C10.9518 19.4431 11.1326 19.2234 10.9759 19.0159C10.6986 18.6864 10.132 18.6497 9.69802 18.5277L9.6498 18.5399ZM27.0942 11.7414C28.348 12.5714 29.9996 13.5966 31.386 14.2923C31.0846 14.5365 30.7229 14.9148 30.3251 14.9026C29.433 14.5731 27.5161 12.5225 27.1062 11.7292L27.0942 11.7414ZM28.9387 8.94629H28.9628C30.8194 11.302 32.8085 13.145 35.5934 14.4754C36.3408 14.8538 37.0521 15.1345 37.9683 15.1711C38.4626 15.2078 38.9327 14.8782 39.427 14.8782C40.0057 14.866 40.5723 15.1223 40.9822 15.4031C41.1027 15.4885 41.1992 15.5983 41.2233 15.7326C41.3439 16.3185 41.5126 16.8921 42.019 17.3437C42.3324 17.6245 42.8387 17.6001 43.2848 17.5268C43.3692 17.832 43.538 18.1859 43.9479 18.2836C44.3336 18.3568 44.6471 17.9662 45.057 18.0761C45.2257 18.2958 45.3222 18.5155 45.503 18.7474C45.6597 18.9061 45.925 18.9427 46.1179 19.0769C46.8412 19.4675 47.2993 20.1999 47.5886 20.7857C47.1787 20.3341 46.7086 19.7849 46.0455 19.5652C46.0696 20.5294 46.0094 21.8964 45.3463 22.4091C45.3222 21.7866 45.3463 21.1763 44.9846 20.6271C44.418 21.042 43.8514 21.6279 43.116 21.7622C43.3933 21.4082 43.9599 21.0298 43.7791 20.5904C43.4536 20.3829 43.0437 20.3219 42.6217 20.4318C42.0069 20.566 41.4162 20.9444 40.9822 21.3106C40.8496 20.9688 40.7652 20.6515 40.6085 20.3463C40.2589 20.4074 39.0171 20.8223 39.3667 21.3838C39.9092 22.0673 40.7772 21.7988 41.2956 21.8964C41.6573 22.0185 41.9105 22.2992 42.0551 22.58C42.0913 22.3236 42.1034 22.0673 42.1516 21.811C42.6941 22.4701 43.1884 23.178 43.6224 23.8982C44.2492 23.6174 44.3698 23.3245 44.4421 22.5189C44.6832 22.9217 44.7194 23.2757 44.7315 23.7151C44.9123 23.5564 45.0208 23.4343 45.1293 23.1902C45.3584 24.2887 45.1052 25.9487 43.5741 26.4491C43.8514 25.7168 43.9599 25.0821 42.9834 25.0821C42.2119 25.0821 41.3559 25.3628 40.5844 25.4605C40.8857 25.3018 42.1877 24.5573 41.9587 24.1179C41.8622 23.947 41.6694 23.8982 41.4765 23.8249C40.9942 23.654 40.5482 23.3977 40.0177 23.3245C39.7646 23.2879 39.5476 23.471 39.3306 23.5564C38.0647 22.9461 37.6066 23.7029 36.7025 23.8371C35.8345 23.9714 34.8821 23.471 34.424 22.763C33.4113 21.1641 34.9303 20.1877 36.2202 19.7849C34.5204 19.5896 33.8332 20.1754 33.4354 21.8842C32.6156 21.6157 32.2299 21.5791 31.2172 21.396C25.5752 20.566 21.1146 22.2504 18.5227 25.0333C16.0272 27.7185 14.472 31.8806 14.5082 35.2616C14.4359 38.9477 15.545 41.1203 17.4377 44.3425C14.7011 42.0723 13.4835 39.2162 12.6757 37.3121C12.3261 37.7149 12.4467 38.2153 12.3502 38.6791C10.771 36.4943 12.9651 31.0018 14.0139 28.5363C13.1821 28.9269 12.6878 29.6226 12.0971 30.184C12.0006 27.0716 14.7131 23.9104 17.498 21.3594C16.642 21.5303 15.991 21.811 15.2195 22.2016C17.8837 19.3577 22.7542 17.7099 27.1545 17.539C26.1177 17.1851 24.888 17.1118 23.791 16.9288C27.2268 16.2086 29.5776 16.1842 31.9044 14.6219C32.9894 15.3298 34.2431 16.05 34.858 15.8669C33.0014 14.5243 29.6017 11.3996 28.9387 8.94629ZM39.0895 16.3551C39.2703 16.648 39.5355 16.8921 39.7766 17.1607C40.0419 17.4536 40.512 17.6977 40.9942 17.5512C40.9219 17.2949 40.8255 17.0264 40.6687 16.7945C40.6085 16.6968 40.4638 16.648 40.3312 16.6236C39.9092 16.5504 39.5114 16.4283 39.0895 16.3551Z" fill="#888C8E"/>
<path fill-rule="evenodd" clip-rule="evenodd" d="M37.5941 24.5816C33.9774 28.817 28.239 29.4272 24.2607 29.5981C23.8146 29.6469 22.9104 29.6958 22.6814 30.0253C22.5488 30.2328 22.6814 30.5257 22.8622 30.6844C27.3469 33.8945 33.1938 31.551 36.268 30.0131C32.7237 33.2354 26.7321 33.8091 21.6326 31.9172C20.9816 31.6975 20.5596 31.6242 20.3547 31.8562C20.21 32.0148 20.1377 32.32 20.3306 32.6739C21.7652 35.3836 22.8019 37.4707 26.4427 38.6425C22.2112 38.3862 19.559 34.3217 18.9321 32.1369C18.8718 35.7864 22.0063 38.2885 23.2962 39.741C21.6084 39.802 19.9689 39.9363 19.2456 41.2179C18.7392 42.0234 18.7513 43.1952 18.0521 44.257C16.0991 40.5465 14.5318 35.3714 16.0026 30.8431C17.1117 27.4377 19.0647 24.2276 23.6699 22.2259C22.4523 23.6418 21.5241 24.7281 20.5114 26.2904C19.7278 27.7795 20.6922 28.3043 21.7772 26.4002C23.2962 30.1108 34.1944 27.8893 37.0637 24.3497L38.1004 23.9103L37.5821 24.5816H37.5941ZM30.6983 56.719C30.8068 56.5359 31.0962 56.426 31.3493 56.5115C31.8195 56.6702 32.0124 57.195 31.7351 57.5368C31.3976 58.0006 30.843 58.3301 30.4813 58.7817C30.3126 58.977 30.2402 59.2089 30.1438 59.4286C30.0353 58.5132 30.0353 57.5123 30.7104 56.719H30.6983ZM25.6109 55.1078C25.8641 54.9003 26.3583 54.8881 26.5874 55.1078C26.8164 55.4008 26.9008 55.7913 26.7562 56.1209C26.5151 56.426 26.1172 56.6335 25.7797 56.8654C25.2372 57.2194 24.6706 57.6222 24.4415 58.1714C24.4415 57.4879 24.55 56.8166 24.8273 56.1697C24.9961 55.7791 25.2251 55.3886 25.5988 55.1078H25.6109ZM37.7267 54.4731C37.8955 54.3877 38.1004 54.4365 38.2451 54.5342C38.438 54.6562 38.5103 54.8393 38.5465 55.0224C38.6309 55.4618 38.6309 55.9134 38.7997 56.3284C38.872 56.5115 38.9805 56.6702 39.0649 56.841C38.6429 56.6946 38.3174 56.426 38.0402 56.1453C37.7388 55.828 37.4736 55.4862 37.4012 55.0956C37.353 54.8637 37.4494 54.5952 37.7147 54.4731H37.7267ZM21.8616 52.0198C22.1389 51.8856 22.5006 52.0198 22.6814 52.2029C22.9104 52.4348 22.814 52.7522 22.7899 53.0207C22.7899 53.2038 22.6091 53.3502 22.4162 53.4479C21.8978 53.692 21.3071 53.9239 20.7887 54.1802C20.4391 54.3511 20.1618 54.5952 19.9568 54.8759C20.0171 54.3999 20.21 53.9483 20.427 53.5089C20.7043 52.9352 21.1865 52.3494 21.8616 52.0198ZM43.4049 48.3948C43.3567 48.1628 43.5737 47.9798 43.8027 47.8699C44.2367 47.8699 44.5743 48.1018 44.9359 48.2605C45.1409 48.3581 45.382 48.3825 45.6111 48.407C45.2012 48.6755 44.6828 48.8464 44.1523 48.8464C43.8268 48.8464 43.4531 48.6755 43.4049 48.3948ZM18.7031 46.4296C18.8477 46.3442 19.0286 46.4052 19.1853 46.4296C19.559 46.5395 19.7639 46.8568 19.7398 47.162C19.7157 47.4915 19.7639 47.8943 19.3782 48.1018C18.691 48.5046 17.8351 48.7365 17.2082 49.2247C16.9791 49.3834 16.8103 49.5787 16.6657 49.7862C16.7621 48.8708 17.1358 47.9676 17.7386 47.1864C17.9677 46.869 18.3414 46.6371 18.691 46.4296H18.7031ZM27.6483 42.8778C28.1426 42.6825 28.6971 42.5727 29.2517 42.5361C28.7936 42.6947 28.2752 42.8656 28.022 43.2318C27.9135 43.3904 27.8171 43.6101 27.9979 43.7566C28.2028 43.8665 28.4681 43.8299 28.6851 43.9153C28.89 44.0496 28.8177 44.2937 28.7936 44.4645C28.6489 45.0504 28.3475 45.5997 27.9858 46.1245C27.9135 46.2466 27.8291 46.3808 27.8532 46.5151C28.022 46.5395 28.1305 46.4052 28.2511 46.3442C28.7333 46.0025 29.2396 45.6729 29.6013 45.2457C29.758 45.0504 29.9991 44.8673 30.0232 44.6232C30.0594 44.4279 29.7098 44.3669 29.6857 44.1838C29.8303 43.8909 30.2161 43.7078 30.5537 43.5613C31.3252 43.2562 32.4464 43.3294 32.9286 43.9519C32.5428 43.8421 32.1812 43.659 31.7592 43.6346C31.5422 43.6346 31.3011 43.72 31.2649 43.8909C31.2167 44.1228 31.2408 44.3547 31.1926 44.5744C31.0479 45.38 30.409 46.1123 29.5531 46.5639C29.2637 46.7104 28.89 46.7836 28.673 47.0033C28.5163 47.162 28.3837 47.3451 28.3957 47.5526C28.5766 47.638 28.8056 47.6136 29.0106 47.638C29.4687 47.6868 29.9629 47.7112 30.3849 47.5404C30.7827 47.3817 30.9515 46.9911 31.3614 46.8568C32.4343 46.4541 33.8087 46.9423 34.2788 47.7723C33.9413 47.6136 33.664 47.3817 33.3023 47.2474C32.9407 47.1132 32.4826 47.1742 32.1812 47.3939C31.8557 47.6258 31.6507 47.9309 31.4578 48.2361C31.3855 48.3459 31.3132 48.468 31.1444 48.4924C30.8671 48.4924 30.6019 48.3093 30.3126 48.3825C29.9147 48.4924 29.5531 48.6877 29.1552 48.7853C28.8779 48.8464 28.5886 48.8464 28.3113 48.7853C27.8291 48.6877 27.3348 48.5656 26.8285 48.5412C26.5994 48.5412 26.3222 48.5656 26.1896 48.7243C25.9967 48.9562 26.0208 49.2369 25.9846 49.5055C25.8279 48.8586 25.5868 48.2117 25.5506 47.5526C25.5024 46.7348 25.2974 45.9048 25.4662 45.0748C25.7435 45.4044 25.7556 45.8072 25.8279 46.1977C25.852 46.3686 25.9605 46.6005 26.2137 46.6249C26.5633 46.6249 26.7562 46.3564 26.937 46.1611C27.2263 45.7583 27.4916 45.2945 27.4313 44.8185C27.4313 44.5988 27.0937 44.5988 26.9732 44.4401C26.7441 44.1838 26.7441 43.8421 26.8526 43.5613C26.9732 43.2562 27.2987 43.0121 27.6483 42.8778ZM46.2621 41.8037C46.2741 41.6328 46.5152 41.584 46.6961 41.5962C47.0336 41.5962 47.3591 41.6206 47.6967 41.5962C47.4556 41.8647 47.118 42.0967 46.7081 42.1699C46.4429 42.2187 46.2018 42.0234 46.2621 41.8159V41.8037ZM46.5032 37.6172C46.7563 37.5196 47.0095 37.4219 47.2265 37.2876C47.1421 37.5684 46.9613 37.8613 46.6237 38.0078C46.3585 38.0688 46.2741 37.6904 46.5152 37.6172H46.5032ZM34.5441 33.2842C34.8816 34.5658 35.3397 35.7619 36.8226 36.238C38.2089 36.6774 40.2222 36.3722 41.7412 36.238C43.0071 36.1891 44.1764 35.9572 45.1168 36.6163C45.5869 36.9459 45.7798 37.3487 46.0089 37.8003C46.2259 38.2519 46.4429 38.6913 46.5876 39.1551C46.7322 39.5579 46.6478 40.0705 46.4188 40.4367C46.0571 41.0104 45.8401 41.4864 45.7678 42.1211C45.7075 42.6947 45.5869 43.2684 45.4784 43.8421C45.3699 44.3913 45.2253 45.0504 44.948 45.563C44.6707 46.0635 44.1764 46.4419 43.8509 46.9179C43.2964 47.699 42.995 48.5412 42.7057 49.3956C42.4766 50.0669 42.3922 50.7504 42.1993 51.4339C42.0547 52.0076 41.7051 52.5691 41.0782 52.9108C40.1499 53.4113 38.9926 53.5333 38.004 53.9239C37.0878 54.2901 36.4729 54.8759 35.7496 55.4252C35.183 55.8646 34.6887 56.365 33.8689 56.4871C32.3499 56.719 31.9642 55.4984 29.2155 56.4749C28.89 56.5969 28.4681 56.6213 28.1787 56.426C27.5277 56.1087 27.4554 55.1933 26.72 54.8027C25.9846 54.4487 25.1046 54.4365 24.2848 54.2779C23.9231 54.2168 23.5735 53.9971 23.4288 53.7164C23.1998 53.2282 23.1877 52.7033 22.9828 52.2151C22.4523 51.1166 20.7043 50.7626 20.21 49.7618C19.7037 48.7121 20.3908 48.1628 20.3908 47.3084C20.3426 46.1855 19.5831 45.6119 18.1123 45.563C18.9321 44.3547 19.2214 43.3905 19.5108 42.0967C19.7037 41.6451 19.8122 41.1324 20.2944 40.8273C20.7163 40.5588 21.3914 40.4123 21.8978 40.2902C22.4403 40.156 23.248 40.1438 23.7664 40.3757C25.1648 41.1568 24.8393 43.1952 24.1039 44.0251C23.1033 45.1725 20.5837 44.9406 21.0177 43.1463C21.5361 43.5857 22.0424 44.2693 22.7658 43.4637C22.814 43.3905 22.8743 43.2806 22.8502 43.183C22.7417 42.8412 22.5367 42.6215 22.1389 42.4506C21.946 42.3652 21.7049 42.3164 21.4879 42.3896C20.7646 42.6093 20.2823 43.0609 20.0051 43.6224C19.4384 44.7453 20.6561 45.6485 22.0666 45.4288C23.3806 45.1603 23.9834 44.6232 24.8393 43.9153C24.8152 45.3556 24.767 46.393 24.9599 47.9065C25.1769 49.005 25.3939 50.0913 25.9605 51.1166C26.4186 51.9588 27.1781 52.7399 28.2149 53.1427C29.3119 53.5943 30.5175 53.5943 31.711 53.5943C33.7604 53.5943 36.7623 52.7033 38.4139 51.8367C41.0541 50.4209 41.4398 49.2858 42.7298 47.0765C43.2964 46.0391 43.8389 44.7575 44.2367 43.659C44.6466 42.5239 44.9601 41.3643 44.948 40.1804C44.948 39.2039 44.6828 38.6181 44.3091 38.1542C43.1517 36.6774 40.6803 37.2999 38.4139 37.2388C38.2331 37.605 38.1004 38.0078 38.4018 38.3617C38.9564 38.972 40.3187 38.8744 41.2228 38.9476C37.3289 40.5588 33.8328 38.8011 32.8683 35.7009C33.6761 36.7262 34.9901 38.8256 36.9793 38.2031C37.7026 37.9834 37.3771 37.4585 37.136 37.0679C37.0757 36.9337 36.8226 36.9215 36.6779 36.8727C34.9178 36.3478 34.2668 34.7611 34.5682 33.272L34.5441 33.2842ZM22.0424 32.6251C22.3318 32.857 22.4282 33.1744 22.7296 33.4063C25.4903 35.53 27.9256 35.5178 31.4337 35.6399C28.3113 36.4088 24.3451 35.9328 22.1268 33.8091C21.8134 33.5161 21.5964 33.2476 21.4156 32.8936C21.2588 32.4054 21.6928 32.3444 22.0424 32.6251ZM35.0866 32.0392C37.9076 31.8806 40.7888 32.9669 41.693 35.7375C41.3193 35.3225 39.7882 34.9564 39.2096 35.1028C39.0528 35.1395 38.9082 35.2249 38.8841 35.3592C38.8238 35.6033 38.9684 35.7986 39.0649 36.0183C37.5218 36.2013 36.4006 35.6765 35.7014 34.6756C36.051 34.8221 36.3886 35.054 36.7864 35.1273C37.5459 35.2737 38.3054 34.9442 38.7394 34.4682C39.0167 34.163 38.8358 33.7846 38.5103 33.5405C37.3289 32.6495 36.3283 32.5519 35.0866 32.0392ZM37.9678 26.8885C38.3295 26.6077 38.6429 26.3026 38.9926 26.0097C37.4133 28.4386 33.5796 30.3671 30.5657 30.9041C29.0467 31.2093 25.7073 31.612 24.3089 30.8309C24.1522 30.7454 23.9954 30.5624 24.1401 30.4281C24.3692 30.2572 24.7429 30.2938 25.0202 30.2938C25.6109 30.3549 26.2378 30.2816 26.8406 30.2816C28.3234 30.3182 30.0112 30.0619 31.4578 29.83C33.8689 29.293 36.1595 28.3165 37.9558 26.8885H37.9678ZM9.46849 18.0638C9.90249 17.9662 10.3847 18.0394 10.7705 18.2103C11.2527 18.43 11.53 18.8328 11.7832 19.2111C11.8917 19.3942 12.0243 19.6139 11.9399 19.8214C11.8073 19.858 11.6626 19.8702 11.53 19.9069C11.4094 20.0167 11.4577 20.1754 11.4577 20.3097C11.5421 21.0176 11.8314 21.6157 12.1448 22.2748C12.181 22.3724 12.2774 22.4456 12.3618 22.5067C12.4824 21.7621 12.2895 21.0176 12.5909 20.2974C12.6391 20.1876 12.6994 20.0533 12.8682 20.0289C13.1213 20.0289 13.3263 20.2486 13.5794 20.1998C13.7964 20.1022 13.7603 19.858 13.7482 19.6872C13.6759 19.2356 13.2419 18.9304 12.9526 18.5643C13.5915 18.967 14.1943 19.4675 14.4595 20.0899C14.6162 20.4561 14.568 20.9199 14.1943 21.1885C14.0255 21.3227 13.7844 21.2861 13.5794 21.2617C13.1213 21.7133 13.1816 22.3114 13.2901 22.8484C13.3263 22.9827 13.3624 23.2146 13.5915 23.2024C14.0737 23.0925 14.3872 22.763 14.7971 22.5555C13.8567 23.7394 13.0611 24.3863 12.4342 25.8266C12.4342 25.5214 12.5065 25.2163 12.4342 24.9112C12.3859 24.7403 12.2051 24.6182 12.0243 24.5328C11.5541 24.3009 11.0237 24.1788 10.5414 23.9591C10.0472 23.715 9.78194 23.2756 9.48055 22.8972C9.28766 22.6531 8.90188 22.7874 8.67283 22.5921C8.56433 22.3602 8.62461 22.1161 8.56433 21.872C8.49199 21.5058 8.46788 21.0054 8.07005 20.7613C7.66016 20.5049 7.10561 20.5171 6.61133 20.5171C6.97299 20.3707 7.37083 20.2242 7.79277 20.2852C8.47994 20.3829 8.97422 20.7124 9.34794 21.164C9.60111 21.457 9.55288 21.8598 9.80605 22.1649C9.98688 22.3846 10.2642 22.5311 10.5294 22.6775C10.8187 22.8362 11.0839 23.0315 11.4336 23.0925C11.5179 22.7386 11.4697 22.348 11.1924 22.0551C10.7223 21.5424 10.5656 20.981 10.4571 20.3707C10.3847 19.9679 10.4571 19.5529 10.662 19.1745C10.7584 18.9792 10.9393 18.7595 10.7826 18.552C10.5053 18.2225 9.93866 18.1859 9.50466 18.0638H9.46849ZM26.9129 11.2653C28.1667 12.0953 29.8183 13.1206 31.2047 13.8163C30.9033 14.0604 30.5416 14.4388 30.1438 14.4265C29.2517 14.097 27.3348 12.0465 26.9249 11.2531L26.9129 11.2653ZM28.7574 8.47021H28.7815C30.6381 10.8259 32.6272 12.6689 35.4121 13.9994C36.1595 14.3777 36.8708 14.6585 37.787 14.6951C38.2813 14.7317 38.7514 14.4021 39.2457 14.4021C39.8244 14.3899 40.391 14.6463 40.8009 14.927C40.9214 15.0124 41.0179 15.1223 41.042 15.2565C41.1626 15.8424 41.3313 16.4161 41.8377 16.8677C42.1511 17.1484 42.6574 17.124 43.1035 17.0508C43.1879 17.3559 43.3567 17.7099 43.7666 17.8075C44.1523 17.8807 44.4658 17.4902 44.8757 17.6C45.0444 17.8197 45.1409 18.0394 45.3217 18.2713C45.4784 18.43 45.7437 18.4666 45.9366 18.6009C46.6599 18.9914 47.118 19.7238 47.4073 20.3097C46.9974 19.858 46.5273 19.3088 45.8642 19.0891C45.8883 20.0533 45.8281 21.4204 45.165 21.933C45.1409 21.3105 45.165 20.7002 44.8033 20.151C44.2367 20.566 43.6701 21.1518 42.9347 21.2861C43.212 20.9321 43.7786 20.5538 43.5978 20.1144C43.2723 19.9069 42.8624 19.8458 42.4404 19.9557C41.8256 20.09 41.2349 20.4683 40.8009 20.8345C40.6683 20.4927 40.5839 20.1754 40.4272 19.8703C40.0776 19.9313 38.8358 20.3463 39.1854 20.9077C39.7279 21.5912 40.5959 21.3227 41.1143 21.4204C41.476 21.5424 41.7292 21.8231 41.8738 22.1039C41.91 21.8476 41.9221 21.5912 41.9703 21.3349C42.5128 22.0062 43.0071 22.702 43.4411 23.4221C44.0679 23.1414 44.1885 22.8484 44.2608 22.0428C44.5019 22.4456 44.5381 22.7996 44.5502 23.239C44.731 23.0803 44.8395 22.9583 44.948 22.7142C45.1771 23.8127 44.9239 25.4726 43.3928 25.9731C43.6701 25.2407 43.7786 24.606 42.8021 24.606C42.0306 24.606 41.1746 24.8868 40.4031 24.9844C40.7044 24.8257 42.0064 24.0812 41.7774 23.6418C41.6809 23.4709 41.4881 23.4221 41.2952 23.3488C40.8129 23.178 40.3669 22.9216 39.8364 22.8484C39.5833 22.8118 39.3663 22.9949 39.1493 23.0803C37.8834 22.47 37.4374 23.2268 36.5212 23.3611C35.6532 23.4953 34.7008 22.9949 34.2427 22.287C33.23 20.688 34.749 19.7116 36.0389 19.3088C34.3391 19.1135 33.6519 19.6994 33.2541 21.4082C32.4343 21.1396 32.0486 21.103 31.0359 20.9199C25.3939 20.0899 20.9333 21.7743 18.3414 24.5572C15.8459 27.2424 14.2907 31.4045 14.3269 34.7855C14.2546 38.4716 15.3637 40.6442 17.2564 43.8665C14.5198 41.5962 13.3022 38.7401 12.4944 36.836C12.1448 37.2388 12.2654 37.7393 12.1689 38.2031C10.5897 36.0183 12.7838 30.5257 13.8326 28.0602C13.0008 28.4508 12.5065 29.1465 11.9158 29.708C11.8193 26.5955 14.5318 23.4343 17.3167 20.8833C16.4607 21.0542 15.8097 21.3349 15.0382 21.7377C17.7024 18.8938 22.5729 17.246 26.9732 17.0752C25.9364 16.7212 24.7067 16.648 23.6097 16.4649C27.0455 15.7448 29.3963 15.7203 31.7231 14.158C32.8081 14.866 34.0618 15.5861 34.6767 15.403C32.8201 14.0604 29.4204 10.9357 28.7574 8.48242V8.47021ZM38.9082 15.8912C39.089 16.1842 39.3542 16.4283 39.5953 16.6968C39.8606 16.9897 40.3307 17.2338 40.8129 17.0874C40.7406 16.8311 40.6442 16.5625 40.4874 16.3306C40.4272 16.233 40.2825 16.1842 40.1499 16.1597C39.7279 16.0865 39.3181 15.9645 38.8961 15.8912H38.9082Z" fill="white"/>
<path fill-rule="evenodd" clip-rule="evenodd" d="M2.3085 13.6698C10.9764 8.18951 20.9223 3.8199 29.759 2.35522C38.5957 3.8199 48.5415 8.18951 57.2215 13.682C57.2215 13.8895 57.2215 14.0848 57.2215 14.2923C48.65 8.8242 38.873 4.45459 30.1689 2.91668C21.3201 4.29592 11.3743 8.54347 2.70633 13.9383C2.59783 34.7367 8.17955 51.2997 17.3056 61.2961C7.9505 51.4462 2.18794 34.7733 2.3085 13.6698Z" fill="#888C8E"/>
</g>
<defs>
<clipPath id="clip0_216_10426">
<rect width="217" height="71" fill="white" transform="translate(0.5 0.5)"/>
</clipPath>
</defs>
</svg>
