<svg width="286" height="44" viewBox="0 0 286 44" fill="none" xmlns="http://www.w3.org/2000/svg">
<g clip-path="url(#clip0_216_10455)">
<path d="M10.8675 11.8965C10.668 11.0686 10.7153 10.1932 10.8255 9.73969C11.1038 8.43193 11.991 6.97124 14.5688 6.97124C16.9628 6.97124 18.3698 8.46357 18.3698 10.6994V13.2411H28.5706V10.3567C28.5653 1.42378 20.5486 0 14.7683 0C7.50228 0 1.56976 2.42042 0.483002 9.128C0.183751 10.9684 0.136501 12.5872 0.567002 14.6649C2.33626 23.0599 16.8683 25.4909 18.9841 30.8011C19.3778 31.7872 19.2623 33.058 19.0628 33.8332C18.7268 35.2148 17.8028 36.6069 15.0676 36.6069C12.5108 36.6069 10.983 35.1146 10.983 32.8682L10.9673 28.9185H0V32.0561C0 41.2368 7.17677 44 14.8628 44C22.5488 44 28.3186 41.4688 29.3056 34.5978C29.7991 31.0542 29.4264 28.7498 29.2636 27.8744C27.5363 19.2579 12.033 16.7004 10.8675 11.8965ZM143.835 11.9966C143.651 11.1846 143.703 10.325 143.798 9.87152C144.092 8.55849 144.969 7.12416 147.505 7.12416C149.867 7.12416 151.248 8.60067 151.248 10.8207V13.3308H161.328V10.4674C161.328 1.61889 153.432 0.22675 147.709 0.22675C140.506 0.22675 134.626 2.61026 133.55 9.27037C133.266 11.0844 133.193 12.6927 133.65 14.744C135.403 23.0441 149.788 25.454 151.878 30.7061C152.245 31.7028 152.14 32.9684 151.951 33.7172C151.636 35.0829 150.723 36.4593 148.009 36.4593C145.462 36.4593 143.935 34.988 143.935 32.7733V28.8341H133.083V31.9664C133.083 41.0417 140.16 43.7838 147.788 43.7838C155.416 43.7838 161.123 41.279 162.089 34.4818C162.551 30.9698 162.205 28.6865 162.016 27.8217C160.325 19.3054 144.99 16.7478 143.829 11.9914L143.835 11.9966ZM236.676 34.371L227.048 1.30777H211.875V41.9487H221.913L221.33 7.8255L231.673 41.9487H246.226V1.30777H236.125L236.681 34.371H236.676ZM43.7747 1.30777L36.1989 42.3758H47.2449L52.9517 4.36098L58.522 42.3758H69.4892L61.945 1.30777H43.7694H43.7747ZM105.531 1.30777L100.37 33.4113L95.2143 1.30777H78.535L77.653 42.3758H87.8696L88.1478 4.36098L95.1776 42.3758H105.546L112.581 4.36098L112.86 42.3758H123.102L122.189 1.30777H105.531ZM200.54 1.30777H190.198V31.687C190.213 32.2143 190.198 32.8102 190.108 33.2478C189.893 34.2656 189.032 36.2325 186.181 36.2325C183.331 36.2325 182.48 34.2709 182.281 33.2478C182.176 32.8102 182.165 32.2143 182.176 31.687V1.30777H171.838V30.743C171.828 31.5024 171.886 33.0527 171.928 33.4588C172.642 41.1314 178.658 43.6203 186.176 43.6203C193.694 43.6203 199.721 41.1314 200.451 33.4588C200.509 33.0527 200.582 31.5024 200.54 30.743V1.30777ZM271.536 19.3212V25.3116H275.726V31.2546C275.736 31.7872 275.71 32.3567 275.621 32.8154C275.453 33.9228 274.408 35.8106 271.431 35.8106C268.454 35.8106 267.446 33.9228 267.268 32.8154C267.194 32.3567 267.163 31.7819 267.163 31.2546V12.4871C267.163 11.8226 267.21 11.0949 267.347 10.5465C267.551 9.54458 268.433 7.57239 271.41 7.57239C274.539 7.57239 275.316 9.65005 275.495 10.5465C275.61 11.1371 275.621 12.1285 275.621 12.1285V14.4065H285.916V13.0618C285.916 13.0618 285.963 11.6539 285.837 10.3461C285.065 2.6419 278.744 0.205657 271.499 0.205657C264.254 0.205657 258.049 2.66299 257.146 10.3461C257.062 11.0475 256.941 12.313 256.941 13.0618V30.3265C256.941 31.0805 256.967 31.6606 257.104 33.0369C257.776 40.5302 264.239 43.1826 271.468 43.1826C278.697 43.1826 285.16 40.5249 285.848 33.0369C285.968 31.6606 285.984 31.0805 286 30.3265V19.3212H271.536Z" fill="#888C8E"/>
</g>
<defs>
<clipPath id="clip0_216_10455">
<rect width="286" height="44" fill="white"/>
</clipPath>
</defs>
</svg>
