<svg width="58" height="58" viewBox="0 0 58 58" fill="none" xmlns="http://www.w3.org/2000/svg">
<path d="M4.83398 20.7085C4.83398 17.8177 5.99974 16.0462 8.41217 14.7036L18.3428 9.17707C23.5465 6.2812 26.1483 4.83325 29.0006 4.83325C31.853 4.83325 34.4548 6.2812 39.6584 9.17707L49.5892 14.7036C52.0015 16.0462 53.1673 17.8178 53.1673 20.7085C53.1673 21.4924 53.1673 21.8843 53.0818 22.2065C52.632 23.8994 51.0979 24.1666 49.6165 24.1666H8.38474C6.9033 24.1666 5.36932 23.8994 4.91958 22.2065C4.83398 21.8843 4.83398 21.4924 4.83398 20.7085Z" stroke="#141B34" stroke-width="2"/>
<path d="M9.66602 24.1667V44.7084M19.3327 24.1667V44.7084" stroke="#141B34" stroke-width="2"/>
<path d="M26.584 44.7083H12.084C8.07993 44.7083 4.83398 47.9541 4.83398 51.9583C4.83398 52.6255 5.37498 53.1666 6.04232 53.1666H26.584" stroke="#141B34" stroke-width="2" stroke-linecap="round"/>
<path d="M51.9577 35.0417L35.041 51.9584" stroke="#141B34" stroke-width="2" stroke-linecap="round" stroke-linejoin="round"/>
<path d="M36.8535 38.6667C37.8545 38.6667 38.666 37.8553 38.666 36.8542C38.666 35.8532 37.8545 35.0417 36.8535 35.0417C35.8525 35.0417 35.041 35.8532 35.041 36.8542C35.041 37.8553 35.8525 38.6667 36.8535 38.6667Z" stroke="#141B34" stroke-width="2"/>
<path d="M50.1465 51.9583C51.1475 51.9583 51.959 51.1468 51.959 50.1458C51.959 49.1447 51.1475 48.3333 50.1465 48.3333C49.1455 48.3333 48.334 49.1447 48.334 50.1458C48.334 51.1468 49.1455 51.9583 50.1465 51.9583Z" stroke="#141B34" stroke-width="2"/>
</svg>
