<svg width="58" height="58" viewBox="0 0 58 58" fill="none" xmlns="http://www.w3.org/2000/svg">
<path d="M4.83398 53.1667H53.1673" stroke="#141B34" stroke-width="2" stroke-linecap="round" stroke-linejoin="round"/>
<path d="M33.834 9.66675H24.1673C20.1685 9.66675 19.334 10.5013 19.334 14.5001V53.1667H38.6673V14.5001C38.6673 10.5013 37.8328 9.66675 33.834 9.66675Z" stroke="#141B34" stroke-width="2" stroke-linejoin="round"/>
<path d="M19.3333 31.4167H12.0833C8.08455 31.4167 7.25 32.2512 7.25 36.2501V53.1667H19.3333V31.4167Z" stroke="#141B34" stroke-width="2" stroke-linejoin="round"/>
<path d="M45.916 31.4167H38.666V53.1667H50.7493V36.2501C50.7493 32.2512 49.9149 31.4167 45.916 31.4167Z" stroke="#141B34" stroke-width="2" stroke-linejoin="round"/>
<path d="M29 9.66659V4.83325" stroke="#141B34" stroke-width="2" stroke-linecap="round" stroke-linejoin="round"/>
<path d="M29 53.1666V48.3333" stroke="#141B34" stroke-width="2" stroke-linecap="round" stroke-linejoin="round"/>
<path d="M26.584 36.2499H31.4173M26.584 27.7916H31.4173M26.584 19.3333H31.4173" stroke="#141B34" stroke-width="2" stroke-linecap="round" stroke-linejoin="round"/>
</svg>
