<svg width="58" height="58" viewBox="0 0 58 58" fill="none" xmlns="http://www.w3.org/2000/svg">
<path d="M13.2923 24.1667C13.5875 24.1667 13.8619 24.0301 14.4108 23.7569L18.8224 21.5606C20.7746 20.5888 21.7506 20.1029 21.7506 19.3334V9.66671M13.2923 24.1667C12.9971 24.1667 12.7227 24.0301 12.1738 23.7569L7.76221 21.5606C5.81008 20.5888 4.83398 20.1029 4.83398 19.3334V9.66671M13.2923 24.1667V14.5M21.7506 9.66671C21.7506 8.89722 20.7746 8.4113 18.8224 7.43946L14.4108 5.24322C13.8619 4.96999 13.5875 4.83337 13.2923 4.83337C12.9971 4.83337 12.7227 4.96999 12.1738 5.24322L7.76221 7.43946C5.81005 8.4113 4.83398 8.89722 4.83398 9.66671M21.7506 9.66671C21.7506 10.4362 20.7746 10.9221 18.8224 11.894L14.4108 14.0902C13.8619 14.3634 13.5875 14.5 13.2923 14.5M4.83398 9.66671C4.83398 10.4362 5.81005 10.9221 7.76221 11.894L12.1738 14.0902C12.7227 14.3634 12.9971 14.5 13.2923 14.5" stroke="#29292D" stroke-width="2" stroke-linejoin="round"/>
<path d="M44.7083 24.1667C45.0036 24.1667 45.2779 24.0301 45.8268 23.7569L50.2384 21.5606C52.1906 20.5888 53.1667 20.1029 53.1667 19.3334V9.66671M44.7083 24.1667C44.413 24.1667 44.1387 24.0301 43.5899 23.7569L39.1783 21.5606C37.2261 20.5888 36.25 20.1029 36.25 19.3334V9.66671M44.7083 24.1667V14.5M53.1667 9.66671C53.1667 8.89722 52.1906 8.4113 50.2384 7.43946L45.8268 5.24322C45.2779 4.96999 45.0036 4.83337 44.7083 4.83337C44.413 4.83337 44.1387 4.96999 43.5899 5.24322L39.1783 7.43946C37.2261 8.4113 36.25 8.89722 36.25 9.66671M53.1667 9.66671C53.1667 10.4362 52.1906 10.9221 50.2384 11.894L45.8268 14.0902C45.2779 14.3634 45.0036 14.5 44.7083 14.5M36.25 9.66671C36.25 10.4362 37.2261 10.9221 39.1783 11.894L43.5899 14.0902C44.1387 14.3634 44.413 14.5 44.7083 14.5" stroke="#29292D" stroke-width="2" stroke-linejoin="round"/>
<path d="M27.791 14.5H30.2077" stroke="#29292D" stroke-width="2" stroke-linecap="round"/>
<path d="M4.83398 29V37.4583C4.83398 40.8525 4.83398 42.5495 5.64855 43.7685C6.00119 44.2963 6.45431 44.7494 6.98206 45.102C8.20115 45.9167 9.89821 45.9167 13.2923 45.9167" stroke="#29292D" stroke-width="2" stroke-linecap="round"/>
<path d="M53.1673 29V37.4583C53.1673 40.8525 53.1673 42.5495 52.3527 43.7685C52.0001 44.2963 51.5469 44.7494 51.0191 45.102C49.8002 45.9167 48.1032 45.9167 44.709 45.9167" stroke="#29292D" stroke-width="2" stroke-linecap="round"/>
<path d="M28.9993 53.1666C29.2947 53.1666 29.569 53.03 30.1178 52.7567L34.5294 50.5605C36.4816 49.5887 37.4577 49.1027 37.4577 48.3333V38.6666M28.9993 53.1666C28.704 53.1666 28.4297 53.03 27.8809 52.7567L23.4692 50.5605C21.5171 49.5887 20.541 49.1027 20.541 48.3333V38.6666M28.9993 53.1666V43.4999M37.4577 38.6666C37.4577 37.8971 36.4816 37.4111 34.5294 36.4394L30.1178 34.2431C29.569 33.9698 29.2947 33.8333 28.9993 33.8333C28.704 33.8333 28.4297 33.9698 27.8809 34.2431L23.4692 36.4394C21.5171 37.4111 20.541 37.8971 20.541 38.6666M37.4577 38.6666C37.4577 39.4361 36.4816 39.922 34.5294 40.8938L30.1178 43.0901C29.569 43.3634 29.2947 43.4999 28.9993 43.4999M20.541 38.6666C20.541 39.4361 21.5171 39.922 23.4692 40.8938L27.8809 43.0901C28.4297 43.3634 28.704 43.4999 28.9993 43.4999" stroke="#29292D" stroke-width="2" stroke-linejoin="round"/>
</svg>
