<svg width="58" height="58" viewBox="0 0 58 58" fill="none" xmlns="http://www.w3.org/2000/svg">
<path d="M48.332 41.5334C45.5359 43.5 41.5912 43.5 33.702 43.5H24.0787C16.1894 43.5 12.2448 43.5 9.44859 41.5334C8.41409 40.8057 7.51429 39.9019 6.78994 38.8627C4.83203 36.0538 4.83203 32.0914 4.83203 24.1667C4.83203 16.2419 4.83203 12.2795 6.78994 9.47074C7.51429 8.43157 8.41409 7.52772 9.44859 6.80011C12.2448 4.83337 16.1894 4.83337 24.0787 4.83337" stroke="#141B34" stroke-width="2" stroke-linecap="round"/>
<path d="M29 43.5V53.1667" stroke="#141B34" stroke-width="2"/>
<path d="M19.332 53.1667H38.6654" stroke="#141B34" stroke-width="2" stroke-linecap="round"/>
<path d="M43.5013 4.83337C48.0582 4.83337 50.3366 4.83337 51.7523 6.24903C53.168 7.66467 53.168 9.94313 53.168 14.5V24.1667C53.168 28.7236 53.168 31.002 51.7523 32.4177C50.3366 33.8334 48.0582 33.8334 43.5013 33.8334H41.0846C36.5278 33.8334 34.2493 33.8334 32.8337 32.4177C31.418 31.002 31.418 28.7236 31.418 24.1667V14.5C31.418 9.94313 31.418 7.66467 32.8337 6.24903C34.2493 4.83337 36.5278 4.83337 41.0846 4.83337H43.5013Z" stroke="#141B34" stroke-width="2" stroke-linecap="round"/>
<path d="M42.293 27.7916H42.3147" stroke="#141B34" stroke-width="2" stroke-linecap="round" stroke-linejoin="round"/>
</svg>
