<svg width="58" height="58" viewBox="0 0 58 58" fill="none" xmlns="http://www.w3.org/2000/svg">
<path d="M21.7507 14.5L22.7169 19.8508C22.8767 20.8998 22.7793 21.9644 22.4305 22.9821L12.084 53.1667M36.2506 14.5L35.2845 19.8508C35.1247 20.8998 35.2221 21.9644 35.5708 22.9821L45.9173 53.1667" stroke="#141B34" stroke-width="2" stroke-linecap="round" stroke-linejoin="round"/>
<path d="M7.25 26.5833L8.0324 23.9753C8.24318 23.2728 8.34854 22.9215 8.58647 22.6276C8.82441 22.3337 9.17579 22.1207 9.87858 21.6948L20.4789 15.2704C21.1091 14.8884 21.4242 14.6974 21.7885 14.5987C22.1528 14.5 22.5424 14.5 23.3217 14.5H34.6782C35.4576 14.5 35.8471 14.5 36.2116 14.5987C36.5758 14.6974 36.8909 14.8884 37.5212 15.2704L48.1214 21.6948C48.8242 22.1207 49.1755 22.3337 49.4136 22.6276C49.6514 22.9215 49.7568 23.2728 49.9675 23.9753L50.75 26.5833" stroke="#141B34" stroke-width="2" stroke-linecap="round" stroke-linejoin="round"/>
<path d="M7.25 53.1667H50.75" stroke="#141B34" stroke-width="2" stroke-linecap="round" stroke-linejoin="round"/>
<path d="M9.66602 21.75H47.1243" stroke="#141B34" stroke-width="2" stroke-linecap="round" stroke-linejoin="round"/>
<path d="M22.959 24.1667L38.6673 35.0417L12.084 53.1667" stroke="#141B34" stroke-width="2" stroke-linecap="round" stroke-linejoin="round"/>
<path d="M35.0423 24.1667L19.334 35.0417L45.9173 53.1667" stroke="#141B34" stroke-width="2" stroke-linecap="round" stroke-linejoin="round"/>
<path d="M21.75 14.4999L25.1333 9.08659C26.9055 6.25104 27.7917 4.83325 29 4.83325C30.2083 4.83325 31.0945 6.25104 32.8667 9.08659L36.25 14.4999" stroke="#141B34" stroke-width="2"/>
</svg>
