<svg width="58" height="58" viewBox="0 0 58 58" fill="none" xmlns="http://www.w3.org/2000/svg">
<path d="M26.5977 50.7501H23.2119C14.5475 50.7501 10.2154 50.7501 7.52369 48.0072C4.83203 45.2645 4.83203 40.85 4.83203 32.0209C4.83203 23.1919 4.83203 18.7774 7.52369 16.0346C10.2154 13.2917 14.5475 13.2917 23.2119 13.2917H32.4018C41.0661 13.2917 45.3984 13.2917 48.0901 16.0346C50.161 18.1449 50.6385 21.2448 50.7487 26.5834" stroke="#141B34" stroke-width="2" stroke-linecap="round"/>
<path d="M48.3729 48.3896L53.1654 53.1666M50.8768 42.3556C50.8768 37.6489 47.0611 33.8333 42.3544 33.8333C37.6475 33.8333 33.832 37.6489 33.832 42.3556C33.832 47.0626 37.6475 50.8782 42.3544 50.8782C47.0611 50.8782 50.8768 47.0626 50.8768 42.3556Z" stroke="#141B34" stroke-width="2" stroke-linecap="round" stroke-linejoin="round"/>
<path d="M38.6681 13.2916L38.4279 12.5447C37.2316 8.8229 36.6335 6.96202 35.2093 5.89762C33.7854 4.83325 31.8939 4.83325 28.1109 4.83325H27.475C23.692 4.83325 21.8005 4.83325 20.3765 5.89762C18.9525 6.96202 18.3543 8.8229 17.158 12.5447L16.918 13.2916" stroke="#141B34" stroke-width="2"/>
</svg>
