<svg width="32" height="32" viewBox="0 0 32 32" fill="none" xmlns="http://www.w3.org/2000/svg">
<path d="M15.2941 29.3333C9.97001 29.3333 7.30797 29.3333 5.65399 27.7712C4 26.2092 4 23.6949 4 18.6666V13.3333C4 8.30497 4 5.79083 5.65399 4.22872C7.30797 2.66663 9.97003 2.66663 15.2941 2.66663H16.7059C22.03 2.66663 24.692 2.66663 26.346 4.22872C28 5.79083 28 8.30497 28 13.3333M15.3333 29.3333H17.3333" stroke="white" stroke-width="2" stroke-linecap="round"/>
<path d="M10.666 9.33337H21.3327" stroke="white" stroke-width="2" stroke-linecap="round"/>
<path d="M10.666 16H17.3327" stroke="white" stroke-width="2" stroke-linecap="round"/>
<path d="M23.334 24.7862L22.1311 28.9904C22.0769 29.2015 22.2859 29.3847 22.4885 29.3038L25.1359 28.2466C25.2631 28.1958 25.4049 28.1958 25.5321 28.2466L28.2048 29.3139C28.4025 29.3928 28.6087 29.2199 28.5648 29.0119L27.5459 24.6548M29.334 21.3268C29.334 19.1214 27.5432 17.3334 25.334 17.3334C23.1248 17.3334 21.334 19.1214 21.334 21.3268C21.334 23.5324 23.1248 25.3203 25.334 25.3203C27.5432 25.3203 29.334 23.5324 29.334 21.3268Z" stroke="white" stroke-width="2" stroke-linejoin="round"/>
</svg>
