<svg width="58" height="58" viewBox="0 0 58 58" fill="none" xmlns="http://www.w3.org/2000/svg">
<path d="M19.3333 38.6667H36.8861C47.7311 38.6667 49.3805 31.8536 51.3808 21.917C51.9579 19.0509 52.2464 17.6179 51.5526 16.6631C50.8588 15.7084 49.5289 15.7084 46.8691 15.7084H14.5" stroke="#141B34" stroke-width="2" stroke-linecap="round"/>
<path d="M19.3327 38.6667L12.9979 8.49445C12.46 6.3428 10.5268 4.83337 8.30894 4.83337H6.04102" stroke="#141B34" stroke-width="2" stroke-linecap="round"/>
<path d="M21.46 38.6667H20.4657C17.1709 38.6667 14.5 41.4491 14.5 44.881C14.5 45.453 14.9451 45.9167 15.4943 45.9167H42.2917" stroke="#141B34" stroke-width="2" stroke-linecap="round" stroke-linejoin="round"/>
<path d="M25.375 53.1667C27.377 53.1667 29 51.5438 29 49.5417C29 47.5397 27.377 45.9167 25.375 45.9167C23.373 45.9167 21.75 47.5397 21.75 49.5417C21.75 51.5438 23.373 53.1667 25.375 53.1667Z" stroke="#141B34" stroke-width="2"/>
<path d="M42.291 53.1667C44.293 53.1667 45.916 51.5438 45.916 49.5417C45.916 47.5397 44.293 45.9167 42.291 45.9167C40.289 45.9167 38.666 47.5397 38.666 49.5417C38.666 51.5438 40.289 53.1667 42.291 53.1667Z" stroke="#141B34" stroke-width="2"/>
</svg>
