<svg width="58" height="58" viewBox="0 0 58 58" fill="none" xmlns="http://www.w3.org/2000/svg">
<path d="M41.084 28.5275C41.084 27.6921 41.084 27.2745 41.2097 26.9023C41.5751 25.8206 42.5383 25.4011 43.5033 24.9615C44.5882 24.4673 45.1304 24.2203 45.6679 24.1768C46.2781 24.1274 46.8893 24.2589 47.4108 24.5516C48.1022 24.9395 48.5843 25.6768 49.0781 26.2764C51.358 29.0454 52.4977 30.4301 52.9148 31.957C53.2514 33.189 53.2514 34.4776 52.9148 35.7096C52.3065 37.9365 50.3845 39.8034 48.9618 41.5313C48.2342 42.4151 47.8702 42.8571 47.4108 43.115C46.8893 43.4076 46.2781 43.5391 45.6679 43.4898C45.1304 43.4463 44.5882 43.1993 43.5033 42.7051C42.5383 42.2655 41.5751 41.846 41.2097 40.7643C41.084 40.3921 41.084 39.9745 41.084 39.1391V28.5275Z" stroke="#29292D" stroke-width="2"/>
<path d="M16.9173 28.5278C16.9173 27.4761 16.8878 26.5307 16.0374 25.7912C15.7281 25.5222 15.3181 25.3354 14.498 24.9618C13.4132 24.4678 12.8708 24.2208 12.3333 24.1773C10.7208 24.0468 9.85321 25.1474 8.9233 26.2769C6.64346 29.0459 5.50355 30.4304 5.08643 31.9573C4.74984 33.1895 4.74984 34.4781 5.08643 35.7101C5.6948 37.9371 7.61682 39.8037 9.03949 41.5319C9.93627 42.6211 10.7929 43.6148 12.3333 43.4903C12.8708 43.4468 13.4132 43.1996 14.498 42.7057C15.3181 42.332 15.7281 42.1452 16.0374 41.8763C16.8878 41.1368 16.9173 40.1916 16.9173 39.1396V28.5278Z" stroke="#29292D" stroke-width="2"/>
<path d="M48.3327 25.375V21.75C48.3327 12.4072 39.6769 4.83337 28.9993 4.83337C18.3218 4.83337 9.66602 12.4072 9.66602 21.75V25.375" stroke="#29292D" stroke-width="2" stroke-linecap="round" stroke-linejoin="round"/>
<path d="M48.3333 42.2917C48.3333 53.1667 38.6667 53.1667 29 53.1667" stroke="#29292D" stroke-width="2" stroke-linecap="round" stroke-linejoin="round"/>
</svg>
