<svg width="88" height="90" viewBox="0 0 88 90" fill="none" xmlns="http://www.w3.org/2000/svg">
<g clip-path="url(#clip0_272_21766)">
<path d="M22.5208 81.1597L21.8699 82.321C13.5051 77.438 6.97689 69.9246 3.29535 60.9432C-0.386193 51.9618 -1.01585 42.0131 1.50381 32.6363C4.02347 23.2596 9.55198 14.9776 17.234 9.07176C24.9159 3.16588 34.3231 -0.034668 44.0001 -0.034668C53.677 -0.034668 63.0842 3.16588 70.7662 9.07176C78.4482 14.9776 83.9767 23.2596 86.4963 32.6363C89.016 42.0131 88.3863 51.9618 84.7048 60.9432C81.0233 69.9246 74.4951 77.438 66.1303 82.321L65.4938 81.2032C79.0901 72.4936 86.5247 60.1258 86.5247 43.7952C86.5765 38.0121 85.4071 32.2836 83.0936 26.9868C80.78 21.69 77.3747 16.9451 73.102 13.0645C68.9225 9.10245 63.9841 6.03429 58.5868 4.04638C53.1896 2.05847 47.446 1.19231 41.7049 1.50048C35.9638 1.80866 30.3451 3.28475 25.1899 5.83911C20.0347 8.39347 15.4506 11.9728 11.7161 16.3597C7.56725 21.0589 4.54067 26.6457 2.86642 32.6951C1.19216 38.7446 0.914313 45.0976 2.05399 51.271C4.22361 64.35 11.34 74.1774 22.5208 81.1597Z" fill="#707070"/>
<path d="M24.6614 68.8209L23.837 69.8805C18.5116 65.67 14.6259 59.8988 12.7202 53.3693C10.8145 46.8398 10.9834 39.8766 13.2036 33.448C15.4237 27.0193 19.5847 21.4447 25.108 17.4993C30.6313 13.5539 37.2423 11.4338 44.0217 11.4338C50.8012 11.4338 57.4122 13.5539 62.9355 17.4993C68.4587 21.4447 72.6197 27.0193 74.8399 33.448C77.06 39.8766 77.229 46.8398 75.3233 53.3693C73.4175 59.8988 69.5318 65.67 64.2065 69.8805L63.3531 68.8354C72.0316 61.4902 76.096 52.2289 75.0257 40.9063C74.6678 36.8135 73.4813 32.8369 71.5389 29.2202C69.5965 25.6035 66.939 22.4227 63.7292 19.8725C60.5286 17.299 56.8542 15.3834 52.916 14.235C48.9777 13.0866 44.8526 12.728 40.7763 13.1795C36.6999 13.6311 32.752 14.884 29.1581 16.8668C25.5642 18.8495 22.3947 21.5233 19.8304 24.7354C17.2661 27.9475 15.3574 31.635 14.2131 35.5874C13.0688 39.5398 12.7115 43.6797 13.1614 47.7707C13.6114 51.8618 14.8598 55.8238 16.8355 59.4306C18.8111 63.0374 21.4753 66.2183 24.6759 68.7918L24.6614 68.8209Z" fill="#707070"/>
<path d="M62.6732 30.6437C62.7162 32.582 62.166 34.487 61.0966 36.1017C60.3966 37.2264 59.3972 38.1323 58.2113 38.7171C57.0253 39.302 55.7001 39.5424 54.3852 39.4114C52.5148 39.3374 50.7353 38.5817 49.3801 37.2857C48.0249 35.9898 47.1869 34.2425 47.023 32.3711C46.5855 30.0172 47.0394 27.5841 48.2958 25.5485C48.9124 24.4914 49.7962 23.6166 50.8579 23.0124C51.9196 22.4083 53.1214 22.0964 54.3419 22.1082C55.44 22.0242 56.5433 22.176 57.5784 22.5535C58.6135 22.931 59.5566 23.5255 60.3449 24.2973C61.1331 25.0692 61.7485 26.0008 62.15 27.03C62.5514 28.0592 62.7298 29.1624 62.6732 30.2662V30.6437ZM58.739 30.2517C58.739 29.5695 58.739 28.8727 58.6088 28.1904C58.5448 26.8432 58.1524 25.5323 57.4661 24.3727C57.2099 23.9392 56.8507 23.5763 56.4205 23.3163C55.9903 23.0564 55.5026 22.9075 55.001 22.8831C54.4994 22.8586 53.9997 22.9593 53.5464 23.1762C53.0931 23.3931 52.7005 23.7194 52.4037 24.1259C51.9037 24.8145 51.5404 25.5932 51.3333 26.4195C50.7505 28.8795 50.6718 31.4328 51.1019 33.9243C51.2247 35.067 51.611 36.1654 52.2301 37.1324C52.5028 37.5504 52.8733 37.8952 53.3092 38.1366C53.7451 38.378 54.2333 38.5087 54.7311 38.5173C55.2289 38.5258 55.7213 38.4121 56.1652 38.1859C56.6092 37.9597 56.9912 37.6279 57.2781 37.2195C57.7025 36.5539 58.029 35.8303 58.2472 35.0711C58.6494 33.4982 58.8151 31.8738 58.739 30.2517Z" fill="#707070"/>
<path d="M40.0079 76.6597L36.1604 72.3049C36.0932 72.2223 36.0528 72.1209 36.0447 72.0146V65.7001L40.0223 70.2436L51.2176 61.8823C51.2176 62.1001 51.2176 62.2307 51.2176 62.3614C51.2176 63.7259 51.2176 65.0904 51.2176 66.4404C51.2094 66.6436 51.133 66.838 51.0006 66.992L40.138 76.5436L40.0079 76.6597Z" fill="#707070"/>
<path d="M44.1158 21.9775V27.5807C43.8699 27.6678 43.7542 27.5807 43.6964 27.2614C43.4767 25.82 42.703 24.5224 41.5412 23.6469C41.1685 23.3515 40.7353 23.1425 40.2728 23.0346C39.8102 22.9267 39.3296 22.9226 38.8653 23.0227C38.5058 23.0972 38.1711 23.2627 37.8932 23.5034C37.6152 23.7442 37.4032 24.0522 37.2771 24.3983C37.1511 24.7443 37.1152 25.117 37.1729 25.4809C37.2307 25.8448 37.3801 26.1878 37.6069 26.4775C37.9467 26.8697 38.3357 27.2161 38.7641 27.5081C39.6319 28.0598 40.5721 28.5243 41.4399 29.0904C42.1805 29.5438 42.8821 30.0585 43.5373 30.6291C44.3115 31.3538 44.8376 32.3057 45.0402 33.3486C45.2428 34.3915 45.1117 35.472 44.6655 36.4356C44.2328 37.4272 43.4873 38.2486 42.5438 38.7732C41.6003 39.2978 40.511 39.4965 39.4439 39.3388C38.6534 39.1951 37.8818 38.9613 37.1441 38.642C36.1316 38.2356 35.8134 38.3081 35.1914 39.2081C35.1073 39.2972 34.9947 39.3537 34.8732 39.3678L34.7141 39.1936C34.7141 37.2049 34.7141 35.2307 34.7141 33.2275C35.0034 33.0969 35.1046 33.2275 35.1914 33.4743C35.3973 34.2564 35.6583 35.0229 35.9725 35.7678C36.4673 36.8691 37.34 37.7552 38.4314 38.2646C39.1342 38.6169 39.9382 38.7094 40.7023 38.5259C41.09 38.4363 41.4499 38.2526 41.7503 37.9909C42.0507 37.7292 42.2825 37.3974 42.4254 37.0247C42.5682 36.6521 42.6176 36.2499 42.5694 35.8536C42.5212 35.4573 42.3767 35.0789 42.1487 34.7517C41.7532 34.2284 41.2623 33.7851 40.7023 33.4452C39.8634 32.8646 38.9376 32.4291 38.0843 31.863C37.3892 31.3723 36.7447 30.8131 36.1605 30.1936C35.323 29.3316 34.8272 28.1929 34.766 26.9905C34.7048 25.7881 35.0823 24.6046 35.8279 23.6614C36.4633 22.8582 37.3492 22.2927 38.3435 22.0558C39.3377 21.8188 40.3824 21.9242 41.3098 22.3549C41.7148 22.5291 42.0908 22.7614 42.4958 22.9356C43.248 23.2694 43.5083 23.1243 43.7253 22.3549C43.7986 22.205 43.8807 22.0596 43.9712 21.9194L44.1158 21.9775Z" fill="#707070"/>
<path d="M25.2978 38.6128C25.593 38.6037 25.8874 38.5795 26.1801 38.5402C26.4719 38.5256 26.7475 38.4008 26.9514 38.1908C27.1553 37.9808 27.2725 37.7011 27.2794 37.408C27.301 37.089 27.301 36.7689 27.2794 36.4499C27.2794 32.5789 27.2794 28.7418 27.2794 24.9386C27.2938 24.6775 27.2938 24.4158 27.2794 24.1547C27.2878 23.974 27.2583 23.7935 27.1927 23.6249C27.1272 23.4563 27.0271 23.3034 26.8989 23.1761C26.7707 23.0489 26.6173 22.95 26.4486 22.8861C26.28 22.8221 26.0998 22.7944 25.9198 22.8047H25.2689C25.1821 22.5289 25.1821 22.3547 25.5437 22.3547H32.7758H32.9349V22.7467C32.6022 22.7467 32.284 22.7467 31.9658 22.8338C31.6976 22.8605 31.4474 22.9815 31.2595 23.1754C31.0716 23.3693 30.958 23.6236 30.9388 23.8934C30.8931 24.2886 30.869 24.686 30.8665 25.0838V36.2902C30.8665 36.508 30.8665 36.7257 30.8665 36.9289C30.8665 38.1193 31.3149 38.5402 32.5154 38.5983C32.9494 38.5983 32.9494 38.5983 32.8915 39.0193H25.6594C25.3991 39.0483 25.1532 39.0483 25.2978 38.6128Z" fill="#707070"/>
<path d="M80.6378 42.4453C81.7949 42.6775 82.952 42.9098 84.1236 43.113C84.4563 43.113 84.6009 43.2872 84.5865 43.6501C84.572 44.013 84.5865 44.6082 84.5865 45.1743L78.6706 45.4646L78.5983 44.2453L82.9376 44.0275L82.6483 43.9259L78.9744 43.2001C78.6706 43.2001 78.5405 43.0404 78.5549 42.7356C78.5765 42.601 78.5765 42.4638 78.5549 42.3291C78.5549 42.0098 78.6417 41.8792 78.9455 41.7921C80.0881 41.4872 81.2163 41.1388 82.359 40.805C82.4991 40.7807 82.6268 40.709 82.7206 40.6017L78.4971 40.805V39.5711L84.4852 39.2808C84.4852 39.934 84.4852 40.5437 84.4852 41.1679C84.4852 41.2404 84.2972 41.3711 84.167 41.4001C83.1545 41.705 82.1276 41.9953 81.1006 42.2711L80.6812 42.4162L80.6378 42.4453Z" fill="#707070"/>
<path d="M8.59163 43.5483L8.46146 42.6047H9.38716V43.0257C9.38716 43.6644 9.38716 44.3031 9.48841 44.9418C9.5752 46.3934 9.04002 47.0467 7.62254 47.1483C6.68405 47.2281 5.74051 47.2281 4.80202 47.1483C4.40557 47.1258 4.03327 46.9498 3.76348 46.6574C3.4937 46.365 3.34748 45.979 3.35561 45.5805C3.33394 45.3197 3.33394 45.0575 3.35561 44.7967C3.35261 44.4422 3.47893 44.099 3.71073 43.8316C3.94254 43.5642 4.26382 43.3911 4.61399 43.3451C5.57368 43.2295 6.541 43.1907 7.50682 43.2289C7.8841 43.2716 8.25115 43.3797 8.59163 43.5483ZM6.56665 44.3322C6.01701 44.3322 5.45291 44.4193 4.90327 44.5063C4.81381 44.5098 4.72602 44.5317 4.64538 44.5707C4.56475 44.6097 4.493 44.665 4.43462 44.7332C4.37625 44.8013 4.33251 44.8808 4.30613 44.9666C4.27975 45.0525 4.2713 45.1429 4.28131 45.2322C4.27731 45.3159 4.29055 45.3995 4.3202 45.4778C4.34985 45.5562 4.39527 45.6276 4.45364 45.6875C4.512 45.7474 4.58205 45.7947 4.65942 45.8262C4.73678 45.8578 4.81979 45.873 4.90327 45.8709C5.94469 45.8709 6.97165 45.8709 7.9986 45.8709C8.09642 45.8793 8.19486 45.8649 8.28621 45.8288C8.37756 45.7927 8.45935 45.7359 8.52519 45.6628C8.59102 45.5897 8.63911 45.5023 8.66569 45.4074C8.69227 45.3126 8.69663 45.2128 8.67842 45.116C8.67846 44.9376 8.60883 44.7662 8.48445 44.6387C8.36007 44.5111 8.19085 44.4376 8.01307 44.4338C7.49236 44.3757 7.04397 44.3757 6.56665 44.3467V44.3322Z" fill="#707070"/>
<path d="M66.3906 17.6951L70.6431 13.2241C71.2072 13.8628 71.7713 14.4435 72.292 15.0532C72.5312 15.2876 72.682 15.5979 72.719 15.9314C72.7559 16.2648 72.6766 16.6008 72.4945 16.8822C71.9241 17.8941 71.1268 18.7588 70.1658 19.408C69.8549 19.642 69.4707 19.7561 69.083 19.7294C68.6953 19.7028 68.3301 19.5372 68.054 19.2628C67.4899 18.7838 66.9692 18.2467 66.3906 17.6951ZM67.9817 17.8548C68.676 18.7257 69.052 18.7838 69.8331 18.0725C70.2683 17.6721 70.6789 17.2455 71.0626 16.7951C71.7568 15.9677 71.699 15.5903 70.8022 14.908L67.9817 17.8548Z" fill="#707070"/>
<path d="M79.6253 34.1564L77.2677 34.8386L76.9495 33.6338L82.7351 32.0806C82.9521 32.9515 83.198 33.7935 83.3716 34.6354C83.4141 34.9105 83.3593 35.1918 83.2166 35.4305C83.0739 35.6692 82.8523 35.8501 82.5905 35.9419C82.3189 36.1196 81.9989 36.208 81.6749 36.195C81.351 36.182 81.0391 36.0682 80.7825 35.8693C80.6957 35.7967 80.6234 35.6951 80.4787 35.5499C80.4787 36.4354 79.958 36.6822 79.2782 36.8564C78.8298 36.9725 78.3814 37.1467 77.8318 37.3064C77.7563 36.9716 77.7032 36.6321 77.6727 36.2902C77.6792 36.2155 77.7036 36.1434 77.7439 36.0802C77.7842 36.017 77.8392 35.9646 77.9041 35.9273C78.2512 35.7967 78.6273 35.7096 78.9889 35.5935C79.8278 35.3467 79.9725 35.0128 79.6253 34.1564ZM80.5655 33.9096C80.6957 34.287 80.6523 34.7951 81.1296 34.8386C81.5024 34.8673 81.874 34.7702 82.1855 34.5628C82.5326 34.2725 82.2723 33.866 82.1855 33.4886L80.5655 33.9096Z" fill="#707070"/>
<path d="M58.5944 6.15479L60.6628 7.05479C60.9815 7.15253 61.2501 7.37052 61.4119 7.66291C61.5738 7.9553 61.6163 8.29929 61.5306 8.62253C61.386 9.29027 60.9665 10.0741 60.0842 10.0741H59.9396C60.6194 10.5677 60.4748 11.1628 60.1999 11.787C59.9251 12.4112 59.8528 12.687 59.6792 13.1661L59.2019 13.0645C58.4932 12.7596 58.4787 12.7306 58.7824 11.9903C58.8692 11.8161 58.9416 11.6274 59.0283 11.4532C59.3755 10.6112 59.2598 10.3209 58.3341 10.0016L57.3505 12.2516L56.1934 11.6129L58.5944 6.15479ZM58.7246 9.05801C59.1007 9.2322 59.4623 9.53704 59.7949 9.20317C60.0553 8.93999 60.2053 8.5868 60.2144 8.21608C60.2144 7.94027 59.7515 7.72253 59.4333 7.41769L58.7246 9.05801Z" fill="#707070"/>
<path d="M51.1886 4.05005L52.4181 4.35489L51.637 7.75166C51.637 8.04198 51.5068 8.31779 51.449 8.60811C51.3622 9.14521 51.5502 9.4936 51.9986 9.60973C52.1025 9.63992 52.2116 9.64728 52.3186 9.6313C52.4256 9.61532 52.5278 9.57638 52.6184 9.51714C52.7091 9.45789 52.7859 9.37974 52.8436 9.288C52.9014 9.19626 52.9388 9.09309 52.9533 8.98553C53.2425 7.80973 53.5029 6.63392 53.7777 5.45811L53.9658 4.70327L55.1807 4.9936C55.0795 5.40005 54.9927 5.8065 54.8915 6.19844C54.6745 7.17102 54.4575 8.15811 54.2261 9.10166C54.1965 9.33004 54.1209 9.54998 54.0039 9.74812C53.887 9.94625 53.7311 10.1184 53.5457 10.2542C53.3603 10.39 53.1494 10.4865 52.9257 10.5379C52.702 10.5894 52.4703 10.5946 52.2445 10.5533C51.8357 10.4861 51.4402 10.3537 51.0729 10.1613C50.7951 10.0409 50.562 9.83604 50.4063 9.57564C50.2506 9.31523 50.1803 9.01238 50.2051 8.70973C50.4799 7.12747 50.8415 5.61779 51.1886 4.05005Z" fill="#707070"/>
<path d="M4.12222 36.7549L4.33918 35.521C5.7856 35.7678 7.3188 35.9855 8.77968 36.2758C9.10637 36.3372 9.40434 36.5035 9.6287 36.7496C9.85306 36.9957 9.99165 37.3083 10.0236 37.6404C10.1377 38.2926 10.009 38.9642 9.66199 39.5274C9.51577 39.8142 9.27865 40.044 8.98798 40.1807C8.69731 40.3173 8.36961 40.3531 8.05647 40.2823C6.61005 40.0645 5.23596 39.8178 3.83293 39.5855L3.67383 39.5129L3.86186 38.3226L6.07488 38.6855C6.81255 38.8016 7.5213 38.9468 8.33129 38.9904C8.46704 38.9876 8.60031 38.9533 8.72073 38.8904C8.84115 38.8275 8.94547 38.7375 9.02557 38.6274C9.08572 38.503 9.11697 38.3665 9.11697 38.2283C9.11697 38.09 9.08572 37.9535 9.02557 37.8291C8.84721 37.6256 8.59966 37.4962 8.33129 37.4662C7.59362 37.3065 6.88487 37.2049 6.08934 37.0742L4.12222 36.7549Z" fill="#707070"/>
<path d="M32.1683 5.22583L35.5819 10.4371L34.338 10.8581C34.1623 10.544 33.9641 10.2432 33.7449 9.95809C33.7449 9.85648 33.4701 9.82744 33.3255 9.79841C33.1808 9.76938 33.2098 9.79841 33.1519 9.79841C32.7903 9.91454 32.2985 9.94357 32.1105 10.2049C31.9224 10.4662 32.1105 10.9162 32.0382 11.2936C32.0231 11.3654 31.9935 11.4334 31.9512 11.4933C31.9089 11.5533 31.8548 11.6038 31.7923 11.642C31.5049 11.7581 31.2101 11.8551 30.91 11.9323C30.91 11.7436 30.91 11.5839 30.91 11.4242C30.91 9.62422 30.7653 7.82422 30.6641 6.02422C30.6641 5.79196 30.6641 5.66131 30.9533 5.60325L32.1683 5.22583ZM31.8212 6.75002H31.7344L31.9948 9.23228L33.1085 8.85486L31.8212 6.75002Z" fill="#707070"/>
<path d="M10.6311 30.9338C10.6311 31.137 10.5009 31.2822 10.443 31.4128C10.3273 31.7757 10.0525 32.1822 10.1248 32.487C10.1971 32.7918 10.6745 32.9225 10.9348 33.1693C10.9861 33.2194 11.0247 33.2812 11.0474 33.3494C11.07 33.4175 11.0761 33.4902 11.065 33.5612C10.9704 33.8718 10.8594 34.1771 10.7323 34.4757L5.68433 30.8322C5.8579 30.3676 6.00254 29.9176 6.19057 29.4967C6.22641 29.4391 6.27516 29.3908 6.33292 29.3555C6.39068 29.3202 6.45585 29.299 6.52325 29.2935C8.47591 29.4531 10.4286 29.6418 12.4391 29.8306C12.3288 30.1861 12.1984 30.5351 12.0486 30.8757C12.0486 30.9628 11.8171 31.0209 11.687 31.0209C11.3398 31.0209 10.9927 30.9628 10.6311 30.9338ZM7.23199 30.4838V30.5854L9.25698 31.9354L9.66197 30.8176L7.23199 30.4838Z" fill="#707070"/>
<path d="M38.4746 8.05637C38.4975 8.21627 38.5413 8.37244 38.6048 8.52089C38.7639 8.69508 38.9519 8.95637 39.1399 8.97089C39.2634 8.98129 39.3875 8.96315 39.5029 8.91785C39.6182 8.87255 39.7217 8.80131 39.8053 8.7096C39.8454 8.58415 39.8572 8.45128 39.8397 8.3207C39.8221 8.19011 39.7758 8.06509 39.704 7.95476C39.5335 7.73627 39.3092 7.56616 39.0531 7.46121C38.6337 7.22895 38.1708 7.06928 37.7514 6.80799C37.4559 6.6271 37.2252 6.35675 37.0927 6.03587C36.9601 5.71499 36.9324 5.36016 37.0137 5.0225C37.0634 4.71615 37.2096 4.43384 37.4308 4.21699C37.6521 4.00015 37.9368 3.86019 38.2432 3.81766C38.5504 3.73768 38.8659 3.69383 39.1833 3.68702C39.3834 3.68638 39.5815 3.7274 39.7649 3.8075C39.9484 3.88761 40.1133 4.00504 40.2493 4.15239C40.3852 4.29973 40.4892 4.47378 40.5547 4.66353C40.6202 4.85328 40.6458 5.0546 40.6297 5.25476H40.4706L39.4871 5.37089C39.4871 5.24024 39.4871 5.1096 39.3714 5.03702C39.2556 4.96444 39.0676 4.61605 38.8796 4.58702C38.7724 4.57693 38.6645 4.59428 38.5658 4.63743C38.4672 4.68059 38.381 4.74815 38.3155 4.83379C38.2656 4.94568 38.2398 5.06687 38.2398 5.18944C38.2398 5.31201 38.2656 5.4332 38.3155 5.54508C38.4689 5.74971 38.6735 5.90996 38.9085 6.0096C39.299 6.19831 39.704 6.32895 40.0801 6.51766C40.4119 6.6658 40.6886 6.91547 40.8704 7.23096C41.0523 7.54645 41.13 7.91158 41.0926 8.27412C41.1073 8.56614 41.0262 8.85494 40.8615 9.09619C40.6969 9.33744 40.458 9.51781 40.1814 9.6096C39.8432 9.7428 39.4875 9.82593 39.1255 9.85637C37.8815 9.98702 37.3319 9.50799 37.2162 8.15799L38.4746 8.05637Z" fill="#707070"/>
<path d="M47.5293 5.29847H46.4011C46.4192 5.18792 46.4192 5.07515 46.4011 4.9646C46.2709 4.76137 46.1552 4.50008 45.9527 4.41298C45.8482 4.39062 45.7397 4.39629 45.6382 4.42942C45.5366 4.46255 45.4455 4.52197 45.3741 4.60169C45.324 4.72116 45.2982 4.84948 45.2982 4.97911C45.2982 5.10874 45.324 5.23706 45.3741 5.35653C45.5225 5.58233 45.7204 5.77103 45.9527 5.90815C46.2998 6.15492 46.6759 6.35814 47.0086 6.61944C47.3081 6.85193 47.5229 7.17706 47.6196 7.54447C47.7164 7.91187 47.6897 8.30104 47.5437 8.65169C47.4509 8.96027 47.2583 9.22906 46.9964 9.41567C46.7346 9.60228 46.4182 9.6961 46.0973 9.68234C45.7514 9.7243 45.4018 9.7243 45.0559 9.68234C44.846 9.64965 44.6459 9.57097 44.4697 9.4519C44.2935 9.33282 44.1457 9.17626 44.0366 8.99335C43.9275 8.81044 43.8599 8.60567 43.8386 8.39358C43.8173 8.18149 43.8428 7.9673 43.9132 7.76621H44.8389C44.8389 7.95492 44.8389 8.1146 44.8389 8.27427C44.8389 8.43395 45.027 8.82589 45.3452 8.82589C45.6634 8.82589 45.9238 8.82589 46.0105 8.59363C46.0639 8.4699 46.0914 8.33651 46.0914 8.20169C46.0914 8.06688 46.0639 7.93349 46.0105 7.80976C45.8456 7.56981 45.6278 7.37114 45.3741 7.22911C45.0414 6.96782 44.6654 6.7646 44.3472 6.47427C44.0501 6.21848 43.8524 5.86572 43.7889 5.47806C43.7254 5.09041 43.8001 4.6927 44 4.35492C44.1057 4.05988 44.3037 3.80711 44.5644 3.63441C44.8252 3.46172 45.1346 3.37837 45.4464 3.39685C45.8102 3.38311 46.1743 3.41234 46.5312 3.48395C46.7259 3.51913 46.9104 3.59743 47.0711 3.71315C47.2318 3.82887 47.3648 3.9791 47.4604 4.15291C47.556 4.32671 47.6118 4.51972 47.6237 4.71789C47.6356 4.91605 47.6034 5.11439 47.5293 5.29847Z" fill="#707070"/>
<path d="M61.7476 14.371L65.0888 9.34839L67.8225 11.1629L67.3018 11.9323L65.624 10.829L64.814 12.0484L66.3327 13.0645L65.8265 13.8339L64.2643 12.8177L63.3097 14.2694L65.0454 15.4306L64.5247 16.2L61.7476 14.371Z" fill="#707070"/>
<path d="M19.2085 11.9177C20.2644 11.0902 20.2644 11.0902 21.2913 11.8451L22.4774 12.7015C22.3328 12.0918 22.217 11.5983 22.0869 11.1047C21.812 9.97249 21.812 9.97249 22.8969 9.39185L23.2874 11.3225C23.3768 12.0356 23.5268 12.7398 23.7358 13.4273C24.0656 14.0754 24.4529 14.6924 24.8929 15.2709L23.8804 15.9822C23.6635 15.6628 23.432 15.3725 23.244 15.0386C22.9192 14.5048 22.4668 14.0607 21.9278 13.7467C21.0165 13.166 20.1342 12.5418 19.2085 11.9177Z" fill="#707070"/>
<path d="M79.7409 24.8661L78.9598 25.3452L77.9907 23.7484L76.6889 24.5323L77.5857 26.1291L76.8046 26.6081L75.8789 25.0839L73.637 26.4194L72.9861 25.3452L78.1064 22.1807L79.7409 24.8661Z" fill="#707070"/>
<path d="M15.8239 16.2581L15.0428 17.1871L14.3196 16.5629L17.0678 13.6597L17.7765 14.371L16.7785 15.2855L20.2499 18.871L19.4833 19.7419L15.8239 16.2581Z" fill="#707070"/>
<path d="M8.25903 24.9098L8.89546 23.821L13.2347 26.3323L14.1604 24.6775L15.0283 25.1856L13.4517 27.9291L8.25903 24.9098Z" fill="#707070"/>
<path d="M11.5713 19.7855L12.3524 18.7839L17.0966 22.471L16.33 23.4726L11.5713 19.7855Z" fill="#707070"/>
<path d="M80.9994 27.5806L81.5056 28.7419L75.9948 31.1225L75.4885 29.9612L80.9994 27.5806Z" fill="#707070"/>
<path d="M24.7481 58.4275C24.7481 58.5581 24.5745 58.6162 24.2274 58.6162H23.7501C23.562 58.6162 22.8388 58.6162 21.5515 58.6162H18.1814C17.8487 58.6162 17.6751 58.5436 17.6751 58.3985C17.6702 58.3641 17.6777 58.3291 17.6962 58.2998C17.7148 58.2705 17.7432 58.2488 17.7764 58.2388C18.0316 58.2222 18.2877 58.2222 18.543 58.2388C19.136 58.2388 19.4831 58.1372 19.6133 57.9775C19.713 57.7802 19.7579 57.5596 19.7435 57.3388V48.4694C19.7435 46.5823 19.7435 45.5662 19.7435 45.4065C19.7435 45.2469 19.5121 45.0146 19.1794 45.0146H18.1814C17.8342 45.0146 17.6606 45.0146 17.6606 44.8259C17.6606 44.6372 17.8776 44.6662 18.326 44.6081C19.3624 44.5409 20.3616 44.1949 21.2188 43.6065L21.9276 43.0694L22.6942 42.5178V42.8662V57.2807C22.6942 57.9194 22.969 58.2243 23.4897 58.2098C24.3286 58.1807 24.7481 58.2533 24.7481 58.4275Z" fill="#707070"/>
<path d="M37.6069 56.758C37.6069 56.9322 37.5635 57.0193 37.4767 57.0193C37.452 57.0213 37.4271 57.0183 37.4036 57.0106C37.38 57.0029 37.3582 56.9906 37.3394 56.9744C37.3205 56.9582 37.3051 56.9385 37.2939 56.9163C37.2827 56.8941 37.276 56.8699 37.2742 56.8451C37.2245 56.5231 37.1955 56.1982 37.1874 55.8725C37.1994 55.6144 37.155 55.3567 37.0572 55.1177C36.9205 54.973 36.7347 54.885 36.5365 54.8709H35.3505V57.237C35.3505 57.7306 35.3505 58.0209 35.553 58.108C35.9895 58.2355 36.444 58.2895 36.8981 58.2677C37.2163 58.2677 37.3755 58.3402 37.3755 58.4854C37.3755 58.6306 37.0428 58.6886 36.3774 58.6596C33.8317 58.6596 32.1684 58.6596 31.4018 58.6596H30.6062C30.3603 58.6596 30.2446 58.6596 30.2446 58.4709C30.2446 58.2822 30.4327 58.2386 30.8376 58.2386C31.6669 58.2386 32.1491 58.166 32.2841 58.0209C32.4042 57.7783 32.4543 57.5067 32.4287 57.237V54.8709H30.3748C28.7548 54.8709 27.7712 54.8709 27.482 54.8709C27.1927 54.8709 27.0625 54.7838 27.0625 54.6531C27.1034 54.4261 27.1976 54.2121 27.3373 54.029C27.6121 53.637 28.263 52.5773 29.3189 51.0096C30.3748 49.4419 31.8212 47.3225 33.4846 44.8548L34.5983 43.258C34.8732 42.837 35.0612 42.6338 35.1769 42.6338C35.2926 42.6338 35.3505 42.8225 35.3505 43.2144V54.2322C35.8703 54.2452 36.3898 54.1965 36.8981 54.087C36.9546 54.0556 37.0034 54.0119 37.0409 53.9592C37.0785 53.9065 37.1038 53.846 37.1151 53.7822C37.1383 53.439 37.1383 53.0947 37.1151 52.7515C37.1151 52.1709 37.1874 51.8951 37.3176 51.8951C37.4478 51.8951 37.4622 51.9967 37.4767 52.2144C37.4912 52.4322 37.4767 53.158 37.4767 54.3919C37.4767 55.6257 37.4767 56.1338 37.4767 56.2935C37.5354 56.4436 37.579 56.5992 37.6069 56.758ZM32.6023 47.1483C32.2551 47.5693 31.691 48.4112 30.8955 49.6451C30.5773 50.1386 30.1289 50.8354 29.5359 51.7209C28.9428 52.6064 28.3064 53.608 27.9882 54.1306C28.8416 54.2031 29.8541 54.2322 31.0257 54.2322H32.4721C32.4576 51.2128 32.5155 48.8467 32.6023 47.1483Z" fill="#707070"/>
<path d="M49.0336 50.908C49.1182 52.9428 48.616 54.959 47.5872 56.7144C47.242 57.3771 46.7255 57.9344 46.0918 58.3277C45.4581 58.7211 44.7306 58.936 43.9856 58.9499C43.2145 58.9215 42.4649 58.6873 41.8141 58.2714C41.1632 57.8555 40.6346 57.273 40.2828 56.5838C39.211 54.8543 38.6819 52.8414 38.764 50.8064C38.6833 49.5611 38.8488 48.3121 39.2509 47.1312C39.6531 45.9503 40.2839 44.8609 41.1072 43.9257C41.4748 43.5242 41.9221 43.2043 42.4204 42.9868C42.9186 42.7693 43.4567 42.6589 44.0001 42.6628C44.9534 42.6441 45.8766 42.998 46.5747 43.6499C47.408 44.4896 48.0238 45.5212 48.3682 46.6548C48.8258 48.0251 49.0507 49.4628 49.0336 50.908ZM45.7358 50.5015C45.8727 48.3 45.6628 46.0906 45.1138 43.9548C45.0415 43.7031 44.8894 43.4819 44.6806 43.3247C44.4718 43.1676 44.2177 43.083 43.9567 43.0838C43.2768 43.0838 42.7995 43.6499 42.5102 44.7677C42.1513 46.544 41.996 48.3558 42.0474 50.1677C42.0474 53.9564 42.3367 56.4241 42.9297 57.5854C43.219 58.1806 43.5806 58.4709 44.029 58.4709C44.6943 58.4709 45.1427 57.9048 45.3597 56.7725C45.6673 54.6972 45.7932 52.5989 45.7358 50.5015Z" fill="#707070"/>
<path d="M60.4603 50.908C60.545 52.9428 60.0428 54.959 59.0139 56.7144C58.6675 57.3761 58.1507 57.9326 57.5173 58.3257C56.8839 58.7189 56.157 58.9344 55.4123 58.9499C54.6406 58.9167 53.891 58.6806 53.2386 58.2654C52.5863 57.8502 52.054 57.2703 51.6951 56.5838C50.6284 54.8526 50.1043 52.8399 50.1908 50.8064C50.1101 49.5611 50.2756 48.3121 50.6777 47.1312C51.0798 45.9503 51.7107 44.8609 52.534 43.9257C52.9004 43.5227 53.3475 43.2019 53.846 42.9843C54.3445 42.7667 54.8832 42.6571 55.4268 42.6628C56.3801 42.6441 57.3034 42.998 58.0014 43.6499C58.8323 44.4889 59.4435 45.5212 59.7805 46.6548C60.243 48.0243 60.4728 49.462 60.4603 50.908ZM57.1625 50.5015C57.2995 48.3 57.0896 46.0906 56.5406 43.9548C56.4682 43.7031 56.3162 43.4819 56.1074 43.3247C55.8986 43.1676 55.6444 43.083 55.3834 43.0838C54.7036 43.0838 54.2263 43.6499 53.937 44.7677C53.5853 46.5447 53.4445 48.3574 53.5175 50.1677C53.5175 53.9564 53.8068 56.4241 54.3999 57.5854C54.6891 58.1806 55.0507 58.4709 55.4991 58.4709C55.9475 58.4709 56.5984 57.9048 56.8298 56.7725C57.123 54.6959 57.2343 52.5976 57.1625 50.5015Z" fill="#707070"/>
<path d="M70.4405 58.4275C70.4405 58.5581 70.2669 58.6162 69.9198 58.6162H69.428C69.2399 58.6162 68.5167 58.6162 67.2294 58.6162H63.8737C63.5411 58.6162 63.3675 58.5436 63.3675 58.3985C63.3626 58.3641 63.37 58.3291 63.3886 58.2998C63.4072 58.2705 63.4356 58.2488 63.4687 58.2388C63.724 58.2222 63.9801 58.2222 64.2353 58.2388C64.8284 58.2388 65.1755 58.1372 65.3057 57.9775C65.4054 57.7802 65.4503 57.5596 65.4359 57.3388V48.4694C65.4359 46.5823 65.4359 45.5662 65.4359 45.4065C65.4359 45.2469 65.2044 45.0146 64.8718 45.0146H63.8737C63.5266 45.0146 63.353 45.0146 63.353 44.8259C63.353 44.6372 63.57 44.6662 64.0184 44.6081C65.0548 44.5409 66.054 44.1949 66.9112 43.6065L67.6344 43.0694L68.3866 42.5178V42.8662V57.2807C68.3866 57.9194 68.6758 58.2243 69.1821 58.2098C70.021 58.1807 70.4405 58.2533 70.4405 58.4275Z" fill="#707070"/>
<path d="M33.3977 78.1838H36.9704V85.108C36.9741 85.784 36.8666 86.4559 36.6521 87.0967C36.4393 87.699 36.0931 88.245 35.6397 88.6935C35.2367 89.1195 34.7419 89.4472 34.1932 89.6516C33.3886 89.9289 32.5415 90.0616 31.6909 90.0435C31.077 90.0378 30.4638 89.9991 29.854 89.9274C29.2698 89.8742 28.7007 89.7117 28.1761 89.4484C27.7061 89.1967 27.2887 88.8567 26.9467 88.4467C26.6006 88.0605 26.3394 87.6055 26.1801 87.1113C25.9782 86.4769 25.8662 85.8172 25.8474 85.1516V78.1838H29.4201V85.2677C29.4064 85.5335 29.4468 85.7992 29.5388 86.0488C29.6308 86.2984 29.7725 86.5265 29.9552 86.7193C30.1453 86.9056 30.3723 87.0497 30.6215 87.1422C30.8707 87.2348 31.1365 87.2737 31.4017 87.2564C31.9337 87.2814 32.4539 87.0934 32.8481 86.7338C33.205 86.3375 33.3921 85.816 33.3688 85.2822L33.3977 78.1838Z" fill="#707070"/>
<path d="M47.052 85.0501L50.1907 85.9937C50.0079 86.7956 49.6633 87.5515 49.1782 88.2146C48.7349 88.7954 48.1528 89.2547 47.4859 89.5501C46.6738 89.8798 45.8012 90.0332 44.9258 90.0001C43.8715 90.0364 42.8216 89.8484 41.8449 89.4485C40.9821 89.0218 40.263 88.3505 39.7765 87.5179C39.1598 86.4378 38.859 85.2052 38.9087 83.9614C38.8659 83.1542 38.9846 82.3466 39.2579 81.5861C39.5311 80.8257 39.9534 80.128 40.4997 79.534C41.0785 78.9906 41.7622 78.5724 42.5087 78.3052C43.2551 78.038 44.0483 77.9276 44.839 77.9808C46.0458 77.9093 47.2446 78.2189 48.267 78.8662C49.1695 79.5468 49.8249 80.5054 50.1329 81.5953L46.9797 82.3066C46.9033 82.0295 46.7863 81.7653 46.6325 81.5227C46.437 81.2574 46.185 81.0392 45.8949 80.884C45.5929 80.7372 45.2612 80.6626 44.9258 80.6662C44.5556 80.6507 44.1879 80.7339 43.8602 80.9073C43.5324 81.0806 43.2563 81.3381 43.0599 81.6533C42.6785 82.3488 42.5076 83.1408 42.5681 83.9324C42.4735 84.8571 42.6762 85.788 43.1467 86.5888C43.3478 86.8275 43.6015 87.0159 43.8877 87.1394C44.1738 87.2628 44.4846 87.3178 44.7956 87.3001C45.0801 87.3218 45.3659 87.281 45.6331 87.1808C45.9004 87.0805 46.1427 86.9231 46.3433 86.7195C46.7188 86.2335 46.9629 85.6585 47.052 85.0501Z" fill="#707070"/>
<path d="M59.6357 85.0501L62.7745 85.9937C62.596 86.7945 62.2564 87.5503 61.7764 88.2146C61.3331 88.7954 60.751 89.2547 60.0841 89.5501C59.272 89.8798 58.3994 90.0332 57.524 90.0001C56.4697 90.0364 55.4198 89.8484 54.4431 89.4485C53.5803 89.0218 52.8612 88.3505 52.3747 87.5179C51.758 86.4378 51.4572 85.2052 51.5069 83.9614C51.453 83.1579 51.561 82.3518 51.8245 81.5911C52.0879 80.8304 52.5013 80.1308 53.0401 79.534C53.6188 78.9906 54.3026 78.5724 55.049 78.3052C55.7954 78.038 56.5886 77.9276 57.3793 77.9808C58.5905 77.9111 59.7933 78.2205 60.8218 78.8662C61.7158 79.552 62.3652 80.5092 62.6732 81.5953L59.52 82.3066C59.4436 82.0295 59.3266 81.7653 59.1729 81.5227C58.9773 81.2574 58.7253 81.0392 58.4352 80.884C57.942 80.6385 57.3768 80.5812 56.8446 80.7228C56.3125 80.8643 55.8497 81.195 55.5424 81.6533C55.161 82.3488 54.9901 83.1408 55.0506 83.9324C54.956 84.8571 55.1587 85.788 55.6292 86.5888C55.8303 86.8275 56.084 87.0159 56.3701 87.1394C56.6563 87.2628 56.9671 87.3178 57.2781 87.3001C57.5626 87.3218 57.8483 87.281 58.1156 87.1808C58.3828 87.0805 58.6252 86.9231 58.8257 86.7195C59.2431 86.248 59.5233 85.6705 59.6357 85.0501Z" fill="#707070"/>
</g>
<defs>
<clipPath id="clip0_272_21766">
<rect width="88" height="90" fill="white"/>
</clipPath>
</defs>
</svg>
