<svg width="90" height="90" viewBox="0 0 90 90" fill="none" xmlns="http://www.w3.org/2000/svg">
<g clip-path="url(#clip0_272_21799)">
<path d="M23.4435 81.1597L22.7903 82.321C14.3955 77.438 7.8438 69.9246 4.14903 60.9432C0.454268 51.9618 -0.177647 42.0131 2.35106 32.6363C4.87977 23.2596 10.4281 14.9776 18.1377 9.07176C25.8473 3.16588 35.2883 -0.034668 45 -0.034668C54.7117 -0.034668 64.1527 3.16588 71.8623 9.07176C79.5718 14.9776 85.1202 23.2596 87.6489 32.6363C90.1776 42.0131 89.5457 51.9618 85.851 60.9432C82.1562 69.9246 75.6045 77.438 67.2097 82.321L66.571 81.2032C80.2161 72.4936 87.6774 60.1258 87.6774 43.7952C87.7294 38.0121 86.5558 32.2836 84.2339 26.9868C81.912 21.69 78.4945 16.9451 74.2064 13.0645C70.0119 9.10245 65.0558 6.03429 59.6392 4.04638C54.2225 2.05847 48.4583 1.19231 42.6966 1.50048C36.9349 1.80866 31.2959 3.28475 26.1222 5.83911C20.9485 8.39347 16.3479 11.9728 12.6 16.3597C8.43349 21.0572 5.39424 26.6438 3.71383 32.6938C2.03341 38.7438 1.75616 45.0976 2.90321 51.271C5.08063 64.35 12.2226 74.1774 23.4435 81.1597Z" fill="#707070"/>
<path d="M25.5919 68.8209L24.7645 69.8805C19.42 65.67 15.5203 59.8988 13.6077 53.3693C11.6952 46.8398 11.8647 39.8766 14.0929 33.448C16.321 27.0193 20.4969 21.4447 26.04 17.4993C31.5831 13.5539 38.2179 11.4338 45.0217 11.4338C51.8255 11.4338 58.4603 13.5539 64.0034 17.4993C69.5465 21.4447 73.7224 27.0193 75.9506 33.448C78.1787 39.8766 78.3483 46.8398 76.4357 53.3693C74.5231 59.8988 70.6235 65.67 65.279 69.8805L64.4225 68.8354C73.1322 61.4902 77.2112 52.2289 76.137 40.9063C75.7779 36.8135 74.5871 32.8369 72.6377 29.2202C70.6884 25.6035 68.0213 22.4227 64.7999 19.8725C58.3128 14.6751 50.0268 12.2676 41.7646 13.1795C33.5024 14.0915 25.9409 18.2483 20.7435 24.7354C15.5461 31.2225 13.1386 39.5086 14.0505 47.7707C14.9625 56.0329 19.1193 63.5944 25.6064 68.7918L25.5919 68.8209Z" fill="#707070"/>
<path d="M63.7404 30.6437C63.7836 32.582 63.2313 34.487 62.1581 36.1017C61.4556 37.2264 60.4526 38.1323 59.2624 38.7171C58.0722 39.302 56.7423 39.5424 55.4226 39.4114C53.5455 39.3374 51.7596 38.5817 50.3996 37.2857C49.0395 35.9898 48.1984 34.2425 48.0339 32.3711C47.6077 30.0117 48.0789 27.5783 49.3549 25.5485C49.9737 24.4914 50.8607 23.6166 51.9262 23.0124C52.9917 22.4083 54.1978 22.0964 55.4226 22.1082C56.5247 22.0242 57.632 22.176 58.6708 22.5535C59.7097 22.931 60.6561 23.5255 61.4472 24.2973C62.2383 25.0692 62.8559 26.0008 63.2588 27.03C63.6617 28.0592 63.8407 29.1624 63.7839 30.2662L63.7404 30.6437ZM59.792 30.2517C59.792 29.5695 59.792 28.8727 59.6613 28.1904C59.5971 26.8432 59.2033 25.5323 58.5146 24.3727C58.2575 23.9392 57.8969 23.5763 57.4652 23.3163C57.0334 23.0564 56.544 22.9075 56.0406 22.8831C55.5372 22.8586 55.0357 22.9593 54.5808 23.1762C54.1259 23.3931 53.7318 23.7194 53.4339 24.1259C52.9322 24.8145 52.5675 25.5932 52.3597 26.4195C51.7748 28.8795 51.6958 31.4328 52.1275 33.9243C52.2507 35.067 52.6384 36.1654 53.2597 37.1324C53.5334 37.5504 53.9052 37.8952 54.3427 38.1366C54.7802 38.378 55.2701 38.5087 55.7697 38.5173C56.2693 38.5258 56.7635 38.4121 57.209 38.1859C57.6546 37.9597 58.038 37.6279 58.3259 37.2195C58.7519 36.5539 59.0794 35.8303 59.2984 35.0711C59.7021 33.4982 59.8684 31.8738 59.792 30.2517Z" fill="#707070"/>
<path d="M40.9935 76.6597L37.1322 72.3049C37.0589 72.2258 37.0175 72.1224 37.0161 72.0146V65.7001L41.008 70.2436L52.2581 61.8823C52.2581 62.1001 52.2581 62.2307 52.2581 62.3614C52.2581 63.7259 52.2581 65.0904 52.2581 66.4404C52.2499 66.6436 52.1731 66.838 52.0403 66.992L41.1387 76.5436L40.9935 76.6597Z" fill="#707070"/>
<path d="M45.1161 21.9775V27.5807C44.8693 27.6678 44.7532 27.5807 44.6951 27.2614C44.4746 25.82 43.6982 24.5224 42.5322 23.6469C42.1576 23.3524 41.7229 23.1439 41.2589 23.0361C40.7948 22.9282 40.3127 22.9236 39.8467 23.0227C39.4719 23.0884 39.121 23.252 38.8296 23.4967C38.5381 23.7414 38.3164 24.0587 38.1868 24.4166C38.0572 24.7744 38.0244 25.1601 38.0915 25.5347C38.1587 25.9093 38.3235 26.2596 38.5693 26.5501C38.9103 26.9423 39.3007 27.2887 39.7306 27.5807C40.6016 28.1324 41.5451 28.5969 42.4161 29.163C43.1593 29.6164 43.8634 30.1311 44.5209 30.7017C45.2979 31.4264 45.8259 32.3783 46.0292 33.4212C46.2326 34.4641 46.101 35.5446 45.6532 36.5082C45.219 37.4998 44.4708 38.3212 43.5239 38.8458C42.577 39.3704 41.4838 39.5691 40.4128 39.4114C39.6195 39.2677 38.8451 39.0339 38.1048 38.7146C37.0886 38.3082 36.7693 38.3807 36.1451 39.2807C36.0607 39.3698 35.9476 39.4263 35.8257 39.4404C35.8257 39.4404 35.6661 39.2807 35.6661 39.1791C35.6661 37.1904 35.6661 35.2162 35.6661 33.213C35.9564 33.0824 36.058 33.213 36.1451 33.4598C36.3517 34.2419 36.6136 35.0084 36.929 35.7533C37.4255 36.8546 38.3014 37.7407 39.3967 38.2501C40.102 38.6024 40.909 38.6949 41.6757 38.5114C42.0648 38.4219 42.426 38.2381 42.7275 37.9764C43.029 37.7147 43.2617 37.3829 43.405 37.0102C43.5483 36.6376 43.598 36.2354 43.5496 35.8391C43.5012 35.4428 43.3562 35.0644 43.1274 34.7372C42.7304 34.2139 42.2378 33.7706 41.6757 33.4307C40.8338 32.8501 39.9048 32.4146 39.0483 31.8485C38.2972 31.3803 37.5966 30.8355 36.958 30.2227C36.1175 29.3607 35.6199 28.2219 35.5585 27.0196C35.497 25.8172 35.8759 24.6336 36.6241 23.6904C37.2618 22.8873 38.151 22.3218 39.1488 22.0848C40.1466 21.8479 41.195 21.9532 42.1257 22.384C42.5322 22.5582 42.9096 22.7904 43.3161 22.9646C44.0709 23.2985 44.3322 23.1533 44.5499 22.384C44.6235 22.2341 44.7059 22.0886 44.7967 21.9485L45.1161 21.9775Z" fill="#707070"/>
<path d="M26.2161 38.6128C26.5124 38.6048 26.808 38.5806 27.1016 38.5402C27.397 38.5292 27.6772 38.406 27.8848 38.1956C28.0925 37.9852 28.2122 37.7035 28.2194 37.408C28.241 37.089 28.241 36.7689 28.2194 36.4499C28.2194 32.5789 28.2194 28.7418 28.2194 24.9386C28.2339 24.6775 28.2339 24.4158 28.2194 24.1547C28.2278 23.974 28.1982 23.7935 28.1324 23.6249C28.0666 23.4563 27.9661 23.3034 27.8375 23.1761C27.7088 23.0489 27.5549 22.95 27.3856 22.8861C27.2163 22.8221 27.0355 22.7944 26.8548 22.8047H26.2016C26.1145 22.5289 26.1 22.3547 26.4629 22.3547H33.721H33.8806V22.7467C33.5468 22.7467 33.2274 22.7467 32.9081 22.8338C32.6389 22.8605 32.3878 22.9815 32.1992 23.1754C32.0106 23.3693 31.8966 23.6236 31.8774 23.8934C31.8316 24.2886 31.8073 24.686 31.8048 25.0838V36.2902C31.8048 36.508 31.8048 36.7257 31.8048 36.9289C31.8048 38.1193 32.2548 38.5402 33.4597 38.5983C33.8952 38.5983 33.8952 38.5983 33.8371 39.0193H26.579C26.3323 39.0483 26.129 39.0483 26.2161 38.6128Z" fill="#707070"/>
<path d="M81.7692 42.4452C82.9305 42.6775 84.0918 42.9097 85.2676 43.113C85.6015 43.113 85.7467 43.2872 85.7321 43.6501C85.7176 44.013 85.7321 44.6081 85.7321 45.1743L79.795 45.4646L79.7225 44.2452L84.0773 44.0275L83.787 43.9259L80.0999 43.2001C79.795 43.2001 79.6644 43.0404 79.6789 42.7355C79.7006 42.6009 79.7006 42.4637 79.6789 42.3291C79.6789 42.0097 79.766 41.8791 80.0709 41.792C81.2176 41.4872 82.3499 41.1388 83.4967 40.8049C83.6373 40.7806 83.7654 40.7089 83.8596 40.6017L79.6208 40.8049V39.571L85.4999 39.1936C85.4999 39.8468 85.5725 40.4565 85.5725 41.0807C85.5725 41.1533 85.3838 41.2839 85.2531 41.313L82.1757 42.1839L81.7547 42.3291L81.7692 42.4452Z" fill="#707070"/>
<path d="M9.46451 43.5483L9.33386 42.6047H10.2629V43.0257C10.2629 43.6644 10.2629 44.3031 10.3645 44.9418C10.4516 46.3934 9.91451 47.0467 8.49193 47.1483C7.55007 47.2281 6.60314 47.2281 5.66128 47.1483C5.2634 47.1258 4.88976 46.9498 4.61901 46.6574C4.34826 46.365 4.20151 45.979 4.20967 45.5805C4.18792 45.3197 4.18792 45.0575 4.20967 44.7967C4.20666 44.4422 4.33343 44.099 4.56607 43.8316C4.79871 43.5642 5.12114 43.3911 5.47257 43.3451C6.43571 43.2295 7.40651 43.1907 8.3758 43.2289C8.75444 43.2716 9.1228 43.3797 9.46451 43.5483ZM7.43225 44.3322C6.88064 44.3322 6.31451 44.4193 5.76289 44.5063C5.67257 44.5099 5.5839 44.5318 5.50229 44.5707C5.42067 44.6095 5.34779 44.6646 5.28807 44.7324C5.22835 44.8003 5.18303 44.8796 5.15486 44.9655C5.12669 45.0514 5.11625 45.1421 5.12418 45.2322C5.1222 45.3166 5.13736 45.4005 5.16875 45.4789C5.20015 45.5573 5.24712 45.6285 5.30683 45.6882C5.36654 45.7479 5.43775 45.7949 5.51614 45.8263C5.59453 45.8577 5.67847 45.8729 5.76289 45.8709C6.80805 45.8709 7.8387 45.8709 8.86935 45.8709C8.95847 45.8694 9.0463 45.8493 9.1272 45.8119C9.20809 45.7745 9.28025 45.7205 9.33905 45.6535C9.39784 45.5865 9.44196 45.508 9.46856 45.4229C9.49517 45.3378 9.50368 45.2481 9.49354 45.1596C9.49358 44.9811 9.42369 44.8097 9.29887 44.6822C9.17404 44.5547 9.00422 44.4811 8.8258 44.4773C8.36128 44.3757 7.91128 44.3757 7.43225 44.3467V44.3322Z" fill="#707070"/>
<path d="M67.4709 17.6951L71.7242 13.2241C72.3048 13.8628 72.8564 14.4435 73.3935 15.0532C73.6336 15.2876 73.785 15.5979 73.822 15.9314C73.8591 16.2648 73.7795 16.6008 73.5968 16.8822C73.0243 17.8941 72.2242 18.7588 71.2597 19.408C70.9477 19.642 70.562 19.7561 70.173 19.7294C69.7839 19.7028 69.4174 19.5372 69.1403 19.2628C68.5742 18.7838 68.0516 18.2467 67.4709 17.6951ZM69.0532 17.8548C69.75 18.7257 70.1274 18.7838 70.9113 18.0725C71.3481 17.6721 71.7601 17.2455 72.1451 16.7951C72.8419 15.9677 72.7839 15.5903 71.8839 14.908L69.0532 17.8548Z" fill="#707070"/>
<path d="M80.7531 34.1564L78.387 34.8386L78.0676 33.6338L83.8741 32.0806C84.0918 32.9515 84.3386 33.7935 84.5128 34.6354C84.5555 34.9105 84.5005 35.1918 84.3573 35.4305C84.214 35.6692 83.9917 35.8501 83.7289 35.9419C83.4563 36.1196 83.1352 36.208 82.8101 36.195C82.485 36.182 82.1719 36.0682 81.9144 35.8693C81.8273 35.7967 81.7547 35.6951 81.6096 35.5499C81.6096 36.4354 81.087 36.6822 80.4047 36.8564C79.9547 36.9725 79.5047 37.1467 79.0257 37.3064C78.9231 36.9926 78.8407 36.6726 78.7789 36.3483C78.7854 36.2736 78.81 36.2015 78.8504 36.1383C78.8909 36.0751 78.946 36.0226 79.0112 35.9854C79.3596 35.8548 79.737 35.7677 80.0999 35.6515C80.9563 35.3467 81.1015 35.0128 80.7531 34.1564ZM81.6967 33.9096C81.8273 34.287 81.7838 34.7951 82.2628 34.8386C82.6369 34.8673 83.0098 34.7702 83.3225 34.5628C83.6709 34.2725 83.4096 33.866 83.3225 33.4886L81.6967 33.9096Z" fill="#707070"/>
<path d="M59.6467 6.15479L61.7225 7.05479C62.0424 7.15253 62.3119 7.37052 62.4744 7.66291C62.6368 7.9553 62.6795 8.29929 62.5935 8.62253C62.4483 9.29027 62.0129 10.0741 61.1419 10.0741L60.9677 10.1612C61.65 10.6548 61.5048 11.2499 61.229 11.8741C60.9532 12.4983 60.8806 12.7741 60.7064 13.2532L60.2419 13.0645C59.5306 12.7596 59.5306 12.7306 59.8354 11.9903C59.9225 11.8161 59.9951 11.6274 60.0822 11.4532C60.4306 10.6112 60.3145 10.3209 59.3854 10.0016L58.3983 12.2516L57.2371 11.6129L59.6467 6.15479ZM59.7774 9.05801C60.1548 9.2322 60.5177 9.53704 60.8516 9.20317C61.1128 8.93999 61.2635 8.5868 61.2725 8.21608C61.2725 7.94027 60.808 7.72253 60.4887 7.41769L59.7774 9.05801Z" fill="#707070"/>
<path d="M52.2579 4.05005L53.4918 4.35489L52.708 7.75166C52.708 8.04198 52.5773 8.31779 52.5192 8.60811C52.4321 9.14521 52.6209 9.4936 53.0709 9.60973C53.1742 9.64003 53.283 9.64741 53.3895 9.63135C53.496 9.61529 53.5977 9.57618 53.6876 9.51674C53.7774 9.45731 53.8532 9.37898 53.9097 9.28724C53.9661 9.19549 54.0019 9.09252 54.0144 8.98553C54.3192 7.80973 54.5805 6.63392 54.8563 5.45811L55.045 4.70327L56.2644 4.9936C56.1628 5.40005 56.0757 5.8065 55.9741 6.19844C55.7563 7.17102 55.5386 8.15811 55.3063 9.10166C55.2766 9.33004 55.2007 9.54998 55.0834 9.74812C54.966 9.94625 54.8095 10.1184 54.6235 10.2542C54.4375 10.39 54.2258 10.4865 54.0013 10.5379C53.7768 10.5894 53.5442 10.5946 53.3176 10.5533C52.8924 10.4906 52.4804 10.3582 52.0983 10.1613C51.8195 10.0409 51.5855 9.83604 51.4293 9.57564C51.273 9.31523 51.2024 9.01238 51.2273 8.70973C51.5031 7.12747 51.866 5.61779 52.2579 4.05005Z" fill="#707070"/>
<path d="M4.97905 36.7549L5.19679 35.521C6.64841 35.7678 8.18712 35.9855 9.65325 36.2758C9.98112 36.3372 10.2802 36.5035 10.5053 36.7496C10.7305 36.9957 10.8696 37.3083 10.9016 37.6404C11.0162 38.2926 10.887 38.9642 10.5387 39.5274C10.383 39.8062 10.1438 40.029 9.85466 40.1644C9.56556 40.2998 9.24123 40.3411 8.92744 40.2823C7.47583 40.0645 6.09679 39.8178 4.68873 39.5855L4.52905 39.5129L4.71776 38.3226L6.93873 38.6855C7.67905 38.8016 8.39034 38.9468 9.20325 38.9904C9.33948 38.9876 9.47323 38.9533 9.59408 38.8904C9.71494 38.8275 9.81963 38.7375 9.90002 38.6274C9.95743 38.5022 9.98715 38.366 9.98715 38.2283C9.98715 38.0905 9.95743 37.9543 9.90002 37.8291C9.72102 37.6256 9.47258 37.4962 9.20325 37.4662C8.46292 37.3065 7.75163 37.2049 6.95325 37.0742L4.97905 36.7549Z" fill="#707070"/>
<path d="M33.1259 5.22583L36.5517 10.4371L35.3033 10.8581C35.127 10.544 34.9281 10.2432 34.7081 9.95809C34.6356 9.85648 34.4323 9.82744 34.2872 9.79841C34.142 9.76938 34.171 9.79841 34.113 9.79841C33.7501 9.91454 33.2565 9.94357 33.0678 10.2049C32.8791 10.4662 33.0678 10.9162 32.9952 11.2936C32.9801 11.3654 32.9504 11.4334 32.908 11.4933C32.8655 11.5533 32.8112 11.6038 32.7485 11.642C32.46 11.7581 32.1642 11.8551 31.863 11.9323C31.863 11.7436 31.863 11.5839 31.863 11.4242C31.7904 9.62422 31.7178 7.82422 31.6162 6.02422C31.6162 5.79196 31.6162 5.66131 31.9065 5.60325L33.1259 5.22583ZM32.7049 6.75002H32.6323L32.8936 9.23228L34.0114 8.85486L32.7049 6.75002Z" fill="#707070"/>
<path d="M11.5114 30.9338C11.5114 31.137 11.3807 31.2822 11.3227 31.4128C11.2066 31.7757 10.9307 32.1822 11.0033 32.487C11.0759 32.7918 11.5549 32.9225 11.8162 33.1693C11.865 33.2213 11.902 33.2832 11.9245 33.3509C11.9471 33.4186 11.9547 33.4903 11.9469 33.5612C11.852 33.8718 11.7405 34.1771 11.613 34.4757L6.54688 30.8322C6.72107 30.3676 6.86623 29.9176 7.05494 29.4967C7.09091 29.4391 7.13983 29.3908 7.19779 29.3555C7.25576 29.3202 7.32117 29.299 7.38881 29.2935C9.34849 29.4531 11.3082 29.6418 13.3259 29.8306C13.2153 30.1861 13.0844 30.5351 12.934 30.8757C12.934 30.9628 12.7017 31.0209 12.5711 31.0209C12.2227 31.0209 11.8743 30.9628 11.5114 30.9338ZM8.11462 30.4838V30.5854L10.1614 31.9354L10.5678 30.8176L8.11462 30.4838Z" fill="#707070"/>
<path d="M39.4548 8.05637C39.4778 8.21627 39.5217 8.37244 39.5855 8.52089C39.7451 8.69508 39.9338 8.95637 40.1225 8.97089C40.2464 8.98129 40.371 8.96315 40.4868 8.91785C40.6025 8.87255 40.7064 8.80131 40.7903 8.7096C40.8315 8.57459 40.8398 8.43168 40.8145 8.2928C40.7893 8.15392 40.7312 8.02309 40.6451 7.91121C40.4646 7.70663 40.2348 7.55171 39.9774 7.46121C39.5564 7.22895 39.0919 7.06928 38.6709 6.80799C38.3744 6.6271 38.1429 6.35675 38.0099 6.03587C37.8768 5.71499 37.8491 5.36016 37.9306 5.0225C37.982 4.71189 38.133 4.42639 38.3608 4.20907C38.5886 3.99175 38.8808 3.85437 39.1935 3.81766C39.5019 3.73768 39.8185 3.69383 40.1371 3.68702C40.3379 3.68638 40.5366 3.7274 40.7208 3.8075C40.9049 3.88761 41.0704 4.00504 41.2069 4.15239C41.3433 4.29973 41.4477 4.47378 41.5134 4.66353C41.5791 4.85328 41.6047 5.0546 41.5887 5.25476H41.429L40.4419 5.37089C40.4419 5.24024 40.4419 5.1096 40.3258 5.03702C40.2096 4.96444 40.0209 4.61605 39.8322 4.58702C39.7247 4.57693 39.6164 4.59428 39.5174 4.63743C39.4183 4.68059 39.3319 4.74815 39.2661 4.83379C39.216 4.94568 39.1902 5.06687 39.1902 5.18944C39.1902 5.31201 39.216 5.4332 39.2661 5.54508C39.42 5.74971 39.6254 5.90996 39.8613 6.0096C40.2532 6.19831 40.6596 6.32895 41.0371 6.51766C41.3886 6.66152 41.683 6.91725 41.8745 7.24527C42.0661 7.57329 42.1442 7.9553 42.0967 8.33218C42.1115 8.6242 42.0301 8.913 41.8649 9.15425C41.6997 9.3955 41.4598 9.57587 41.1822 9.66766C40.8428 9.80087 40.4859 9.884 40.1225 9.91444C38.8742 10.0451 38.3225 9.56605 38.2064 8.21605L39.4548 8.05637Z" fill="#707070"/>
<path d="M48.542 5.29847H47.3953C47.4197 5.18852 47.4197 5.07455 47.3953 4.9646C47.2646 4.76137 47.1485 4.50008 46.9453 4.41298C46.8404 4.39062 46.7315 4.39629 46.6296 4.42942C46.5277 4.46255 46.4363 4.52197 46.3646 4.60169C46.3143 4.72116 46.2884 4.84948 46.2884 4.97911C46.2884 5.10874 46.3143 5.23706 46.3646 5.35653C46.5135 5.58233 46.7121 5.77103 46.9453 5.90815C47.2936 6.15492 47.6711 6.35814 48.0049 6.61944C48.3055 6.85193 48.5211 7.17706 48.6182 7.54447C48.7153 7.91187 48.6885 8.30104 48.542 8.65169C48.4462 8.97313 48.2419 9.25146 47.9641 9.43935C47.6862 9.62724 47.3519 9.7131 47.0178 9.68234C46.6707 9.7243 46.3198 9.7243 45.9727 9.68234C45.762 9.64965 45.5612 9.57097 45.3844 9.4519C45.2076 9.33282 45.0592 9.17626 44.9497 8.99335C44.8402 8.81044 44.7724 8.60567 44.751 8.39358C44.7296 8.18149 44.7552 7.9673 44.8259 7.76621H45.9872C45.9784 7.93545 45.9784 8.10503 45.9872 8.27427C45.9872 8.57911 46.1759 8.82589 46.4953 8.82589C46.8146 8.82589 47.0759 8.82589 47.163 8.59363C47.2165 8.4699 47.2441 8.33651 47.2441 8.20169C47.2441 8.06688 47.2165 7.93349 47.163 7.80976C46.9974 7.56981 46.7789 7.37114 46.5243 7.22911C46.1904 6.96782 45.813 6.7646 45.4936 6.47427C45.1715 6.2384 44.9446 5.89489 44.8541 5.50606C44.7635 5.11724 44.8153 4.70883 45.0001 4.35492C45.1061 4.05988 45.3049 3.80711 45.5665 3.63441C45.8282 3.46172 46.1387 3.37837 46.4517 3.39685C46.8168 3.38311 47.1822 3.41234 47.5404 3.48395C47.7358 3.51913 47.9209 3.59743 48.0822 3.71315C48.2435 3.82887 48.377 3.9791 48.4729 4.15291C48.5689 4.32671 48.6249 4.51972 48.6368 4.71789C48.6488 4.91605 48.6164 5.11439 48.542 5.29847Z" fill="#707070"/>
<path d="M62.8113 14.371L66.1355 9.34839L68.879 11.1629L68.3564 11.9323L66.6726 10.829L65.8597 12.0484L67.4129 13.0645L66.9048 13.8339L65.3226 12.8468L64.3645 14.2984L66.1064 15.4597L65.5839 16.229L62.8113 14.371Z" fill="#707070"/>
<path d="M20.1047 11.9177C21.1789 11.0902 21.1789 11.0902 22.2096 11.8451L23.3999 12.7015C23.2547 12.0918 23.1386 11.5983 23.008 11.1047C22.7322 9.97249 22.7322 9.97249 23.8209 9.39185L24.2128 11.3225C24.3073 12.0361 24.4627 12.7403 24.6773 13.4273C25.0084 14.0754 25.397 14.6924 25.8386 15.2709L24.8225 15.9822C24.6047 15.6628 24.3725 15.3725 24.1838 15.0386C23.8578 14.5048 23.4037 14.0607 22.8628 13.7467C21.9338 13.166 21.0483 12.5418 20.1047 11.9177Z" fill="#707070"/>
<path d="M80.8693 24.8661L80.0854 25.3452L79.1129 23.7484L77.8064 24.5323L78.7064 26.1291L77.9225 26.6081L76.9355 25.0113L74.6855 26.3468L74.0322 25.2726L79.2145 22.1807L80.8693 24.8661Z" fill="#707070"/>
<path d="M16.7226 16.2581L15.9387 17.1871L15.2129 16.5629L17.971 13.6597L18.6822 14.371L17.6806 15.2855L21.179 18.871L20.4097 19.7419L16.7226 16.2581Z" fill="#707070"/>
<path d="M9.13062 24.9098L9.76933 23.821L14.1242 26.3323L15.0532 24.6775L15.9242 25.1856L14.3419 27.9291L9.13062 24.9098Z" fill="#707070"/>
<path d="M12.4114 19.7855L13.1952 18.7839L17.9565 22.471L17.1872 23.4726L12.4114 19.7855Z" fill="#707070"/>
<path d="M82.1613 27.5806L82.6693 28.7419L77.1242 31.1225L76.6306 29.9612L82.1613 27.5806Z" fill="#707070"/>
<path d="M31.1952 50.2402C31.2207 52.18 30.7775 54.0972 29.9032 55.8289C29.1107 57.4151 27.8688 58.7328 26.3323 59.6177C24.9314 60.3458 23.3666 60.7008 21.7887 60.6483C21.4839 60.6483 21.3242 60.6483 21.3242 60.4596C21.3242 60.2709 21.4548 60.2709 21.7306 60.2709C22.5613 60.2227 23.3658 59.9629 24.0677 59.516C25.1067 58.8516 25.9409 57.9119 26.4774 56.8015C27.1495 55.5752 27.5505 54.2188 27.6532 52.8241C27.323 53.2008 26.92 53.5069 26.4685 53.724C26.017 53.941 25.5263 54.0645 25.0258 54.087C24.4027 54.109 23.7826 53.9899 23.212 53.7385C22.6414 53.4871 22.135 53.11 21.7306 52.6354C20.8447 51.5426 20.3856 50.1654 20.4387 48.7596C20.3876 47.1813 20.9025 45.6367 21.8903 44.4048C22.3185 43.8562 22.8673 43.4138 23.4942 43.1117C24.121 42.8096 24.809 42.656 25.5048 42.6628C26.6538 42.6666 27.7664 43.0665 28.6548 43.7951C29.5403 44.6056 30.2293 45.6074 30.6695 46.7242C31.1097 47.841 31.2895 49.0435 31.1952 50.2402ZM27.7258 49.3548C27.7442 47.9601 27.6078 46.5677 27.3194 45.2031C26.9855 43.7515 26.4048 42.9531 25.5919 42.9531C25.0258 42.9531 24.6194 43.316 24.3726 44.0128C24.0888 45.1956 23.9715 46.4122 24.0242 47.6273C24.0242 51.3289 24.6919 53.1725 26.0419 53.1725C26.6226 53.1725 27.0581 52.8096 27.3194 52.0548C27.6037 51.1835 27.741 50.2711 27.7258 49.3548Z" fill="#707070"/>
<path d="M44.2451 51.6193C44.3349 53.8305 43.7909 56.0213 42.6773 57.9338C42.2965 58.665 41.7267 59.2809 41.0272 59.7174C40.3278 60.154 39.5242 60.3952 38.6999 60.416C37.8442 60.3795 37.013 60.119 36.2895 59.6604C35.566 59.2019 34.9756 58.5614 34.5773 57.8031C33.4029 55.9163 32.812 53.7246 32.879 51.5031C32.7881 50.1321 32.9697 48.7566 33.4132 47.456C33.8567 46.1555 34.5533 44.9556 35.4628 43.9257C35.867 43.4737 36.3612 43.1112 36.9136 42.8612C37.466 42.6112 38.0646 42.4794 38.6709 42.4741C39.7414 42.4414 40.7827 42.8267 41.5741 43.5483C42.5023 44.4947 43.1807 45.6569 43.5483 46.9305C44.0385 48.4441 44.274 50.0286 44.2451 51.6193ZM40.6451 51.1692C40.7964 48.7283 40.5613 46.2788 39.9483 43.9112C39.8686 43.6354 39.7003 43.3936 39.4694 43.223C39.2385 43.0525 38.9579 42.9627 38.6709 42.9676C37.9161 42.9676 37.3935 43.5773 37.0741 44.8112C36.6633 46.7822 36.4782 48.7935 36.5225 50.8063C36.5225 54.987 36.8564 57.716 37.4951 58.9934C37.829 59.6467 38.2354 59.9805 38.7144 59.9805C39.4499 59.9805 39.9338 59.3563 40.1661 58.108C40.531 55.8138 40.6914 53.4918 40.6451 51.1692Z" fill="#707070"/>
<path d="M56.9033 51.6193C56.9931 53.8305 56.4491 56.0213 55.3355 57.9338C54.9523 58.6662 54.3799 59.2826 53.678 59.7191C52.976 60.1556 52.17 60.3962 51.3436 60.416C50.4903 60.377 49.6622 60.1153 48.9414 59.6569C48.2207 59.1985 47.6326 58.5594 47.2356 57.8031C46.0611 55.9163 45.4702 53.7246 45.5372 51.5031C45.4463 50.1321 45.6279 48.7566 46.0714 47.456C46.5149 46.1555 47.2115 44.9556 48.121 43.9257C48.5252 43.4737 49.0194 43.1112 49.5718 42.8612C50.1242 42.6112 50.7228 42.4794 51.3291 42.4741C52.3996 42.4414 53.4409 42.8267 54.2323 43.5483C55.1472 44.4822 55.8243 45.6222 56.2065 46.8725C56.7031 48.4045 56.9387 50.0091 56.9033 51.6193ZM53.2597 51.1692C53.4111 48.7283 53.1759 46.2788 52.563 43.9112C52.4811 43.6367 52.3123 43.3962 52.0819 43.226C51.8515 43.0558 51.572 42.9651 51.2856 42.9676C50.5307 42.9676 49.9936 43.5773 49.6888 44.8112C49.2926 46.7838 49.1221 48.7952 49.1807 50.8063C49.1807 54.987 49.5049 57.716 50.1533 58.9934C50.4726 59.6467 50.8791 59.9805 51.3726 59.9805C52.1178 59.9805 52.6017 59.3563 52.8243 58.108C53.1668 55.8117 53.3125 53.4903 53.2597 51.1692Z" fill="#707070"/>
<path d="M67.9646 59.908C67.9646 60.0532 67.7758 60.1258 67.3839 60.1258H66.8613C66.6581 60.1258 65.8452 60.1258 64.4226 60.1258H60.692C60.3146 60.1258 60.1404 60.0387 60.1404 59.879C60.1404 59.7193 60.1404 59.7193 60.242 59.7048C60.5269 59.6798 60.8135 59.6798 61.0984 59.7048C61.7371 59.7048 62.1291 59.5887 62.2742 59.4145C62.3874 59.1953 62.4376 58.9491 62.4194 58.7032V48.9193C62.4194 46.829 62.4194 45.7112 62.4194 45.5225C62.4194 45.3338 62.1581 45.1161 61.7952 45.1161H60.6775C60.3 45.1161 60.1113 45.0435 60.1113 44.8983C60.1113 44.7967 60.3581 44.7096 60.8371 44.6661C61.978 44.575 63.0769 44.1954 64.0307 43.5629L64.8291 42.9532L65.671 42.3435L65.7581 42.7354V58.7032C65.7581 59.4 66.0629 59.7483 66.6291 59.7338C67.5 59.6322 67.9646 59.7193 67.9646 59.908Z" fill="#707070"/>
<path d="M34.3598 78.1838H37.9453V85.108C37.949 85.784 37.8411 86.4559 37.6259 87.0967C37.4123 87.699 37.0649 88.245 36.6098 88.6935C36.2054 89.1195 35.7088 89.4472 35.1582 89.6516C34.3526 89.9125 33.5076 90.0304 32.6614 90C32.0404 89.9939 31.4202 89.9551 30.8033 89.8838C30.222 89.8288 29.656 89.6664 29.134 89.4048C28.6622 89.1532 28.2433 88.8131 27.9001 88.4032C27.5528 88.0169 27.2907 87.5619 27.1307 87.0677C26.9281 86.4334 26.8157 85.7737 26.7969 85.108V78.1838H30.3824V85.2677C30.3686 85.5335 30.4092 85.7992 30.5015 86.0488C30.5939 86.2984 30.7361 86.5265 30.9195 86.7193C31.1102 86.9056 31.3381 87.0497 31.5881 87.1422C31.8382 87.2348 32.105 87.2737 32.3711 87.2564C32.9051 87.2814 33.4271 87.0934 33.8227 86.7338C34.1809 86.3375 34.3686 85.816 34.3453 85.2822L34.3598 78.1838Z" fill="#707070"/>
<path d="M48.0629 85.0501L51.2129 85.9937C51.0338 86.7945 50.693 87.5503 50.2113 88.2146C49.7663 88.7954 49.1822 89.2547 48.5129 89.5501C47.6978 89.8798 46.8222 90.0332 45.9436 90.0001C44.8856 90.0364 43.8318 89.8484 42.8516 89.4485C41.9858 89.0218 41.2641 88.3505 40.7758 87.5179C40.1569 86.4378 39.855 85.2052 39.9049 83.9614C39.8522 83.1592 39.9598 82.3545 40.2215 81.5943C40.4832 80.8342 40.8937 80.1338 41.4291 79.534C42.0099 78.9906 42.6961 78.5724 43.4452 78.3052C44.1943 78.038 44.9903 77.9276 45.7839 77.9808C46.995 77.9093 48.1981 78.2189 49.2242 78.8662C50.1299 79.5468 50.7877 80.5054 51.0968 81.5953L47.9032 82.3066C47.8266 82.0295 47.7092 81.7653 47.5549 81.5227C47.3586 81.2574 47.1057 81.0392 46.8145 80.884C46.5115 80.7372 46.1786 80.6626 45.842 80.6662C45.4702 80.6492 45.1007 80.7317 44.7715 80.9052C44.4423 81.0788 44.1654 81.337 43.9694 81.6533C43.6117 82.3563 43.4654 83.148 43.5484 83.9324C43.4535 84.8571 43.6569 85.788 44.129 86.5888C44.3309 86.8275 44.5855 87.0159 44.8727 87.1394C45.1599 87.2628 45.4718 87.3178 45.7839 87.3001C46.0694 87.3218 46.3562 87.281 46.6244 87.1808C46.8926 87.0805 47.1358 86.9231 47.3371 86.7195C47.7192 86.2351 47.9693 85.6599 48.0629 85.0501Z" fill="#707070"/>
<path d="M60.6918 85.0501L63.8418 85.9937C63.6627 86.7945 63.3219 87.5503 62.8402 88.2146C62.3953 88.7954 61.8112 89.2547 61.1418 89.5501C60.3268 89.8798 59.4511 90.0332 58.5725 90.0001C57.5145 90.0364 56.4608 89.8484 55.4806 89.4485C54.6147 89.0218 53.893 88.3505 53.4047 87.5179C52.7858 86.4378 52.4839 85.2052 52.5338 83.9614C52.4797 83.1579 52.5881 82.3518 52.8525 81.5911C53.1169 80.8304 53.5318 80.1308 54.0725 79.534C54.6533 78.9906 55.3395 78.5724 56.0886 78.3052C56.8377 78.038 57.6338 77.9276 58.4273 77.9808C59.6428 77.9111 60.85 78.2205 61.8822 78.8662C62.7794 79.552 63.4311 80.5092 63.7402 81.5953L60.5757 82.3066C60.499 82.0295 60.3816 81.7653 60.2273 81.5227C60.0311 81.2574 59.7782 81.0392 59.487 80.884C59.184 80.7372 58.8511 80.6626 58.5144 80.6662C58.1432 80.6522 57.7747 80.736 57.4461 80.9093C57.1174 81.0825 56.8401 81.3391 56.6418 81.6533C56.2591 82.3488 56.0875 83.1408 56.1483 83.9324C56.0533 84.8571 56.2568 85.788 56.7289 86.5888C56.9308 86.8275 57.1854 87.0159 57.4726 87.1394C57.7598 87.2628 58.0717 87.3178 58.3838 87.3001C58.6693 87.3218 58.9561 87.281 59.2243 87.1808C59.4925 87.0805 59.7357 86.9231 59.937 86.7195C60.3349 86.2415 60.5957 85.6646 60.6918 85.0501Z" fill="#707070"/>
</g>
<defs>
<clipPath id="clip0_272_21799">
<rect width="90" height="90" fill="white"/>
</clipPath>
</defs>
</svg>
