<svg width="90" height="90" viewBox="0 0 90 90" fill="none" xmlns="http://www.w3.org/2000/svg">
<g clip-path="url(#clip0_272_21831)">
<path d="M90 46.0161C89.9861 48.3197 89.7675 50.6174 89.3468 52.8823C88.9096 55.3989 88.2489 57.8716 87.3726 60.271C85.0897 66.5372 81.4486 72.2206 76.7103 76.9137C71.972 81.6068 66.2539 85.1934 59.9661 87.4161C55.8191 88.8908 51.4736 89.7325 47.0758 89.9129L46.2484 90H43.8242C43.5194 90 43.2291 90 42.9242 89.9129C41.0743 89.8383 39.2314 89.6394 37.4081 89.3177C34.4306 88.8195 31.512 88.0169 28.6984 86.9226C21.347 84.0758 14.8744 79.3442 9.93113 73.2033C4.98783 67.0624 1.74796 59.7285 0.537119 51.9387C0.147421 49.4371 -0.0322379 46.9073 2.18181e-05 44.3758C0.093677 36.1783 2.44965 28.166 6.80809 21.2226C10.7259 14.9287 16.1357 9.69843 22.5581 5.99516C26.7617 3.55731 31.3371 1.82622 36.1016 0.870968C37.9557 0.49652 39.8323 0.244364 41.7194 0.116129C42.5178 0.116129 43.3161 0.116129 44.1 0H46.0162C47.4678 0 48.9194 0.145161 50.371 0.304839C52.3644 0.55067 54.3384 0.933839 56.279 1.45161C67.6944 4.39699 77.5046 11.6909 83.6129 21.7742C86.3002 26.1934 88.1825 31.0542 89.1726 36.1306C89.4484 37.5823 89.6516 38.9323 89.8113 40.3548C89.9419 41.5452 89.9419 42.7645 90 43.9694V46.0161ZM45 87.6774C53.4437 87.6746 61.6969 85.1679 68.7159 80.4745C75.735 75.781 81.2047 69.1116 84.4333 61.3096C87.6618 53.5075 88.5044 44.9233 86.8543 36.6425C85.2042 28.3616 81.1356 20.756 75.163 14.7875C69.1904 8.81892 61.582 4.7555 53.3 3.11104C45.0181 1.46657 36.4344 2.31493 28.6346 5.54884C20.8348 8.78274 14.1691 14.2569 9.48039 21.2792C4.79173 28.3014 2.2907 36.5563 2.29357 45C2.32043 56.3155 6.8294 67.1595 14.8334 75.1581C22.8375 83.1567 33.6845 87.6583 45 87.6774Z" fill="#707070"/>
<path d="M67.6306 61.8967C65.6003 64.6108 63.0973 66.9367 60.2419 68.7629C56.3693 71.2649 51.9338 72.7616 47.337 73.1177C42.571 73.523 37.7804 72.7051 33.4188 70.7415C29.0573 68.7779 25.269 65.7336 22.4128 61.8967H67.587H67.6306Z" fill="#707070"/>
<path d="M31.9355 39.9338C32.0221 39.7821 32.1191 39.6366 32.2259 39.4983C34.3921 36.5136 37.2921 34.1386 40.6452 32.6031C42.9588 31.5108 45.3958 30.7017 47.9033 30.1935L48.7597 30.0338C48.9049 30.0338 49.0501 29.9322 49.0501 29.7435C49.0535 29.7044 49.0476 29.665 49.0328 29.6286C49.0179 29.5923 48.9947 29.56 48.9648 29.5344C48.935 29.5089 48.8996 29.4908 48.8614 29.4817C48.8232 29.4726 48.7833 29.4728 48.7452 29.4822L47.8017 29.5548C45.6453 29.7781 43.5246 30.2657 41.4872 31.0064C39.0447 31.9725 36.8009 33.3798 34.8678 35.158L34.2872 35.6951C34.2872 35.6951 34.4178 35.3031 34.4904 35.1144C34.9801 33.7115 35.6433 32.3754 36.4646 31.137C37.225 29.9412 38.2423 28.9299 39.4425 28.1766C40.6428 27.4233 41.9958 26.947 43.4033 26.7822C44.8995 26.6366 46.4061 26.6317 47.9033 26.7677C49.3549 26.8548 50.9081 26.9854 52.4323 26.9564C53.5667 26.9381 54.694 26.7722 55.7855 26.4628C56.1676 26.3249 56.5698 26.2513 56.9759 26.2451C57.1024 26.232 57.2302 26.2468 57.3504 26.2885C57.4706 26.3302 57.5802 26.3976 57.6715 26.4862C57.7629 26.5747 57.8337 26.6822 57.879 26.8011C57.9243 26.9199 57.9431 27.0472 57.9339 27.1741C57.9633 27.386 57.9633 27.6009 57.9339 27.8128C57.2479 30.6164 55.6931 33.1313 53.492 34.9983C51.7701 36.4426 49.6876 37.391 47.4678 37.7418C46.3655 37.9013 45.2459 37.9013 44.1436 37.7418C42.9533 37.5677 41.7485 37.3644 40.5581 37.2048C39.463 37.0159 38.3436 37.0159 37.2484 37.2048C35.9385 37.4581 34.7291 38.0829 33.7646 39.0048C33.4888 39.266 33.2275 39.5418 32.9807 39.8177C32.7339 40.0935 32.5597 40.1515 31.9355 39.9338Z" fill="#707070"/>
<path d="M74.0321 39.7597L71.8257 40.1516C70.592 33.2275 66.6939 27.0626 60.9676 22.9791C56.8507 19.9663 51.951 18.2071 46.858 17.9129C40.1915 17.453 33.5898 19.4695 28.3181 23.5759C23.0464 27.6823 19.4757 33.5898 18.2902 40.1662L16.1128 39.7742C16.4768 37.3488 17.1855 34.9878 18.2176 32.7629C20.3723 28.0426 23.7381 23.9767 27.9729 20.9784C32.2078 17.9801 37.1609 16.1562 42.3289 15.692C49.6726 14.9763 57.0161 17.0569 62.893 21.5184C68.7698 25.9799 72.7477 32.4939 74.0321 39.7597Z" fill="#707070"/>
<path d="M49.0499 56.1628H45.7693V43.8386H49.0209C49.0209 43.9838 49.0209 44.1289 49.0209 44.2741C49.0209 45.4935 49.0209 46.7273 49.0209 47.9467C49.0209 48.0918 49.0209 48.237 49.0209 48.3967H52.9838C52.9838 48.2515 52.9838 48.1064 52.9838 47.9612C52.9838 46.7273 52.9838 45.4935 52.9838 44.2596V43.8386H56.2499V56.1193C55.1633 56.2142 54.0704 56.2142 52.9838 56.1193V51.1838C51.6498 51.0959 50.3114 51.0959 48.9774 51.1838C48.9774 51.3289 48.9774 51.4886 48.9774 51.6483C48.9774 52.9983 48.9774 54.3483 48.9774 55.6983L49.0499 56.1628Z" fill="#707070"/>
<path d="M26.0275 51.6629V56.1194C24.95 56.1997 23.868 56.1997 22.7904 56.1194C22.7904 55.829 22.7033 44.1581 22.7904 43.7952H27.1453C27.8418 43.8051 28.5344 43.9026 29.2065 44.0855C29.6568 44.1816 30.0821 44.3707 30.4552 44.6406C30.8282 44.9104 31.1409 45.2551 31.3731 45.6527C31.6054 46.0503 31.7521 46.4919 31.804 46.9494C31.8558 47.4069 31.8117 47.8702 31.6743 48.3097C31.5706 48.7585 31.3786 49.1822 31.1094 49.5561C30.8403 49.9299 30.4993 50.2464 30.1065 50.4871L29.6565 50.7919L33.2275 56.1339H32.8936H29.9614C29.849 56.1477 29.7352 56.1256 29.6362 56.0709C29.5371 56.0161 29.4579 55.9315 29.4098 55.829C28.684 54.5516 27.9582 53.2887 27.2033 52.0113C27.1507 51.8642 27.047 51.7408 26.9112 51.6636C26.7754 51.5863 26.6163 51.5604 26.463 51.5903L26.0275 51.6629ZM26.0275 49.1661C26.3735 49.2241 26.7267 49.2241 27.0727 49.1661C27.2981 49.1733 27.5221 49.1279 27.7268 49.0335C27.9316 48.939 28.1116 48.7982 28.2525 48.6221C28.3934 48.446 28.4913 48.2395 28.5385 48.019C28.5856 47.7984 28.5808 47.5699 28.5243 47.3516C28.5085 47.1483 28.4343 46.9539 28.3107 46.7917C28.1871 46.6294 28.0193 46.5063 27.8275 46.4371C27.2646 46.2379 26.6607 46.183 26.0711 46.2774L26.0275 49.1661Z" fill="#707070"/>
<path d="M67.2243 44.5066L66.2372 47.0033L65.8307 46.8437C65.1053 46.5171 64.3298 46.3159 63.5372 46.2485C63.2715 46.2268 63.0045 46.2268 62.7388 46.2485C62.5893 46.2734 62.4462 46.3277 62.3178 46.4082C62.2162 46.461 62.1285 46.5372 62.062 46.6304C61.9954 46.7236 61.9519 46.8312 61.9349 46.9445C61.9179 47.0577 61.928 47.1734 61.9642 47.282C62.0005 47.3906 62.062 47.4891 62.1436 47.5695C62.3053 47.7288 62.4915 47.8611 62.6952 47.9614L64.5968 48.905C64.9888 49.1082 65.3952 49.3259 65.7726 49.5727C66.2777 49.8919 66.6821 50.3477 66.939 50.8871C67.1959 51.4266 67.2948 52.0278 67.2243 52.6211C67.2031 53.3575 66.9566 54.0697 66.5179 54.6615C66.0792 55.2534 65.4695 55.6964 64.771 55.9308C63.9259 56.2395 63.0279 56.3776 62.1291 56.3372C61.0556 56.3557 59.9893 56.1582 58.9936 55.7566C58.5872 55.5824 58.5872 55.5969 58.5872 55.1614V53.1437C58.5872 53.0275 58.5872 52.8969 58.5872 52.7372L58.921 52.8824C59.8383 53.3063 60.8192 53.5761 61.8243 53.6808C62.249 53.7242 62.677 53.7242 63.1017 53.6808C63.2646 53.6548 63.4189 53.5901 63.5517 53.4921C63.6583 53.4255 63.7482 53.3352 63.814 53.2281C63.8799 53.1211 63.92 53.0002 63.9313 52.875C63.9425 52.7498 63.9246 52.6237 63.8789 52.5066C63.8332 52.3895 63.7609 52.2846 63.6678 52.2001C63.4841 52.0228 63.2734 51.8758 63.0436 51.7646L61.2726 50.9227C60.8988 50.7344 60.5353 50.526 60.1839 50.2985C59.7078 49.9852 59.3228 49.5518 59.0679 49.042C58.8131 48.5322 58.6973 47.9642 58.7323 47.3953C58.7301 47.0155 58.7641 46.6363 58.8339 46.263C58.9269 45.8611 59.1045 45.4836 59.3548 45.1557C59.6051 44.8278 59.9224 44.5571 60.2855 44.3614C60.9742 43.9524 61.7506 43.7135 62.5501 43.6646C64.033 43.5302 65.5266 43.7543 66.9049 44.3179L67.2243 44.5066Z" fill="#707070"/>
<path d="M43.5483 51.4598C43.5356 52.1047 43.433 52.7448 43.2435 53.3614C43.0549 54.0709 42.6771 54.7158 42.1504 55.2272C41.6237 55.7386 40.9679 56.0971 40.2531 56.2646C39.2987 56.4917 38.3043 56.4917 37.3499 56.2646C36.5033 56.0658 35.7356 55.618 35.1457 54.9789C34.5559 54.3399 34.1708 53.5389 34.0402 52.6791C33.8583 51.661 33.9029 50.6152 34.1709 49.6162C34.3674 48.8321 34.7948 48.125 35.3979 47.5867C36.001 47.0483 36.7518 46.7035 37.5531 46.5969C38.3802 46.4137 39.2374 46.4137 40.0644 46.5969C40.9048 46.7725 41.6716 47.1999 42.2629 47.8223C42.8542 48.4447 43.2418 49.2325 43.3741 50.0807C43.4616 50.5362 43.5198 50.9968 43.5483 51.4598ZM40.2241 51.4598C40.238 50.8732 40.1496 50.2886 39.9628 49.7323C39.8617 49.4661 39.6773 49.2397 39.437 49.0868C39.1967 48.9339 38.9135 48.8628 38.6295 48.884C38.3455 48.9053 38.076 49.0177 37.8611 49.2046C37.6462 49.3914 37.4974 49.6428 37.437 49.9211C37.2552 50.6869 37.2256 51.4809 37.3499 52.2582C37.3873 52.5937 37.4754 52.9216 37.6112 53.2307C37.6859 53.4122 37.8071 53.5707 37.9625 53.6905C38.118 53.8103 38.3022 53.887 38.4967 53.913C38.8038 53.9767 39.1237 53.9225 39.3927 53.7611C39.6616 53.5998 39.86 53.343 39.9483 53.042C40.1336 52.5142 40.2364 51.9609 40.2531 51.4017L40.2241 51.4598Z" fill="#707070"/>
<path d="M30.2517 82.1176L28.6404 81.2902L29.3082 79.9983C29.5114 79.5918 29.7436 79.1999 29.9178 78.7789H29.8452L29.5694 78.9967C28.9888 79.5193 28.4082 80.0418 27.813 80.5499C27.5517 80.7822 27.5517 80.7822 27.2323 80.5499L26.3469 80.0999L26.6807 76.9935C26.4495 77.2372 26.2672 77.523 26.1436 77.8354C25.984 78.1112 25.8533 78.4015 25.7082 78.6773L25.2582 79.5338L23.6614 78.7209L27.1017 72.0435L27.6388 72.3047C27.9582 72.4789 28.2775 72.6676 28.6114 72.8128C28.7173 72.8464 28.8064 72.9193 28.8604 73.0164C28.9143 73.1136 28.9291 73.2277 28.9017 73.3354C28.8001 74.1338 28.713 74.9322 28.6259 75.7451L28.4517 77.4289C28.6404 77.4289 28.7275 77.3418 28.8146 77.2547L31.5872 74.8015L31.9211 74.5112L33.663 75.4112C33.6194 75.7306 30.5565 81.7112 30.2517 82.1176Z" fill="#707070"/>
<path d="M74.7 71.7386L73.5823 72.7983C73.4371 72.9289 73.3065 72.8709 73.1468 72.7983L69.4016 71.8983C69.2617 71.8825 69.1205 71.8825 68.9807 71.8983C69.7936 72.8854 70.6936 73.7418 71.55 74.7144L70.2581 75.9483L65.0903 70.4902C65.4823 70.1273 65.8452 69.7644 66.2371 69.4305C66.3242 69.4305 66.5274 69.4305 66.6581 69.4305L69.5613 70.1128L70.5048 70.3305C70.6093 70.3596 70.7197 70.3596 70.8242 70.3305C69.9968 69.3725 69.1113 68.487 68.2403 67.5434L69.5468 66.3096L74.7 71.7386Z" fill="#707070"/>
<path d="M19.1759 74.2499C18.7542 74.2643 18.3354 74.1745 17.9566 73.9886C17.059 73.5746 16.3494 72.8391 15.9678 71.9273C15.7885 71.5189 15.7057 71.0747 15.7259 70.6291C15.746 70.1835 15.8685 69.7485 16.084 69.358C16.5923 68.3179 17.436 67.4793 18.4791 66.9773C18.9824 66.7197 19.5471 66.6064 20.1107 66.65C20.6744 66.6935 21.215 66.8922 21.6727 67.2241C22.0769 67.506 22.4303 67.8545 22.7178 68.2547C23.0718 68.7025 23.2923 69.2411 23.3539 69.8086C23.4156 70.3761 23.3158 70.9494 23.0662 71.4628C22.5747 72.6096 21.667 73.5276 20.5259 74.0321C20.0986 74.2075 19.6367 74.282 19.1759 74.2499ZM19.9307 68.4434C19.7133 68.4958 19.4998 68.5637 19.292 68.6467C18.6183 68.9991 18.0705 69.5519 17.7243 70.2289C17.5827 70.4706 17.5245 70.7521 17.5586 71.0302C17.5927 71.3082 17.7172 71.5673 17.913 71.7676L18.2614 72.116C18.4549 72.2937 18.7 72.405 18.961 72.4337C19.2221 72.4624 19.4856 72.4071 19.713 72.2757C20.4171 71.9315 20.9884 71.3654 21.3388 70.6644C21.4303 70.4267 21.4648 70.1709 21.4393 69.9175C21.4138 69.6641 21.3292 69.4202 21.1921 69.2055C21.0551 68.9908 20.8696 68.8113 20.6505 68.6814C20.4314 68.5516 20.1849 68.475 19.9307 68.458V68.4434Z" fill="#707070"/>
<path d="M66.7741 78.5178L65.1919 79.3452C65.0467 79.4323 64.9596 79.3452 64.858 79.3452L63.9725 78.5758L63.6386 78.3L61.9838 79.171C61.9225 79.1994 61.873 79.2483 61.8439 79.3092C61.8147 79.3701 61.8077 79.4393 61.8241 79.5049C61.8241 79.9404 61.9402 80.3758 61.9838 80.8258C61.9908 80.9079 61.9908 80.9905 61.9838 81.0726L60.2999 81.9581C59.9951 79.2581 59.7338 76.6162 59.429 73.9162L60.6483 73.2629L66.7741 78.5178ZM62.5644 77.0662C62.2055 76.5664 61.7517 76.1423 61.229 75.8178C61.2854 76.4236 61.3824 77.0249 61.5193 77.6178L62.5644 77.0662Z" fill="#707070"/>
<path d="M37.8435 81.6097L37.379 84.0194L35.6516 83.7145C35.6516 83.3807 36.5226 78.0242 36.929 76.3694H37.1323C37.8871 76.5145 38.671 76.6452 39.4258 76.8194C39.8159 76.9148 40.1917 77.0613 40.5435 77.2549C40.9336 77.4709 41.245 77.8051 41.4329 78.2095C41.6207 78.6139 41.6753 79.0675 41.5887 79.5049C41.5332 80.1287 41.2369 80.7064 40.7627 81.1156C40.2885 81.5248 39.6736 81.7332 39.0484 81.6968C38.7435 81.6968 38.4532 81.6968 38.1484 81.6968L37.8435 81.6097ZM38.1629 79.8387C38.5238 79.9549 38.9078 79.9799 39.2806 79.9113C39.3964 79.874 39.4983 79.8029 39.5733 79.7072C39.6483 79.6115 39.693 79.4955 39.7016 79.3742C39.7388 79.267 39.742 79.151 39.7109 79.0419C39.6797 78.9327 39.6156 78.8359 39.5274 78.7645C39.2031 78.5418 38.8176 78.4251 38.4242 78.4307L38.1629 79.8387Z" fill="#707070"/>
<path d="M13.413 65.7435L11.8888 66.5854L11.613 66.4112C10.8795 65.7668 10.3371 64.9333 10.0453 64.0016C9.8903 63.5576 9.84897 63.0819 9.92503 62.6179C10.0011 62.1539 10.1921 61.7163 10.4807 61.3451C10.9303 60.7013 11.5371 60.1832 12.2435 59.8402C12.9499 59.4972 13.7323 59.3406 14.5162 59.3854C15.1904 59.4185 15.832 59.6854 16.3307 60.1403C16.8008 60.5765 17.1731 61.1073 17.4233 61.6978C17.6735 62.2882 17.7958 62.9249 17.7823 63.5661C17.7867 63.6386 17.7867 63.7113 17.7823 63.7838L16.084 63.8709C16.0426 63.6599 16.0136 63.4466 15.9969 63.2322C15.9618 62.763 15.8014 62.3118 15.5323 61.9258C15.3682 61.6602 15.1228 61.4546 14.8325 61.3395C14.5422 61.2245 14.2226 61.2061 13.9211 61.287C13.2975 61.41 12.7257 61.7186 12.2807 62.1725C12.0246 62.394 11.8539 62.698 11.7982 63.032C11.7426 63.366 11.8054 63.709 11.9759 64.0016C12.2177 64.4555 12.5314 64.8673 12.9049 65.2209C13.0628 65.406 13.2325 65.5805 13.413 65.7435Z" fill="#707070"/>
<path d="M31.0209 15.9677L30.3532 16.3016L26.5209 12.8177H26.4338L28.5822 17.1726L27.7838 17.579L24.8806 11.6564L26.0419 11.0903C27.3774 12.2951 28.6693 13.5145 29.9903 14.7048H30.0774L29.9903 13.6016C29.8742 12.3097 29.758 11.0177 29.6274 9.72579C29.6042 9.61638 29.6225 9.50225 29.6789 9.40563C29.7352 9.30902 29.8256 9.23686 29.9322 9.20321C30.1935 9.1016 30.4548 8.95644 30.7596 8.81128L33.6629 14.7048L33.4451 14.85L32.8209 15.1403L30.6726 10.7855H30.5855C30.5855 11.6274 30.7306 12.4839 30.8032 13.3403C30.8758 14.1968 30.9338 15.1258 31.0209 15.9677Z" fill="#707070"/>
<path d="M74.2355 59.1824L75.6871 60.0969L74.642 61.8243L79.5484 64.7275L78.5903 66.3098L73.6839 63.4066L72.6242 65.134L71.1726 64.2195L74.2355 59.1824Z" fill="#707070"/>
<path d="M45.1743 77.3128L46.9307 77.2112C47.0904 79.1128 47.163 80.9854 47.3226 82.887C48.2517 82.887 49.1662 82.7563 50.1243 82.7563L50.2404 84.4983C48.6872 84.6144 47.1775 84.7305 45.6533 84.7886C45.5226 84.4257 45.0872 77.7483 45.1743 77.3128Z" fill="#707070"/>
<path d="M71.3178 18.6822L67.6888 22.0064L67.0791 21.3532L71.9565 16.8967L72.5081 17.4919C72.6678 17.6516 72.5081 17.8112 72.5081 17.9564C72.3339 18.6677 72.1452 19.408 71.9565 20.0758L71.2162 22.979C71.2162 23.0806 71.2162 23.1967 71.1436 23.3419C71.3926 23.2108 71.6105 23.0276 71.7823 22.8048L72.3775 22.2677L72.9872 21.7016L73.5968 21.15L74.192 20.6129L74.8162 20.0322L75.4404 20.7L70.5775 25.1419C70.3418 24.9569 70.1361 24.7366 69.9678 24.4887C69.9678 24.3871 69.9678 24.2129 69.9678 24.0967C70.2291 23.0225 70.5194 21.9483 70.7952 20.8741C70.9404 20.2645 71.1001 19.6548 71.2597 19.0451C71.2597 18.929 71.2597 18.7983 71.3323 18.6822H71.3178Z" fill="#707070"/>
<path d="M23.2257 20.3227C23.2246 20.8386 23.0733 21.343 22.7902 21.7743C22.5011 22.2307 22.1144 22.6174 21.658 22.9065C21.2964 23.1619 20.8741 23.3178 20.4334 23.3585C19.9926 23.3993 19.5489 23.3235 19.1467 23.1388C18.0876 22.6962 17.233 21.8727 16.7515 20.8307C16.5455 20.4144 16.4569 19.9497 16.4953 19.4868C16.5337 19.0238 16.6975 18.5801 16.9693 18.2033C17.2623 17.7629 17.6428 17.3874 18.087 17.1001C18.4022 16.874 18.7665 16.7258 19.1501 16.6677C19.5336 16.6097 19.9255 16.6435 20.2935 16.7662C20.9788 16.9741 21.6023 17.3478 22.1087 17.8542C22.6151 18.3606 22.9888 18.9841 23.1967 19.6694C23.2245 19.886 23.2342 20.1045 23.2257 20.3227ZM20.2499 22.4565C20.5479 22.4339 20.8378 22.3485 21.1005 22.2059C21.3632 22.0633 21.5928 21.8667 21.7741 21.6291C22.0443 21.3592 22.2156 21.0061 22.2603 20.6268C22.3051 20.2475 22.2208 19.8642 22.0209 19.5388C21.6245 18.7893 21.0058 18.1808 20.2499 17.7969C19.9365 17.6219 19.5757 17.5508 19.2193 17.5936C18.8998 17.6359 18.5949 17.753 18.3292 17.9354C18.0636 18.1178 17.8447 18.3603 17.6905 18.6433C17.5363 18.9262 17.4511 19.2416 17.4418 19.5637C17.4325 19.8858 17.4994 20.2055 17.637 20.4969C18.0266 21.2565 18.6535 21.8681 19.4225 22.2388C19.6736 22.3328 19.9306 22.4104 20.1918 22.4711L20.2499 22.4565Z" fill="#707070"/>
<path d="M52.6208 76.3693L54.4063 75.8757L56.3805 83.1338L54.595 83.6273L52.6208 76.3693Z" fill="#707070"/>
<path d="M64.1904 18.871L63.3484 18.3629C63.3484 17.9274 63.4791 17.4919 63.5516 17.071C63.6242 16.65 63.5516 16.6645 63.6678 16.4758C63.6905 16.4021 63.6871 16.3228 63.658 16.2513C63.6289 16.1798 63.5759 16.1207 63.5081 16.0839L61.6355 14.9661L61.1855 15.3L60.0823 16.1564C60.0297 16.2014 59.9628 16.2261 59.8936 16.2261C59.8244 16.2261 59.7575 16.2014 59.7049 16.1564L59.0662 15.7645L64.7129 11.4097L65.3662 11.8161L64.1904 18.871ZM63.871 15.3145C64.1061 14.5571 64.2331 13.7703 64.2484 12.9774L62.4194 14.5161L63.871 15.3145Z" fill="#707070"/>
<path d="M37.1904 6.98231L37.742 6.88069C38.2356 6.88069 38.7291 6.72102 39.1937 6.66295C39.4828 6.62667 39.7754 6.62667 40.0646 6.66295C40.4374 6.68346 40.7923 6.82944 41.0717 7.07716C41.351 7.32489 41.5384 7.65979 41.6033 8.02747C41.756 8.51076 41.7139 9.03454 41.4862 9.48731C41.2584 9.94008 40.863 10.2861 40.384 10.4517C39.9763 10.5888 39.559 10.6955 39.1356 10.771L38.7291 10.8436C38.7291 11.6855 39.0049 12.4839 39.0485 13.3404L38.1485 13.4565L37.1904 6.98231ZM38.642 9.98715C39.1035 9.97597 39.5598 9.88765 39.992 9.72586C40.1398 9.686 40.2774 9.61501 40.3955 9.51766C40.5136 9.42031 40.6096 9.29884 40.6769 9.16138C40.7443 9.02393 40.7815 8.87367 40.786 8.72067C40.7906 8.56766 40.7624 8.41546 40.7033 8.27424C40.6643 8.08039 40.5644 7.90407 40.4182 7.77092C40.272 7.63777 40.0871 7.55474 39.8904 7.53392C39.3498 7.48444 38.8047 7.52864 38.2791 7.66457C38.3662 8.46295 38.4969 9.21779 38.642 9.98715Z" fill="#707070"/>
<path d="M12.3242 24.5757L12.8468 25.287L12.5565 25.5483C12.1641 25.8861 11.8601 26.3146 11.671 26.7966C11.5427 27.1011 11.4992 27.4346 11.5453 27.7617C11.5913 28.0889 11.725 28.3975 11.9323 28.6547C12.2198 29.0306 12.5826 29.3423 12.9976 29.5698C13.4126 29.7972 13.8705 29.9355 14.342 29.9757C14.7007 30.0234 15.0654 29.9581 15.3854 29.789C15.7054 29.62 15.9648 29.3554 16.1275 29.0321C16.341 28.6098 16.5253 28.1733 16.6791 27.7257C16.6791 27.5805 16.7662 27.4354 16.8097 27.3192H16.8823C17.6952 27.7112 17.6372 27.595 17.3759 28.3934C17.2336 28.8361 17.0386 29.2601 16.7952 29.6563C16.5062 30.1669 16.0554 30.5668 15.5139 30.7928C14.9725 31.0189 14.3712 31.0582 13.8049 30.9047C12.9933 30.752 12.2368 30.3863 11.613 29.845C11.1439 29.4541 10.8101 28.9252 10.659 28.3336C10.5078 27.7421 10.547 27.1179 10.771 26.5499C11.0664 25.7438 11.6104 25.0525 12.3242 24.5757Z" fill="#707070"/>
<path d="M74.134 31.0791C74.0179 30.8758 73.9308 30.7016 73.8582 30.542C73.807 30.4388 73.7634 30.3321 73.7275 30.2226L78.8372 27.6823L77.9517 25.8678L78.7211 25.4758C79.4759 26.9274 80.1727 28.3791 80.9421 29.9468L80.1727 30.3387L79.2727 28.5387C77.5453 29.3662 75.8614 30.2371 74.134 31.0791Z" fill="#707070"/>
<path d="M47.3806 6.25635L48.3241 6.32893L47.7725 12.0193L50.5451 12.3241V13.166C49.2822 13.0934 48.0628 12.9338 46.7854 12.8176L47.3806 6.25635Z" fill="#707070"/>
<path d="M55.4081 14.5161L54.5081 14.2113L56.6129 7.92578L57.5129 8.23062L55.4081 14.5161Z" fill="#707070"/>
</g>
<defs>
<clipPath id="clip0_272_21831">
<rect width="90" height="90" fill="white"/>
</clipPath>
</defs>
</svg>
