<svg width="96" height="90" viewBox="0 0 96 90" fill="none" xmlns="http://www.w3.org/2000/svg">
<g clip-path="url(#clip0_272_21858)">
<path d="M50.8994 85.1371L51.5014 89.3177C39.639 91.8871 20.9939 87.358 9.46924 72.5806C4.99132 66.9307 1.94532 60.3036 0.585524 53.2526C-0.774268 46.2015 -0.408392 38.9311 1.65261 32.0484C3.71361 25.1656 7.40993 18.8703 12.433 13.6878C17.456 8.50533 23.66 4.58617 30.5271 2.25752C37.3942 -0.0711384 44.725 -0.741722 51.9075 0.30175C59.0901 1.34522 65.916 4.07247 71.8154 8.25581C77.7148 12.4392 82.5164 17.9572 85.8195 24.3493C89.1226 30.7413 90.8312 37.8219 90.8028 45H86.3984C85.8112 30.7451 79.8653 19.3064 67.8561 11.2935C59.8403 5.80862 50.0179 3.53624 40.373 4.93546C30.2084 6.17448 20.8891 11.1547 14.272 18.8838C7.65497 26.6129 4.22605 36.5233 4.6685 46.6403C4.90296 54.1277 7.30263 61.3919 11.5833 67.5726C15.835 73.8272 21.7673 78.7848 28.713 81.8878C35.6587 84.9908 43.3422 86.1161 50.8994 85.1371Z" fill="#707070"/>
<path d="M63.9363 89.7677L47.1704 70.0694L52.4997 65.8597L64.2446 75.3823L92.1387 54.1887L95.9852 58.2387L63.9363 89.7677Z" fill="#707070"/>
<path d="M15.9878 43.084V30.9775H21.1849C22.1464 30.9342 23.1085 31.047 24.0331 31.3114C24.6442 31.5178 25.1634 31.9285 25.5012 32.4727C25.8581 33.0433 26.0416 33.7034 26.0297 34.3743C26.0633 35.1991 25.7741 36.0049 25.2222 36.6243C24.5609 37.2753 23.6863 37.6716 22.7558 37.742C23.2499 38.0064 23.6963 38.3497 24.0771 38.7582C24.6291 39.3632 25.1208 40.0194 25.5452 40.7178L27.0133 43.084H24.0771L22.286 40.442C21.8885 39.8252 21.4521 39.2337 20.9794 38.6711C20.7813 38.4439 20.529 38.2693 20.2453 38.163C19.8382 38.0588 19.4176 38.0147 18.9974 38.0324H18.4983V43.084H15.9878ZM18.4542 36.1017H20.2747C21.0216 36.132 21.7697 36.0834 22.5062 35.9566C22.7871 35.8604 23.0292 35.6771 23.1962 35.434C23.3699 35.166 23.4569 34.8521 23.4458 34.534C23.4607 34.175 23.3404 33.8233 23.1081 33.5469C22.8641 33.2876 22.5378 33.1186 22.1832 33.0679C21.9777 33.0679 21.3758 33.0679 20.3775 33.0679H18.4542V36.1017Z" fill="#707070"/>
<path d="M28.3198 43.084V30.9775H37.3928V33.0243H30.8303V35.7098H36.967V37.7421H30.8303V41.0227H37.657V43.0695L28.3198 43.084Z" fill="#707070"/>
<path d="M50.738 43.084H48.0514L46.9797 40.3259H42.1055L41.1072 43.084H38.4646L43.236 30.9775H45.8492L50.738 43.084ZM46.2016 38.2937L44.5132 33.8082L42.8543 38.2937H46.2016Z" fill="#707070"/>
<path d="M59.8843 38.6274L62.2774 39.3822C62.0054 40.5232 61.3603 41.5437 60.4422 42.2854C59.3377 43.0145 58.0121 43.3435 56.6902 43.2165C55.3684 43.0895 54.1317 42.5144 53.1897 41.5886C52.0882 40.3511 51.5239 38.7345 51.6188 37.0886C51.5135 35.3817 52.0819 33.7009 53.2044 32.3999C53.734 31.8456 54.3775 31.4099 55.0916 31.1219C55.8057 30.834 56.5739 30.7005 57.3445 30.7306C58.0096 30.7011 58.6741 30.8027 59.2992 31.0294C59.9242 31.2562 60.4974 31.6037 60.9854 32.0515C61.6055 32.6624 62.0425 33.4312 62.248 34.2725L59.7962 34.8532C59.6707 34.2824 59.349 33.7724 58.886 33.4098C58.4229 33.0472 57.847 32.8545 57.2564 32.8644C56.8367 32.8511 56.4193 32.9316 56.0355 33.1C55.6516 33.2685 55.3112 33.5204 55.0396 33.837C54.4004 34.7487 54.1043 35.8529 54.2027 36.958C54.0935 38.1074 54.3835 39.2594 55.0249 40.2241C55.2876 40.5399 55.6201 40.7917 55.9968 40.9604C56.3736 41.129 56.7844 41.2098 57.1977 41.1967C57.8011 41.2251 58.3932 41.0282 58.8567 40.6451C59.4155 40.1034 59.7769 39.3938 59.8843 38.6274Z" fill="#707070"/>
<path d="M64.4062 43.084V30.9775H66.8727V35.7388H71.7175V30.9775H74.1839V43.084H71.7175V37.7421H66.8727V43.0404L64.4062 43.084Z" fill="#707070"/>
<path d="M22.1833 52.65L23.4165 52.9548C23.2237 53.8479 22.7324 54.6507 22.0218 55.2339C21.3256 55.7661 20.4643 56.0432 19.5847 56.0177C18.7297 56.0529 17.8828 55.8411 17.1476 55.4081C16.4854 54.9943 15.9717 54.3848 15.6795 53.6661C15.3532 52.8939 15.1884 52.0643 15.195 51.2274C15.1767 50.3631 15.368 49.5069 15.7529 48.7306C16.0918 48.0433 16.6416 47.4794 17.3238 47.1194C18.0051 46.7433 18.7752 46.5529 19.5553 46.5677C20.3897 46.5403 21.21 46.7852 21.8896 47.2645C22.5382 47.7543 23.0031 48.4439 23.211 49.2242L22.0218 49.5C21.8644 48.9332 21.5368 48.4271 21.0822 48.0484C20.6336 47.7324 20.0909 47.574 19.5407 47.5984C18.9094 47.5802 18.2882 47.7579 17.7642 48.1065C17.2932 48.4384 16.943 48.9119 16.7659 49.4565C16.5663 50.0208 16.467 50.6151 16.4723 51.2129C16.4615 51.9048 16.5758 52.5931 16.81 53.2452C17.0098 53.7867 17.3871 54.2465 17.8817 54.5516C18.3547 54.8355 18.8993 54.9814 19.4526 54.9726C20.0865 54.9926 20.7066 54.7865 21.1996 54.3919C21.7195 53.9398 22.0667 53.3249 22.1833 52.65Z" fill="#707070"/>
<path d="M24.679 52.5483C24.638 52.0468 24.7088 51.5425 24.8864 51.071C25.0639 50.5994 25.3439 50.1722 25.7067 49.8193C26.2942 49.3335 27.0404 49.0755 27.8061 49.0934C28.225 49.0728 28.6436 49.1411 29.0336 49.2939C29.4236 49.4466 29.7759 49.6802 30.067 49.9789C30.3733 50.314 30.609 50.7061 30.7603 51.1323C30.9115 51.5585 30.9753 52.0103 30.9478 52.4612C30.9781 53.1505 30.8422 53.8372 30.5514 54.4644C30.3075 54.9473 29.9175 55.343 29.4357 55.5967C28.9375 55.8701 28.3758 56.0102 27.8061 56.0031C27.3904 56.0294 26.9738 55.9679 26.584 55.8227C26.1942 55.6776 25.8401 55.4521 25.5452 55.1612C25.2312 54.8052 24.9928 54.3905 24.844 53.9416C24.6952 53.4928 24.6391 53.019 24.679 52.5483ZM25.8388 52.5483C25.8021 53.2307 26.01 53.9041 26.426 54.4499C26.6052 54.6601 26.8306 54.827 27.0851 54.9377C27.3396 55.0485 27.6164 55.1001 27.8941 55.0886C28.1724 55.1034 28.4502 55.0534 28.7053 54.9424C28.9603 54.8315 29.1854 54.6627 29.3623 54.4499C29.7779 53.8885 29.9759 53.1983 29.9201 52.5047C29.9718 51.8386 29.7731 51.177 29.3623 50.6467C29.1846 50.451 28.9673 50.2945 28.7245 50.1874C28.4817 50.0803 28.2188 50.0249 27.9529 50.0249C27.687 50.0249 27.424 50.0803 27.1812 50.1874C26.9384 50.2945 26.7211 50.451 26.5435 50.6467C26.0853 51.1764 25.8352 51.8513 25.8388 52.5483Z" fill="#707070"/>
<path d="M32.592 55.8581V49.2387H33.6197V50.1677C33.8304 49.8433 34.1175 49.5743 34.4565 49.3839C34.8178 49.1793 35.2297 49.0788 35.6457 49.0935C36.0732 49.0759 36.4967 49.1819 36.8643 49.3984C37.1845 49.5961 37.4237 49.8995 37.5396 50.2548C37.7498 49.9007 38.0502 49.6071 38.4108 49.4034C38.7714 49.1996 39.1796 49.0928 39.5949 49.0935C39.8755 49.0732 40.1572 49.1104 40.4225 49.2028C40.6877 49.2953 40.9308 49.4409 41.1365 49.6306C41.5255 50.1036 41.7148 50.7069 41.665 51.3145V55.8581H40.5345V51.6919C40.5515 51.3644 40.5168 51.0363 40.4318 50.7193C40.36 50.519 40.2198 50.3496 40.0354 50.2403C39.8261 50.1202 39.5872 50.0599 39.3454 50.0661C39.1277 50.0588 38.9109 50.0964 38.7087 50.1763C38.5066 50.2563 38.3234 50.377 38.1709 50.5306C37.835 50.9381 37.6719 51.4584 37.7158 51.9823V55.829H36.5706V51.4742C36.6008 51.0771 36.5032 50.6808 36.2917 50.3419C36.184 50.2134 36.046 50.113 35.8898 50.0497C35.7336 49.9864 35.5641 49.9621 35.3961 49.979C35.0796 49.9727 34.7682 50.0585 34.5006 50.2258C34.2297 50.3976 34.0233 50.6526 33.9133 50.9516C33.77 51.4217 33.7104 51.9129 33.7372 52.4032V55.8435L32.592 55.8581Z" fill="#707070"/>
<path d="M43.6765 58.3985V49.2388H44.7042V50.0953C44.9194 49.7966 45.1942 49.5446 45.5117 49.3549C45.8551 49.177 46.24 49.0919 46.6274 49.1082C47.1758 49.0915 47.7154 49.2468 48.169 49.5519C48.6226 49.857 48.9669 50.2962 49.1526 50.8066C49.3813 51.3592 49.4961 51.9514 49.4902 52.5485C49.5029 53.1772 49.3777 53.8012 49.1232 54.3775C48.9036 54.8885 48.5291 55.3195 48.0515 55.6114C47.6135 55.8907 47.1045 56.0417 46.5834 56.0469C46.2312 56.0559 45.8826 55.976 45.5704 55.8146C45.2825 55.6687 45.0277 55.4661 44.8216 55.2195V58.442L43.6765 58.3985ZM44.7042 52.592C44.654 53.2626 44.8408 53.9296 45.2327 54.4791C45.3809 54.6707 45.5721 54.8255 45.7912 54.9313C46.0104 55.0372 46.2514 55.0911 46.4953 55.0888C46.7456 55.0866 46.9921 55.0279 47.216 54.9172C47.4399 54.8065 47.6353 54.6468 47.7872 54.4501C48.2011 53.8829 48.394 53.187 48.3304 52.4904C48.3806 51.8199 48.1938 51.1529 47.8019 50.6033C47.6561 50.4073 47.466 50.2475 47.2469 50.1366C47.0277 50.0258 46.7855 49.9669 46.5393 49.9646C46.2891 49.9724 46.0439 50.0366 45.8226 50.1523C45.6012 50.2681 45.4095 50.4323 45.2621 50.6324C44.8556 51.2036 44.6587 51.895 44.7042 52.592Z" fill="#707070"/>
<path d="M51.1492 55.8581V46.7129H52.2943V55.8581H51.1492Z" fill="#707070"/>
<path d="M54.3203 48.0048V46.7129H55.4508V48.0048H54.3203ZM54.3203 55.8581V49.2387H55.4508V55.8581H54.3203Z" fill="#707070"/>
<path d="M61.9251 55.0451C61.5688 55.3571 61.1618 55.6074 60.7212 55.7854C60.3219 55.9317 59.8992 56.0054 59.4733 56.0032C58.8596 56.0451 58.2522 55.8587 57.7703 55.4806C57.4715 55.1951 57.2743 54.8216 57.2081 54.416C57.142 54.0104 57.2104 53.5945 57.4033 53.2306C57.5381 52.9659 57.7405 52.7407 57.9905 52.5774C58.2396 52.4167 58.5118 52.2943 58.798 52.2145C59.1323 52.1389 59.4705 52.0808 59.811 52.0403C60.4975 51.9828 61.1764 51.8564 61.837 51.6629V51.358C61.8547 51.186 61.8365 51.0121 61.7834 50.8473C61.7304 50.6825 61.6437 50.5303 61.5287 50.4C61.1549 50.1196 60.6897 49.9853 60.2221 50.0225C59.8109 49.9895 59.3998 50.0861 59.0476 50.2983C58.7522 50.5479 58.5547 50.8921 58.4897 51.2709L57.3739 51.1258C57.4501 50.7154 57.6209 50.328 57.8731 49.9935C58.1361 49.6893 58.483 49.4674 58.8714 49.3548C59.3439 49.1957 59.8404 49.1171 60.3395 49.1225C60.8364 49.098 61.3336 49.1619 61.8076 49.3112C62.1058 49.4138 62.3732 49.5885 62.5857 49.8193C62.7721 50.0391 62.894 50.3052 62.9381 50.5887C62.9708 50.9314 62.9708 51.2765 62.9381 51.6193V53.0709C62.9613 53.737 63.025 54.4011 63.1289 55.0596C63.176 55.3414 63.2756 55.6121 63.4226 55.858H62.2334C62.0865 55.6055 61.9823 55.3309 61.9251 55.0451ZM61.837 52.5338C61.2398 52.7473 60.6187 52.8886 59.9872 52.9548C59.6464 52.9935 59.3113 53.0715 58.9889 53.187C58.8357 53.2534 58.7018 53.3568 58.5996 53.4876C58.4974 53.6184 58.43 53.7726 58.4037 53.9359C58.3774 54.0991 58.393 54.2663 58.4491 54.4221C58.5051 54.5779 58.5999 54.7172 58.7246 54.8274C59.0122 55.05 59.3733 55.1587 59.7376 55.1322C60.1433 55.1381 60.5434 55.0379 60.8974 54.8419C61.2271 54.6709 61.4942 54.4018 61.6608 54.0725C61.795 53.7104 61.8549 53.3255 61.837 52.9403V52.5338Z" fill="#707070"/>
<path d="M65.0669 55.8581V49.2388H66.0652V50.1823C66.2908 49.8308 66.6068 49.5447 66.9808 49.3534C67.3548 49.1622 67.7734 49.0725 68.194 49.0936C68.5708 49.0909 68.9446 49.1598 69.2951 49.2968C69.6001 49.4075 69.8656 49.6044 70.0585 49.863C70.2401 50.1076 70.3608 50.391 70.4108 50.6904C70.4686 51.0552 70.4932 51.4244 70.4842 51.7936V55.8581H69.3391V51.8371C69.3547 51.4887 69.3101 51.1401 69.207 50.8065C69.1232 50.576 68.9557 50.3846 68.7372 50.2694C68.4978 50.1287 68.2228 50.0582 67.9444 50.0662C67.486 50.0554 67.0403 50.2161 66.6965 50.5162C66.4958 50.7565 66.3478 51.0355 66.2619 51.3353C66.176 51.6352 66.154 51.9494 66.1973 52.2581V55.8726L65.0669 55.8581Z" fill="#707070"/>
<path d="M75.0499 54.8565L75.2114 55.8436C74.9323 55.909 74.6467 55.943 74.3599 55.9452C74.026 55.9635 73.6928 55.8986 73.3909 55.7565C73.1842 55.6402 73.0198 55.4624 72.9211 55.2484C72.7915 54.8156 72.7418 54.3632 72.7743 53.9129V50.1097H71.9375V49.2387H72.7596V47.5984L73.8901 46.9307V49.2387H75.0352V50.1097H73.8901V53.9855C73.8547 54.1872 73.8547 54.3935 73.8901 54.5952C73.9076 54.6434 73.9349 54.6875 73.9702 54.7249C74.0056 54.7624 74.0482 54.7923 74.0956 54.8129C74.211 54.8794 74.3441 54.9098 74.4773 54.9L75.0499 54.8565Z" fill="#707070"/>
</g>
<defs>
<clipPath id="clip0_272_21858">
<rect width="96" height="90" fill="white"/>
</clipPath>
</defs>
</svg>
