<svg width="108" height="78" viewBox="0 0 108 78" fill="none" xmlns="http://www.w3.org/2000/svg">
<g clip-path="url(#clip0_272_21875)">
<path d="M102.327 77.5L99.7774 77.2516C95.1808 76.7643 90.7166 75.4205 86.6164 73.2898C81.8586 70.9088 77.6556 67.5555 74.2803 63.4474C70.9049 59.3394 68.4327 54.5686 67.0241 49.4447C65.562 44.2634 65.2044 38.8337 65.9744 33.5059C66.7444 28.1781 68.6249 23.0708 71.4945 18.5135C74.3641 13.9563 78.159 10.0505 82.6342 7.04831C87.1094 4.04608 92.1655 2.01416 97.4761 1.08371C98.8817 0.835323 100.325 0.748387 101.755 0.574516C101.917 0.574516 102.079 0.574516 102.24 0.5H105.972L107.95 0.673871V12.2735C107.849 12.2422 107.745 12.2213 107.639 12.2115C104.127 11.8034 100.569 12.0604 97.1526 12.969C92.9613 14.0596 89.0996 16.1543 85.9023 19.0716C82.705 21.9888 80.2686 25.6406 78.8043 29.7103C78.369 30.8281 78.0828 32.0079 77.7097 33.225H100.25V44.7874H77.7345C77.9958 45.7065 78.2072 46.5634 78.4933 47.3955C80.3379 52.9763 83.9536 57.8051 88.7928 61.1508C93.6321 64.4965 99.4315 66.1769 105.313 65.9376C106.209 65.9376 107.104 65.801 108 65.7265V77.3261L106.022 77.5H102.327Z" fill="#707070"/>
<path d="M40.4036 0.5L42.3939 0.69871V12.2115C33.0892 11.3173 25.0408 13.9253 18.6469 20.905C16.1574 23.5478 14.2477 26.6801 13.0396 30.1017C11.8315 33.5232 11.3518 37.1588 11.631 40.776C12.4395 54.9713 25.0532 67.6887 42.3815 65.7886V77.2889L40.4036 77.5H36.6717L36.1866 77.4255C33.7318 77.2823 31.2978 76.8911 28.9219 76.2581C23.9507 74.9935 19.2848 72.7445 15.2012 69.6446C11.1175 66.5447 7.69946 62.6571 5.14997 58.2127C2.47978 53.67 0.812965 48.6099 0.26123 43.3716C0.161714 42.5271 0.0870767 41.6826 0 40.8877V37.1619C0 37.0005 0.0621976 36.839 0.0746372 36.6776C0.2683 32.9835 1.0233 29.3403 2.31375 25.8727C4.00488 21.1505 6.6125 16.8078 9.98727 13.0933C13.362 9.37874 17.4376 6.36539 21.9806 4.22581C25.8282 2.36733 29.97 1.19068 34.2211 0.748387L36.7091 0.5H40.4036Z" fill="#707070"/>
</g>
<defs>
<clipPath id="clip0_272_21875">
<rect width="108" height="77" fill="white" transform="translate(0 0.5)"/>
</clipPath>
</defs>
</svg>
