<svg width="91" height="76" viewBox="0 0 91 76" fill="none" xmlns="http://www.w3.org/2000/svg">
<g clip-path="url(#clip0_272_21878)">
<path d="M84.8541 55.1048L91.0606 59.4234C86.6767 65.7231 80.4625 70.53 73.2559 73.1958C66.0493 75.8616 58.1968 76.2581 50.7574 74.3319C43.3179 72.4057 36.6492 68.2494 31.6504 62.4234C26.6516 56.5975 23.5632 49.382 22.8015 41.75H7.58838V42.2339C7.58838 50.9677 7.58838 59.6895 7.58838 68.4234C7.59937 68.6012 7.55967 68.7786 7.47386 68.9349C7.38804 69.0911 7.25964 69.22 7.1035 69.3064C4.84881 70.7702 2.6426 72.2702 0.412149 73.7581L0 74.0242V1.34676H31.8445L31.6263 1.70967C29.8929 4.02015 28.1473 6.33063 26.4139 8.65321C26.3454 8.75956 26.2498 8.84584 26.1369 8.90323C26.024 8.96061 25.8979 8.98705 25.7714 8.97983H7.58838V34.0927H22.8015C23.7812 24.8371 28.1858 16.2791 35.1539 10.0927C40.2979 5.40391 46.6785 2.28111 53.543 1.09273C60.4968 -0.154328 67.662 0.580163 74.2166 3.21193C80.7711 5.8437 86.4494 10.2661 90.6 15.9718L84.539 20.3992C78.2476 12.3306 69.9925 8.02418 59.7737 8.13305C55.6887 8.1314 51.6497 8.9929 47.9224 10.6609C44.1951 12.3288 40.8639 14.7655 38.148 17.8105C35.4521 20.7449 33.3726 24.1884 32.0322 27.938C30.6917 31.6875 30.1176 35.667 30.3435 39.6416C30.5695 43.6161 31.5911 47.5053 33.3479 51.0794C35.1047 54.6536 37.5612 57.8404 40.5724 60.4516C43.7114 63.2704 47.4242 65.3785 51.4561 66.6313C55.488 67.8841 59.7438 68.252 63.9315 67.7097C68.1112 67.1951 72.135 65.8065 75.7403 63.6345C79.3455 61.4625 82.4511 58.556 84.8541 55.1048Z" fill="#707070"/>
<path d="M77.581 25.4556L71.52 29.8831C70.1347 27.9703 68.2768 26.448 66.127 25.4644C63.9772 24.4808 61.6089 24.0694 59.2525 24.2702C57.3969 24.3823 55.5854 24.8804 53.9341 25.7324C52.2828 26.5845 50.8283 27.7716 49.664 29.2177C48.3564 30.6266 47.3581 32.2925 46.733 34.1086C46.1079 35.9247 45.8698 37.8512 46.0339 39.7644C46.198 41.6777 46.7608 43.5357 47.6861 45.2194C48.6114 46.9032 49.8789 48.3755 51.4074 49.5421C52.9358 50.7087 54.6916 51.5439 56.5623 51.9941C58.4329 52.4444 60.3772 52.4999 62.2706 52.157C64.1639 51.814 65.9646 51.0803 67.5574 50.0027C69.1502 48.9251 70.4998 47.5274 71.52 45.8992L77.7265 50.2056C75.1179 53.9176 71.3941 56.7058 67.0933 58.1671C62.7925 59.6284 58.1375 59.6872 53.801 58.335C49.4645 56.9828 45.6712 54.2896 42.9692 50.6447C40.2673 46.9998 38.7968 42.592 38.7701 38.0582C38.7435 33.5245 40.1621 29.0997 42.821 25.4234C45.4799 21.7472 49.2413 19.0098 53.5616 17.6069C57.8819 16.204 62.5373 16.2083 66.855 17.6192C71.1727 19.0301 74.929 21.7744 77.581 25.4556Z" fill="#707070"/>
</g>
<defs>
<clipPath id="clip0_272_21878">
<rect width="91" height="75" fill="white" transform="translate(0 0.5)"/>
</clipPath>
</defs>
</svg>
