<svg width="58" height="58" viewBox="0 0 58 58" fill="none" xmlns="http://www.w3.org/2000/svg">
<path d="M29.0003 50.75C29.6751 50.75 30.3024 50.4426 31.5569 49.8278L41.6405 44.8864C46.1026 42.6996 48.3337 41.6063 48.3337 39.875V18.125M29.0003 50.75C28.3256 50.75 27.6982 50.4426 26.4437 49.8278L16.3601 44.8864C11.898 42.6996 9.66699 41.6063 9.66699 39.875V18.125M29.0003 50.75V29" stroke="white" stroke-width="2" stroke-linecap="round" stroke-linejoin="round"/>
<path d="M26.4437 8.17218C27.6982 7.5574 28.3256 7.25 29.0003 7.25C29.6751 7.25 30.3024 7.5574 31.5569 8.17218L41.6405 13.1137C46.1026 15.3003 48.3337 16.3936 48.3337 18.125C48.3337 19.8564 46.1026 20.9497 41.6405 23.1363L31.5569 28.0778C30.3024 28.6926 29.6751 29 29.0003 29C28.3256 29 27.6982 28.6926 26.4437 28.0778L16.3601 23.1363C11.898 20.9497 9.66699 19.8564 9.66699 18.125C9.66699 16.3936 11.898 15.3003 16.3601 13.1137L26.4437 8.17218Z" stroke="white" stroke-width="2" stroke-linejoin="round"/>
</svg>
