<svg width="32" height="32" viewBox="0 0 32 32" fill="none" xmlns="http://www.w3.org/2000/svg">
<path d="M22.0979 25.4689L22.0979 25.4689L22.0979 25.4689ZM22.0979 25.4689L22.0986 25.4691M22.0979 25.4689L22.0986 25.4691M22.0986 25.4691L22.0989 25.4691M22.0986 25.4691L22.0989 25.4691M22.0989 25.4691L22.1379 25.4782L22.0989 25.4691ZM27.5787 5.32855L27.5786 5.32846C27.3677 5.13278 27.1091 4.99743 26.8293 4.93647C26.5495 4.87551 26.2588 4.89119 25.987 4.98185L25.9869 4.98187L4.00498 12.3296C3.36607 12.5432 2.93335 13.1217 2.90183 13.8012L2.90183 13.8012C2.87036 14.4806 3.24755 15.0977 3.86365 15.3711L3.86366 15.3711L9.25332 17.7623L10.8829 25.4262C10.9545 25.7629 11.1306 26.0943 11.524 26.1959L11.549 26.0991L11.524 26.1959C11.9095 26.2954 12.1863 26.0848 12.4293 25.8999C12.4371 25.894 12.4448 25.8882 12.4525 25.8823L12.392 25.8027L12.4525 25.8823L16.4234 22.8672L21.0786 26.73C21.0786 26.73 21.0786 26.73 21.0786 26.73C21.3712 26.9729 21.7295 27.1 22.0953 27.1H22.0953C22.2723 27.0998 22.4479 27.0703 22.6154 27.0125C23.1448 26.8305 23.537 26.3922 23.6646 25.8417L28.0575 6.90301L28.0575 6.90295C28.1227 6.62116 28.1127 6.32685 28.0286 6.05022C27.9445 5.77359 27.7893 5.52447 27.5787 5.32855ZM10.9245 17.596L17.2654 14.0236L12.838 18.7178L12.8378 18.718C12.7519 18.8097 12.6875 18.9196 12.6493 19.0396C12.6458 19.0483 12.6425 19.0578 12.6394 19.0686L12.6394 19.0689L11.8399 21.9012L10.9245 17.596ZM4.6712 13.8854L26.4096 6.61908L22.0621 25.3623L16.9775 21.1432L16.9755 21.1415L16.9751 21.1412L14.666 19.2252L22.2747 11.158C22.4125 11.0118 22.4939 10.8207 22.5044 10.6193C22.5149 10.418 22.4539 10.2193 22.3321 10.0594C22.2103 9.89938 22.0358 9.78869 21.8399 9.7478C21.6441 9.7069 21.4403 9.7386 21.2657 9.83699L9.93489 16.2207L4.6712 13.8854ZM22.1364 25.424C22.1376 25.4249 22.1378 25.4251 22.1366 25.4241L22.1364 25.424ZM13.5413 22.0205L13.8946 20.7688L15.0949 21.7649L13.2094 23.1965L13.5413 22.0205Z" fill="#134BAF" stroke="#134BAF" stroke-width="0.2"/>
</svg>
